<svg width="180" height="120" viewBox="0 0 180 120" fill="none" xmlns="http://www.w3.org/2000/svg">
<path d="M8.42601 14.1982H59.1361C61.0319 14.1982 62.5621 15.7219 62.5621 17.5907V32.3224C62.5621 34.1996 61.0234 35.7149 59.1361 35.7149H52.7942V42.4241L46.0187 35.7149H8.42601C6.53023 35.7149 5 34.1912 5 32.3224V17.5992C5 15.7219 6.53873 14.1982 8.42601 14.1982Z" fill="#EDEDED"/>
<path d="M17.7445 18.5923L19.7253 22.5572L24.1375 23.197L20.941 26.278L21.6976 30.6386L17.7445 28.5846L13.7914 30.6386L14.548 26.278L11.3516 23.197L15.7722 22.5572L17.7445 18.5923Z" fill="#FFCD40"/>
<path d="M34.0844 18.5923L36.0652 22.5572L40.4858 23.197L37.2893 26.278L38.0375 30.6386L34.0844 28.5846L30.1398 30.6386L30.8879 26.278L27.6914 23.197L32.1121 22.5572L34.0844 18.5923Z" fill="#FFCD40"/>
<path d="M50.432 18.5923L52.4043 22.5572L56.825 23.197L53.6285 26.278L54.3851 30.6386L50.432 28.5846L46.4789 30.6386L47.2355 26.278L44.0391 23.197L48.4512 22.5572L50.432 18.5923Z" fill="#FFCD40"/>
<path d="M164.228 36.1611H79.1641V106.04C79.1641 107.117 80.0482 107.993 81.1364 107.993H166.005C167.093 107.993 167.977 107.117 167.977 106.04V36.1611H164.219H164.228Z" fill="#EDEDED"/>
<path d="M165.308 24.2241H82.9053C78.8077 24.2241 75.4922 27.5072 75.4922 31.5647V35.3697C75.4922 36.0516 76.0533 36.6071 76.7419 36.6071H173.75C174.439 36.6071 175 36.0516 175 35.3697V31.5647C175 27.5072 171.684 24.2241 167.587 24.2241H165.3H165.308Z" fill="#D7D7D7"/>
<path d="M133.251 23.4243H116.988V36.4303V107.647H133.251V36.4303V23.4243Z" fill="#F16144"/>
<path d="M132.782 14.7788H116.52V24.2155H132.782V14.7788Z" fill="#FFE7BF"/>
<path d="M162.527 24.2241H132.781L133.249 14.7874L159.603 12.0179C160.946 11.8242 162.527 13.2301 162.527 15.04V24.2241Z" fill="#F16144"/>
<path d="M87.2422 24.2241H116.988V14.779L90.6342 12.0179C88.8234 11.8242 87.2422 13.2301 87.2422 15.04V24.2241Z" fill="#F16144"/>
<path d="M95.6307 72.8638H33.1719V106.561C33.1719 107.353 33.818 108.001 34.6256 108.001H96.9399C97.7391 108.001 98.3852 107.361 98.3852 106.561V72.8638H95.6307Z" fill="#FF7761"/>
<path d="M95.6319 63.7725H35.1283C32.1189 63.7725 29.6875 66.1885 29.6875 69.16V71.9549C29.6875 72.4599 30.0956 72.864 30.6056 72.864H101.838C102.348 72.864 102.756 72.4599 102.756 71.9549V69.16C102.756 66.18 100.316 63.7725 97.3151 63.7725H95.6404H95.6319Z" fill="#F7DDB7"/>
<path d="M71.7522 63.7725H59.8164V73.327V108.001H71.7522V73.327V63.7725Z" fill="#F16144"/>
<path d="M71.7607 56.8359H59.8164V63.764H71.7607V56.8359Z" fill="#FF7761"/>
<path d="M93.6015 63.7723H71.7617V56.8442L91.1106 54.8155C92.4368 54.6724 93.6015 55.7078 93.6015 57.0294V63.7723Z" fill="#F16144"/>
<path d="M37.9766 63.7723H59.8163V56.8442L40.4674 54.8155C39.1412 54.6724 37.9766 55.7078 37.9766 57.0294V63.7723Z" fill="#F16144"/>
</svg>
