<svg width="160" height="130" viewBox="0 0 160 130" fill="none" xmlns="http://www.w3.org/2000/svg">
<path d="M10.5521 10H122.39C124.354 10 125.942 11.6189 125.942 13.6048V25.081H7V13.6048C7 11.6117 8.59525 10 10.5521 10Z" fill="#F46144"/>
<path d="M7 25.0879H125.949V104.659C125.949 106.652 124.354 108.264 122.397 108.264H10.5521C8.58816 108.264 7 106.645 7 104.659V25.0879Z" fill="#EEEEEE"/>
<path d="M114.769 36.5H18.1748V58.8696H114.769V36.5Z" fill="white"/>
<path d="M81.4958 66.6758H18.1748V71.1583H81.4958V66.6758Z" fill="white"/>
<path d="M81.4958 77.2744H18.1748V81.757H81.4958V77.2744Z" fill="white"/>
<path d="M81.4958 87.873H18.1748V92.3556H81.4958V87.873Z" fill="white"/>
<path d="M18.1768 19.8648C19.4416 19.8648 20.4669 18.8243 20.4669 17.5408C20.4669 16.2573 19.4416 15.2168 18.1768 15.2168C16.912 15.2168 15.8867 16.2573 15.8867 17.5408C15.8867 18.8243 16.912 19.8648 18.1768 19.8648Z" fill="white"/>
<path d="M27.6348 19.8648C28.8996 19.8648 29.9249 18.8243 29.9249 17.5408C29.9249 16.2573 28.8996 15.2168 27.6348 15.2168C26.37 15.2168 25.3447 16.2573 25.3447 17.5408C25.3447 18.8243 26.37 19.8648 27.6348 19.8648Z" fill="white"/>
<path d="M37.0928 19.8648C38.3576 19.8648 39.3829 18.8243 39.3829 17.5408C39.3829 16.2573 38.3576 15.2168 37.0928 15.2168C35.828 15.2168 34.8027 16.2573 34.8027 17.5408C34.8027 18.8243 35.828 19.8648 37.0928 19.8648Z" fill="white"/>
<path d="M136.849 74.627H87.2827C85.4889 74.627 84.1206 76.2387 84.3829 78.0374L86.8857 99.7451C87.07 100.997 88.0059 101.997 89.2325 102.235L132.673 106.321L136.849 74.627Z" fill="#F46144"/>
<path d="M95.0326 84.7867H139.969V81.4697H95.0326C94.1321 81.4697 93.4019 82.2108 93.4019 83.1246C93.4019 84.0384 94.1321 84.7795 95.0326 84.7795V84.7867Z" fill="#FFE7BF"/>
<path d="M87.9269 111.718C87.9978 111.718 88.0687 111.718 88.1396 111.711L135.189 111.776C136.501 111.675 137.571 110.653 137.741 109.329L142.364 74.2674L150.596 68.8638C151.936 68.0867 152.396 66.3527 151.631 65C150.865 63.6402 149.156 63.1725 147.823 63.9496L138.394 70.0438C137.642 70.4827 137.132 71.2526 137.018 72.1232L132.509 106.3L87.7142 106.063C86.1757 106.178 85.0271 107.545 85.1405 109.099C85.254 110.588 86.4735 111.718 87.9198 111.718H87.9269Z" fill="#F8DEB8"/>
<path d="M125.788 119.999C128.967 119.999 131.545 117.384 131.545 114.157C131.545 110.93 128.967 108.314 125.788 108.314C122.608 108.314 120.031 110.93 120.031 114.157C120.031 117.384 122.608 119.999 125.788 119.999Z" fill="#C8C8C8"/>
<path d="M96.8274 119.999C100.007 119.999 102.584 117.384 102.584 114.157C102.584 110.93 100.007 108.314 96.8274 108.314C93.6478 108.314 91.0703 110.93 91.0703 114.157C91.0703 117.384 93.6478 119.999 96.8274 119.999Z" fill="#C8C8C8"/>
</svg>
