<svg width="180" height="120" viewBox="0 0 180 120" fill="none" xmlns="http://www.w3.org/2000/svg">
<path d="M140.398 109.901H53.5774C51.1293 109.901 49.1523 107.916 49.1523 105.478L58.3905 28.6077C58.3905 26.1611 60.3768 24.1853 62.8156 24.1853H131.16C133.608 24.1853 135.585 26.1703 135.585 28.6077L144.823 105.478C144.823 107.925 142.837 109.901 140.398 109.901Z" fill="#F16144"/>
<path d="M117.962 34.3585H113.367V23.0176C113.367 13.959 105.977 6.58154 96.8833 6.58154C87.7897 6.58154 80.3995 13.9503 80.3995 23.0176V34.3585H75.8047V23.0176C75.8047 11.4331 85.2564 2 96.8833 2C108.51 2 117.962 11.4244 117.962 23.0176V34.3585Z" fill="#FFE7BF"/>
<path d="M120.634 54.4364C121.551 54.4364 122.284 53.6958 122.284 52.7897C122.284 51.8749 121.542 51.1431 120.634 51.1431H110.151C109.234 51.1431 108.5 51.8836 108.5 52.7897C108.5 53.7045 109.243 54.4364 110.151 54.4364" fill="white"/>
<path d="M116.443 103.796C116.443 103.987 116.469 104.17 116.513 104.362C116.53 104.44 116.574 104.528 116.6 104.606C116.635 104.71 116.67 104.806 116.714 104.911C116.766 105.015 116.836 105.129 116.906 105.233C116.95 105.303 116.985 105.364 117.028 105.433C117.116 105.564 117.229 105.677 117.343 105.808C117.386 105.851 117.413 105.895 117.456 105.93C117.596 106.069 117.745 106.2 117.902 106.331C117.928 106.357 117.954 106.374 117.98 106.4C118.155 106.54 118.356 106.679 118.566 106.81C118.574 106.818 118.592 106.827 118.609 106.836C118.828 106.975 119.064 107.114 119.317 107.245H119.326C121.885 108.595 125.912 109.457 130.446 109.423C134.971 109.388 138.98 108.473 141.531 107.088C141.531 107.088 141.531 107.088 141.54 107.088C141.785 106.958 142.02 106.81 142.239 106.67C142.247 106.662 142.265 106.653 142.282 106.635C142.492 106.496 142.684 106.357 142.859 106.217C142.885 106.191 142.911 106.174 142.938 106.148C143.095 106.017 143.243 105.878 143.383 105.738C143.418 105.703 143.453 105.66 143.497 105.616C143.61 105.494 143.715 105.372 143.811 105.242C143.864 105.172 143.89 105.111 143.933 105.041C144.003 104.937 144.073 104.824 144.126 104.719C144.178 104.623 144.204 104.519 144.23 104.414C144.257 104.336 144.3 104.249 144.318 104.17C144.361 103.987 144.388 103.796 144.388 103.604H144.431L144.484 108.674H144.335C143.54 111.522 137.653 113.778 130.498 113.83C123.327 113.882 117.421 111.713 116.592 108.874H116.443L116.391 103.805H116.434L116.443 103.796Z" fill="#EABA24"/>
<path d="M130.383 97.9771C138.097 97.9249 144.378 100.442 144.395 103.595C144.395 103.787 144.369 103.978 144.325 104.161C144.308 104.248 144.264 104.327 144.238 104.405C144.203 104.51 144.177 104.606 144.133 104.71C144.081 104.823 144.011 104.928 143.941 105.032C143.897 105.102 143.862 105.163 143.818 105.233C143.731 105.363 143.618 105.485 143.504 105.607C143.469 105.651 143.434 105.694 143.39 105.729C143.251 105.869 143.102 106.008 142.945 106.139C142.919 106.165 142.893 106.182 142.866 106.208C142.692 106.348 142.491 106.496 142.29 106.626C142.272 106.635 142.264 106.644 142.246 106.661C142.028 106.801 141.792 106.94 141.547 107.079H141.539C141.285 107.219 141.014 107.349 140.735 107.48C140.735 107.48 140.735 107.48 140.726 107.48C138.184 108.638 134.541 109.387 130.462 109.414C126.383 109.44 122.731 108.743 120.172 107.619C119.883 107.497 119.613 107.367 119.359 107.227C119.359 107.227 119.359 107.227 119.351 107.227C119.097 107.097 118.87 106.957 118.643 106.818C118.634 106.809 118.617 106.801 118.599 106.792C118.39 106.661 118.197 106.522 118.014 106.382C117.979 106.356 117.962 106.339 117.935 106.313C117.769 106.182 117.621 106.051 117.49 105.912C117.455 105.877 117.42 105.834 117.376 105.79C117.263 105.668 117.158 105.546 117.062 105.416C117.009 105.346 116.983 105.285 116.94 105.215C116.87 105.111 116.8 104.998 116.747 104.893C116.704 104.797 116.669 104.693 116.634 104.588C116.608 104.51 116.564 104.423 116.546 104.344C116.503 104.161 116.477 103.97 116.477 103.778C116.459 100.616 122.696 98.012 130.418 97.9597L130.383 97.9771Z" fill="#F5DF35"/>
<path d="M116.443 96.8802C116.443 97.0718 116.469 97.2547 116.513 97.4463C116.53 97.5334 116.574 97.6118 116.6 97.6902C116.635 97.786 116.67 97.8906 116.714 97.9864C116.766 98.0909 116.836 98.2041 116.906 98.3086C116.95 98.3783 116.985 98.4393 117.028 98.509C117.116 98.6309 117.229 98.7529 117.343 98.8835C117.386 98.9271 117.413 98.9706 117.456 99.0055C117.596 99.1448 117.745 99.2755 117.902 99.4061C117.928 99.4323 117.954 99.4497 117.98 99.4758C118.155 99.6152 118.356 99.7545 118.566 99.8852C118.574 99.8939 118.592 99.9026 118.609 99.92C118.828 100.059 119.064 100.19 119.317 100.329H119.326C121.885 101.679 125.912 102.542 130.446 102.507C134.971 102.472 138.98 101.558 141.531 100.173C141.531 100.173 141.531 100.173 141.54 100.173C141.785 100.033 142.02 99.8939 142.239 99.7545C142.247 99.7458 142.265 99.7371 142.282 99.7197C142.492 99.5803 142.684 99.441 142.859 99.3016C142.885 99.2755 142.911 99.2581 142.938 99.2319C143.095 99.1013 143.243 98.9619 143.383 98.8225C143.418 98.7877 143.453 98.7442 143.497 98.7006C143.61 98.5787 143.715 98.4567 143.811 98.3261C143.864 98.2564 143.89 98.1954 143.933 98.1257C144.003 98.0212 144.073 97.908 144.126 97.8035C144.178 97.7076 144.204 97.6031 144.23 97.5073C144.257 97.4289 144.3 97.3418 144.318 97.2634C144.361 97.0718 144.388 96.8889 144.388 96.6973H144.431L144.484 101.767H144.335C143.54 104.615 137.653 106.871 130.498 106.923C123.327 106.975 117.421 104.806 116.592 101.967H116.443L116.391 96.8976H116.434L116.443 96.8802Z" fill="#EABA24"/>
<path d="M130.383 91.0613C138.097 91.009 144.378 93.5263 144.395 96.6793C144.395 96.871 144.369 97.0539 144.325 97.2455C144.308 97.3326 144.264 97.411 144.238 97.4894C144.203 97.5939 144.177 97.6897 144.133 97.7855C144.081 97.8988 144.011 98.0033 143.941 98.1078C143.897 98.1775 143.862 98.2385 143.818 98.3081C143.731 98.4388 143.618 98.5607 143.504 98.6827C143.469 98.7262 143.434 98.7698 143.39 98.8046C143.251 98.944 143.102 99.0833 142.945 99.214C142.919 99.2401 142.893 99.2575 142.866 99.2837C142.692 99.423 142.491 99.5711 142.29 99.7018C142.272 99.7105 142.264 99.7192 142.246 99.7366C142.028 99.876 141.792 100.015 141.547 100.155H141.539C141.285 100.294 141.014 100.425 140.735 100.555C140.735 100.555 140.735 100.555 140.726 100.555C138.184 101.714 134.541 102.463 130.462 102.489C126.383 102.515 122.731 101.818 120.172 100.695C119.883 100.564 119.613 100.433 119.359 100.303C119.359 100.303 119.359 100.303 119.351 100.303C119.097 100.172 118.87 100.033 118.643 99.8934C118.634 99.8847 118.617 99.876 118.599 99.8585C118.39 99.7279 118.197 99.5885 118.014 99.4492C117.979 99.4318 117.962 99.4056 117.935 99.3795C117.769 99.2488 117.621 99.1182 117.49 98.9788C117.455 98.944 117.42 98.9004 117.376 98.8569C117.263 98.7349 117.158 98.613 117.062 98.4823C117.009 98.4127 116.983 98.3517 116.94 98.282C116.87 98.1775 116.8 98.073 116.747 97.9597C116.704 97.8639 116.669 97.7594 116.634 97.6636C116.608 97.5852 116.564 97.4981 116.546 97.4197C116.503 97.2368 116.477 97.0452 116.477 96.8535C116.459 93.6918 122.696 91.0874 130.418 91.0352L130.383 91.0613Z" fill="#F5DF35"/>
<path d="M116.443 89.9645C116.443 90.1561 116.469 90.3477 116.513 90.5307C116.53 90.609 116.574 90.6961 116.6 90.7745C116.635 90.8703 116.67 90.9749 116.714 91.0707C116.766 91.1839 116.836 91.2884 116.906 91.393C116.95 91.4626 116.985 91.5236 117.028 91.5933C117.116 91.7152 117.229 91.8372 117.343 91.9591C117.386 92.0027 117.413 92.0375 117.456 92.0811C117.596 92.2204 117.745 92.3511 117.902 92.4817C117.928 92.5079 117.954 92.5253 117.98 92.5514C118.155 92.6908 118.356 92.8301 118.566 92.9608C118.574 92.9695 118.592 92.9782 118.609 92.9869C118.828 93.1263 119.064 93.2656 119.317 93.3963H119.326C121.885 94.7464 125.912 95.6087 130.446 95.5738C134.971 95.539 138.98 94.6244 141.531 93.2395C141.531 93.2395 141.531 93.2395 141.54 93.2395C141.785 93.1001 142.02 92.9608 142.239 92.8214C142.247 92.8127 142.265 92.804 142.282 92.7866C142.492 92.6559 142.684 92.5079 142.859 92.3685C142.885 92.3424 142.911 92.3249 142.938 92.2988C143.095 92.1682 143.243 92.0288 143.383 91.8894C143.418 91.8546 143.453 91.8111 143.497 91.7675C143.61 91.6368 143.715 91.5236 143.811 91.393C143.864 91.3233 143.89 91.2623 143.933 91.1926C144.003 91.0881 144.073 90.9749 144.126 90.8703C144.178 90.7745 144.204 90.67 144.23 90.5742C144.257 90.4958 144.3 90.4087 144.318 90.3303C144.361 90.1474 144.388 89.9558 144.388 89.7642H144.431L144.484 94.8335H144.335C143.54 97.6817 137.653 99.9376 130.498 99.9812C123.327 100.033 117.421 97.8646 116.592 95.0251H116.443L116.391 89.9558H116.434L116.443 89.9645Z" fill="#EABA24"/>
<path d="M130.383 84.1459C138.097 84.0937 144.378 86.6109 144.395 89.764C144.395 89.9556 144.369 90.1472 144.325 90.3301C144.308 90.4172 144.264 90.4956 144.238 90.574C144.203 90.6785 144.177 90.7743 144.133 90.8702C144.081 90.9834 144.011 91.0879 143.941 91.1924C143.897 91.2621 143.862 91.3231 143.818 91.3928C143.731 91.5234 143.618 91.6454 143.504 91.7673C143.469 91.8109 143.434 91.8544 143.39 91.8893C143.251 92.0286 143.102 92.168 142.945 92.2986C142.919 92.3248 142.893 92.3422 142.866 92.3683C142.692 92.5077 142.491 92.6557 142.29 92.7864C142.272 92.7951 142.264 92.8038 142.246 92.8212C142.028 92.9606 141.792 93.1 141.547 93.2393H141.539C141.285 93.3787 141.014 93.5093 140.735 93.64C140.735 93.64 140.735 93.64 140.726 93.64C138.184 94.7984 134.541 95.5475 130.462 95.5736C126.383 95.5998 122.731 94.903 120.172 93.7794C119.883 93.6487 119.613 93.518 119.359 93.3874C119.359 93.3874 119.359 93.3874 119.351 93.3874C119.097 93.2567 118.87 93.1174 118.643 92.978C118.634 92.9693 118.617 92.9606 118.599 92.9519C118.39 92.8212 118.197 92.6819 118.014 92.5425C117.979 92.5164 117.962 92.499 117.935 92.4728C117.769 92.3422 117.621 92.2115 117.49 92.0722C117.455 92.0373 117.42 91.9938 117.376 91.9502C117.263 91.8283 117.158 91.7063 117.062 91.5844C117.009 91.5147 116.983 91.4537 116.94 91.3841C116.87 91.2795 116.8 91.175 116.747 91.0618C116.704 90.966 116.669 90.8615 116.634 90.7656C116.608 90.6872 116.564 90.6001 116.546 90.5218C116.503 90.3388 116.477 90.1472 116.477 89.9556C116.459 86.7938 122.696 84.1982 130.418 84.1372L130.383 84.1459Z" fill="#F5DF35"/>
<path d="M116.742 83.3272C116.742 83.5188 116.768 83.7104 116.812 83.8934C116.829 83.9718 116.873 84.0589 116.899 84.1372C116.934 84.2418 116.969 84.3376 117.013 84.4334C117.065 84.5466 117.144 84.6511 117.205 84.7557C117.248 84.8253 117.283 84.8863 117.327 84.956C117.423 85.0779 117.528 85.1999 117.642 85.3305C117.685 85.3741 117.711 85.4089 117.755 85.4525C117.886 85.5918 118.043 85.7225 118.201 85.8531C118.227 85.8793 118.253 85.8967 118.279 85.9228C118.454 86.0622 118.655 86.2015 118.864 86.3322C118.873 86.3409 118.891 86.3496 118.908 86.367C119.127 86.5064 119.362 86.6371 119.616 86.7764H119.624C122.184 88.1265 126.211 88.9888 130.736 88.954C135.261 88.9191 139.279 88.0046 141.821 86.6196C141.821 86.6196 141.821 86.6196 141.83 86.6196C142.083 86.4803 142.31 86.3409 142.529 86.2015C142.537 86.1928 142.555 86.1841 142.572 86.1667C142.782 86.0361 142.974 85.888 143.149 85.7486C143.175 85.7225 143.201 85.7051 143.228 85.6789C143.394 85.5483 143.542 85.4089 143.673 85.2696C143.708 85.2347 143.743 85.1912 143.787 85.1476C143.9 85.0257 144.005 84.9037 144.101 84.7731C144.154 84.7034 144.188 84.6424 144.223 84.5728C144.293 84.4682 144.363 84.355 144.416 84.2505C144.459 84.1547 144.494 84.0501 144.52 83.9543C144.555 83.8759 144.59 83.7888 144.608 83.7104C144.651 83.5275 144.678 83.3359 144.678 83.1443H144.721L144.774 88.2136H144.625C143.83 91.0618 137.951 93.3177 130.78 93.3613C123.608 93.4136 117.703 91.2447 116.873 88.4052H116.724L116.672 83.3359H116.716L116.742 83.3272Z" fill="#EABA24"/>
<path d="M130.68 77.5088C138.394 77.4565 144.674 79.9738 144.692 83.1268C144.692 83.3185 144.666 83.5101 144.622 83.693C144.605 83.7801 144.561 83.8585 144.535 83.9369C144.5 84.0414 144.474 84.1372 144.43 84.233C144.377 84.3463 144.308 84.4508 144.238 84.5553C144.203 84.625 144.159 84.686 144.115 84.7556C144.028 84.8863 143.914 85.0082 143.801 85.1302C143.766 85.1737 143.731 85.2173 143.687 85.2521C143.548 85.3915 143.399 85.5309 143.242 85.6615C143.216 85.6876 143.189 85.7051 143.163 85.7312C142.988 85.8706 142.788 86.0186 142.587 86.1493C142.569 86.158 142.56 86.1667 142.543 86.1841C142.325 86.3235 142.089 86.4628 141.844 86.6022H141.835C141.582 86.7416 141.311 86.8722 141.032 87.0029H141.023C138.481 88.1613 134.838 88.9104 130.759 88.9365C126.679 88.9627 123.028 88.2658 120.469 87.1422C120.18 87.0116 119.909 86.8809 119.656 86.7503C119.656 86.7503 119.656 86.7503 119.647 86.7503C119.394 86.6196 119.167 86.4803 118.94 86.3409C118.931 86.3322 118.914 86.3235 118.896 86.3061C118.687 86.1754 118.494 86.036 118.311 85.8967C118.276 85.8705 118.258 85.8531 118.232 85.827C118.066 85.6963 117.918 85.5657 117.787 85.4263C117.743 85.3915 117.717 85.3479 117.673 85.3044C117.56 85.1824 117.455 85.0605 117.359 84.9298C117.306 84.8602 117.28 84.7992 117.236 84.7295C117.167 84.625 117.097 84.5205 117.044 84.4072C117.001 84.3114 116.966 84.2069 116.931 84.1111C116.904 84.0327 116.861 83.9456 116.843 83.8672C116.8 83.6843 116.773 83.4927 116.773 83.3011C116.756 80.1393 122.993 77.5436 130.715 77.4827L130.68 77.5088Z" fill="#F5DF35"/>
<path d="M119.911 84.381C118.295 83.5709 117.212 82.578 116.888 81.4805H116.74L116.688 76.4112H116.731C116.731 76.6028 116.757 76.7944 116.801 76.9774C116.819 77.0645 116.862 77.1428 116.888 77.2212C116.923 77.3258 116.958 77.4216 117.002 77.5174C117.054 77.6306 117.133 77.7351 117.194 77.8397C117.238 77.9093 117.273 77.9703 117.316 78.04C117.413 78.1619 117.517 78.2839 117.631 78.4058C117.675 78.4494 117.701 78.4842 117.744 78.5278C117.876 78.6671 118.033 78.7978 118.19 78.9284C118.216 78.9546 118.242 78.972 118.269 78.9981C118.443 79.1375 118.644 79.2768 118.854 79.4075C118.863 79.4162 118.88 79.4249 118.898 79.4336C119.116 79.573 119.352 79.7123 119.605 79.843H119.614C122.173 81.1931 126.2 82.0554 130.725 82.0205C135.25 81.9857 139.269 81.0711 141.811 79.6862C141.811 79.6862 141.811 79.6862 141.819 79.6862C142.073 79.5468 142.3 79.4075 142.518 79.2681C142.527 79.2594 142.544 79.2507 142.562 79.2333C142.771 79.1026 142.964 78.9546 143.138 78.8152C143.165 78.7891 143.191 78.7716 143.217 78.7455C143.383 78.6149 143.531 78.4755 143.662 78.3361C143.697 78.3013 143.732 78.2577 143.776 78.2142C143.89 78.0923 143.994 77.9703 144.091 77.8397C144.143 77.77 144.178 77.709 144.213 77.6393C144.283 77.5348 144.353 77.4216 144.405 77.317C144.449 77.2212 144.484 77.1167 144.51 77.0122C144.545 76.9338 144.58 76.8467 144.597 76.7683C144.641 76.5767 144.667 76.3938 144.667 76.2021H144.711L144.763 81.2715H144.615C143.82 84.1197 137.941 86.3756 130.769 86.4192C126.375 86.454 122.453 85.644 119.885 84.3636" fill="#EABA24"/>
<path d="M130.68 70.5931C138.394 70.5408 144.674 73.0581 144.692 76.2111C144.692 76.4028 144.666 76.5944 144.622 76.7773C144.605 76.8557 144.561 76.9428 144.535 77.0212C144.5 77.1257 144.474 77.2215 144.43 77.326C144.377 77.4393 144.308 77.5438 144.238 77.6483C144.203 77.718 144.159 77.779 144.115 77.8486C144.028 77.9793 143.914 78.1012 143.801 78.2232C143.766 78.2667 143.731 78.3103 143.687 78.3451C143.548 78.4845 143.399 78.6151 143.242 78.7545C143.216 78.7806 143.189 78.7981 143.163 78.8242C142.988 78.9636 142.788 79.1116 142.587 79.2423C142.569 79.251 142.56 79.2597 142.543 79.2771C142.325 79.4165 142.089 79.5558 141.844 79.6952H141.835C141.582 79.8346 141.311 79.9652 141.032 80.0959H141.023C138.481 81.2543 134.838 82.0034 130.759 82.0295C126.679 82.0557 123.028 81.3588 120.469 80.2352C120.18 80.1046 119.909 79.9739 119.656 79.8433C119.656 79.8433 119.656 79.8433 119.647 79.8433C119.394 79.7126 119.167 79.5733 118.94 79.4339C118.931 79.4252 118.914 79.4165 118.896 79.4078C118.687 79.2771 118.494 79.1378 118.311 78.9984C118.276 78.9723 118.258 78.9548 118.232 78.9287C118.066 78.7981 117.918 78.6674 117.787 78.528C117.743 78.4932 117.717 78.4496 117.673 78.4061C117.56 78.2842 117.455 78.1622 117.359 78.0403C117.306 77.9706 117.28 77.9096 117.236 77.8399C117.167 77.7354 117.097 77.6309 117.044 77.5177C117.001 77.4219 116.966 77.3173 116.931 77.2215C116.904 77.1431 116.861 77.056 116.843 76.9776C116.8 76.7947 116.773 76.6031 116.773 76.4115C116.756 73.2497 122.993 70.6541 130.715 70.5931H130.68Z" fill="#F5DF35"/>
<path d="M142.197 98.1774C142.145 98.3603 142.119 98.5432 142.11 98.7436C142.11 98.8307 142.119 98.9178 142.127 99.0049C142.127 99.1094 142.136 99.2226 142.154 99.3272C142.171 99.4491 142.215 99.571 142.25 99.7017C142.276 99.7801 142.285 99.8498 142.311 99.9282C142.363 100.076 142.433 100.224 142.512 100.381C142.538 100.433 142.555 100.486 142.582 100.538C142.678 100.712 142.783 100.886 142.896 101.069C142.914 101.095 142.931 101.13 142.957 101.156C143.088 101.348 143.237 101.548 143.394 101.74C143.403 101.757 143.42 101.766 143.429 101.783C143.595 101.984 143.787 102.193 143.988 102.402C143.988 102.402 143.988 102.402 143.997 102.402C146.058 104.527 149.649 106.661 153.981 108.116C158.305 109.57 162.385 110.006 165.198 109.518H165.206C165.477 109.474 165.748 109.414 165.993 109.353C166.01 109.353 166.019 109.344 166.036 109.335C166.272 109.274 166.491 109.204 166.7 109.126C166.735 109.117 166.761 109.1 166.796 109.083C166.988 109.013 167.163 108.926 167.338 108.839C167.39 108.813 167.434 108.786 167.478 108.76C167.617 108.673 167.757 108.595 167.879 108.508C167.941 108.464 167.993 108.412 168.054 108.36C168.15 108.281 168.246 108.203 168.325 108.116C168.395 108.037 168.456 107.95 168.508 107.863C168.561 107.793 168.622 107.732 168.657 107.654C168.753 107.489 168.823 107.314 168.875 107.14L168.919 107.158L167.548 112.009L167.408 111.957C165.853 114.413 159.616 114.631 152.776 112.34C145.927 110.041 140.904 106.043 140.913 103.064L140.773 103.02L142.145 98.1687L142.189 98.1861L142.197 98.1774Z" fill="#EABA24"/>
<path d="M157.121 97.202C164.494 99.6757 169.77 104.127 168.905 107.14C168.853 107.323 168.774 107.497 168.687 107.654C168.643 107.724 168.582 107.794 168.538 107.863C168.477 107.95 168.425 108.037 168.355 108.116C168.276 108.203 168.171 108.281 168.084 108.36C168.031 108.412 167.97 108.464 167.909 108.508C167.787 108.604 167.647 108.682 167.507 108.76C167.464 108.786 167.411 108.813 167.368 108.839C167.202 108.926 167.018 109.004 166.826 109.083C166.791 109.1 166.765 109.109 166.73 109.126C166.52 109.205 166.293 109.274 166.066 109.335C166.049 109.335 166.031 109.344 166.022 109.353C165.778 109.414 165.507 109.475 165.236 109.518H165.227C164.948 109.57 164.651 109.605 164.345 109.64C161.593 109.91 157.916 109.431 154.02 108.125C150.124 106.818 146.831 104.954 144.708 103.046H144.699C144.455 102.829 144.236 102.62 144.035 102.411C144.035 102.411 144.035 102.411 144.027 102.411C143.826 102.202 143.642 102.001 143.467 101.792C143.459 101.775 143.441 101.766 143.433 101.749C143.267 101.557 143.127 101.357 142.996 101.165C142.97 101.13 142.952 101.104 142.935 101.078C142.821 100.904 142.708 100.721 142.62 100.547C142.594 100.494 142.576 100.442 142.55 100.39C142.48 100.233 142.411 100.085 142.349 99.937C142.323 99.8586 142.306 99.7802 142.288 99.7105C142.253 99.5886 142.21 99.4579 142.192 99.336C142.175 99.2314 142.175 99.1182 142.166 99.0137C142.166 98.9266 142.148 98.8395 142.148 98.7524C142.148 98.5608 142.183 98.3691 142.236 98.1862C143.101 95.1725 149.774 94.7283 157.156 97.202H157.121Z" fill="#F5DF35"/>
<path d="M75.7901 89.2274C75.7901 75.5459 64.6442 64.4181 50.895 64.3727C37.1459 64.3274 26 75.3818 26 89.0633C26 102.745 37.1459 113.873 50.895 113.918C64.6442 113.963 75.7901 102.909 75.7901 89.2274Z" fill="#D7D7D7"/>
<path d="M50.8947 108.456C61.5953 108.456 70.2699 99.8064 70.2699 89.1368C70.2699 78.4671 61.5953 69.8176 50.8947 69.8176C40.1941 69.8176 31.5195 78.4671 31.5195 89.1368C31.5195 99.8064 40.1941 108.456 50.8947 108.456Z" fill="white"/>
<path d="M44.4345 78.9807H52.7856C57.1795 78.9807 60.0535 81.7244 60.0535 85.853C60.0535 89.9816 57.1009 92.6818 52.6196 92.6644H49.5797V98.5611H44.4258V78.9807H44.4345ZM51.5888 88.6577C53.5281 88.6403 54.6637 87.5602 54.655 85.8443C54.6724 84.1371 53.5281 83.1006 51.5888 83.0832H49.5797V88.6577H51.5888Z" fill="#FF7761"/>
</svg>
