<svg width="180" height="120" viewBox="0 0 180 120" fill="none" xmlns="http://www.w3.org/2000/svg">
<path d="M111.5 96.936C111.5 97.1217 111.474 97.299 111.432 97.4846C111.416 97.5606 111.374 97.645 111.348 97.721C111.315 97.8222 111.281 97.9151 111.239 98.0079C111.189 98.1177 111.113 98.2189 111.054 98.3202C111.012 98.3877 110.979 98.4468 110.937 98.5143C110.844 98.6325 110.743 98.7507 110.634 98.8688C110.592 98.911 110.567 98.9448 110.525 98.987C110.39 99.122 110.247 99.2486 110.096 99.3752C110.071 99.4006 110.046 99.4174 110.021 99.4428C109.852 99.5778 109.659 99.7128 109.457 99.8394C109.449 99.8479 109.432 99.8563 109.415 99.8732C109.205 100.008 108.978 100.135 108.735 100.27H108.726C106.272 101.578 102.407 102.405 98.0618 102.38C93.717 102.346 89.8681 101.46 87.4225 100.126C87.4225 100.126 87.4225 100.126 87.4141 100.126C87.1704 99.9914 86.9519 99.8648 86.7418 99.7213C86.7334 99.7128 86.7166 99.7044 86.6998 99.6875C86.4981 99.5525 86.3132 99.4174 86.1452 99.2824C86.1199 99.2655 86.0947 99.2402 86.0695 99.2149C85.9182 99.0883 85.7754 98.9532 85.6409 98.8182C85.6073 98.7844 85.5737 98.7422 85.5317 98.7C85.4224 98.5819 85.3216 98.4637 85.2291 98.3371C85.1787 98.2696 85.1535 98.2105 85.1115 98.143C85.0442 98.0417 84.977 97.932 84.9266 97.8307C84.8846 97.7378 84.8594 97.6366 84.8257 97.5437C84.8005 97.4678 84.7585 97.3834 84.7417 97.3074C84.6997 97.1302 84.6745 96.9445 84.6745 96.7588H84.6325L84.582 101.654H84.7249C85.4896 104.406 91.137 106.583 98.0114 106.634C104.894 106.684 110.558 104.583 111.357 101.84H111.5L111.55 96.9445H111.508L111.5 96.936Z" fill="#EABA24"/>
<path d="M98.122 91.3147C90.7182 91.2641 84.6926 93.6949 84.6758 96.7502C84.6758 96.9359 84.701 97.1131 84.743 97.2988C84.7598 97.3748 84.8018 97.4592 84.8271 97.5351C84.8607 97.6364 84.8859 97.7292 84.9279 97.8221C84.9783 97.9318 85.0456 98.0331 85.1128 98.1344C85.1548 98.1935 85.1884 98.261 85.2304 98.3285C85.3145 98.4551 85.4237 98.5648 85.533 98.6914C85.5666 98.7336 85.6002 98.7758 85.6422 98.8096C85.7767 98.9446 85.9196 99.0712 86.0708 99.2063C86.096 99.2316 86.1212 99.2485 86.1465 99.2738C86.3145 99.4088 86.4994 99.5523 86.7011 99.6789C86.7179 99.6874 86.7263 99.6958 86.7431 99.7127C86.9532 99.8477 87.1801 99.9828 87.4154 100.118C87.4154 100.118 87.4154 100.118 87.4238 100.118C87.6676 100.253 87.9281 100.379 88.197 100.506C88.197 100.506 88.197 100.506 88.2054 100.506C90.6509 101.629 94.1469 102.346 98.0547 102.38C101.971 102.405 105.475 101.73 107.938 100.65C108.215 100.523 108.476 100.405 108.719 100.27C108.719 100.27 108.719 100.27 108.728 100.27C108.971 100.143 109.19 100.008 109.408 99.873C109.417 99.8646 109.434 99.8562 109.45 99.8393C109.652 99.7127 109.837 99.5776 110.013 99.4426C110.047 99.4173 110.064 99.4004 110.089 99.3751C110.249 99.2485 110.392 99.1219 110.518 98.9868C110.551 98.9531 110.585 98.9109 110.627 98.8687C110.736 98.7505 110.837 98.6323 110.929 98.5142C110.971 98.4551 111.005 98.3876 111.047 98.3201C111.106 98.2188 111.182 98.1175 111.232 98.0078C111.274 97.9149 111.308 97.8136 111.341 97.7208C111.366 97.6448 111.408 97.5604 111.425 97.4845C111.467 97.3072 111.493 97.1216 111.493 96.9359C111.509 93.8805 105.517 91.3654 98.1136 91.3147H98.122Z" fill="#F5DF35"/>
<path d="M111.453 90.1499C111.453 90.3356 111.428 90.5128 111.386 90.6985C111.369 90.7745 111.327 90.8589 111.301 90.9348C111.268 91.0361 111.234 91.129 111.192 91.2218C111.142 91.3315 111.066 91.4328 111.007 91.5341C110.965 91.5932 110.932 91.6607 110.89 91.7282C110.797 91.8464 110.696 91.9645 110.587 92.0827C110.545 92.1249 110.52 92.1587 110.478 92.2009C110.343 92.3359 110.201 92.4625 110.049 92.5891C110.024 92.6144 109.999 92.6313 109.974 92.6566C109.806 92.7917 109.612 92.9267 109.411 93.0533C109.402 93.0617 109.385 93.0702 109.369 93.0786C109.158 93.2137 108.932 93.3487 108.688 93.4753H108.679C106.226 94.7835 102.36 95.6107 98.015 95.5853C93.6702 95.5516 89.8212 94.6654 87.3757 93.3318H87.3673C87.1235 93.2052 86.905 93.0702 86.6949 92.9267C86.6865 92.9183 86.6697 92.9098 86.6529 92.9014C86.4596 92.7663 86.2664 92.6313 86.0983 92.4963C86.0731 92.4709 86.0478 92.4541 86.0226 92.4287C85.8714 92.3021 85.7285 92.1671 85.594 92.0321C85.5604 91.9983 85.5268 91.9561 85.4848 91.9139C85.3755 91.7957 85.2747 91.6776 85.1823 91.551C85.1318 91.4834 85.1066 91.4244 85.0646 91.3568C84.9974 91.2556 84.9301 91.1458 84.8797 91.0446C84.8377 90.9517 84.8125 90.8504 84.7789 90.7576C84.7537 90.6816 84.7116 90.5972 84.6948 90.5213C84.6528 90.3356 84.6276 90.1583 84.6276 89.9727H84.5856L84.5352 94.8679H84.678C85.4344 97.6194 91.0902 99.797 97.9645 99.8476C104.847 99.8983 110.512 97.7967 111.31 95.0536H111.453L111.503 90.1583H111.461L111.453 90.1499Z" fill="#EABA24"/>
<path d="M98.122 84.6302C90.7182 84.5795 84.6926 87.0103 84.6758 90.0656C84.6758 90.2513 84.701 90.4285 84.743 90.6142C84.7598 90.6902 84.8018 90.7746 84.8271 90.8505C84.8607 90.9518 84.8859 91.0447 84.9279 91.146C84.9783 91.2557 85.0456 91.357 85.1128 91.4582C85.1548 91.5258 85.1884 91.5848 85.2304 91.6524C85.3145 91.779 85.4237 91.8971 85.533 92.0153C85.5666 92.0575 85.6002 92.0997 85.6422 92.1335C85.7767 92.2685 85.9196 92.3951 86.0708 92.5301C86.096 92.5555 86.1212 92.5723 86.1465 92.5977C86.3145 92.7327 86.4994 92.8762 86.7011 93.0028C86.7179 93.0112 86.7263 93.0197 86.7431 93.0365C86.9532 93.1716 87.1801 93.3066 87.4154 93.4417C87.4154 93.4417 87.4154 93.4417 87.4238 93.4417C87.6676 93.5767 87.9281 93.7033 88.197 93.8299C88.197 93.8299 88.197 93.8299 88.2054 93.8299C90.6509 94.9525 94.1469 95.6699 98.0547 95.7036C101.971 95.7289 105.475 95.0537 107.938 93.9734C108.215 93.8552 108.476 93.7286 108.719 93.5936C108.719 93.5936 108.719 93.5936 108.728 93.5936C108.971 93.467 109.19 93.3319 109.408 93.1969C109.417 93.1885 109.434 93.18 109.45 93.1716C109.652 93.045 109.837 92.9099 110.013 92.7749C110.047 92.758 110.064 92.7327 110.089 92.7074C110.249 92.5808 110.392 92.4542 110.518 92.3191C110.551 92.2854 110.585 92.2432 110.627 92.201C110.736 92.0828 110.837 91.9646 110.929 91.8465C110.971 91.779 111.005 91.7199 111.047 91.6524C111.106 91.5511 111.182 91.4498 111.232 91.3401C111.274 91.2472 111.308 91.146 111.341 91.0531C111.366 90.9771 111.408 90.8927 111.425 90.8168C111.467 90.6395 111.493 90.4539 111.493 90.2682C111.509 87.2128 105.517 84.6977 98.1136 84.647L98.122 84.6302Z" fill="#F5DF35"/>
<path d="M111.5 83.567C111.5 83.7527 111.474 83.93 111.432 84.1156C111.416 84.1916 111.374 84.276 111.348 84.352C111.315 84.4532 111.281 84.5461 111.239 84.6389C111.189 84.7486 111.113 84.8499 111.054 84.9512C111.012 85.0187 110.979 85.0778 110.937 85.1453C110.844 85.2635 110.743 85.3817 110.634 85.4998C110.592 85.542 110.567 85.5842 110.525 85.618C110.39 85.753 110.247 85.8796 110.096 86.0062C110.071 86.0316 110.046 86.0484 110.021 86.0738C109.852 86.2088 109.659 86.3438 109.457 86.4704C109.449 86.4789 109.432 86.4873 109.415 86.4958C109.205 86.6308 108.978 86.7658 108.735 86.8924H108.726C106.272 88.2007 102.407 89.0278 98.0618 89.0025C93.717 88.9687 89.8681 88.0825 87.4225 86.749C87.4225 86.749 87.4225 86.749 87.4141 86.749C87.1704 86.6224 86.9519 86.4873 86.7418 86.3438C86.7334 86.3354 86.7166 86.327 86.6998 86.3101C86.4981 86.1835 86.3132 86.04 86.1452 85.9049C86.1199 85.8796 86.0947 85.8627 86.0695 85.8374C85.9182 85.7108 85.7754 85.5758 85.6409 85.4407C85.6073 85.407 85.5737 85.3648 85.5317 85.3226C85.4224 85.2044 85.3216 85.0863 85.2291 84.9597C85.1787 84.8921 85.1535 84.8331 85.1115 84.7655C85.0442 84.6642 84.977 84.5545 84.9266 84.4532C84.8846 84.3604 84.8594 84.2591 84.8257 84.1663C84.8005 84.0903 84.7585 84.0059 84.7417 83.93C84.6997 83.7443 84.6745 83.567 84.6745 83.3813H84.6325L84.582 88.2851H84.7249C85.4896 91.0366 91.137 93.2141 98.0114 93.2647C104.894 93.3154 110.558 91.2138 111.357 88.4707H111.5L111.55 83.567H111.508H111.5Z" fill="#EABA24"/>
<path d="M98.122 77.9456C90.7182 77.895 84.6926 80.3257 84.6758 83.3811C84.6758 83.5667 84.701 83.744 84.743 83.9297C84.7598 84.0056 84.8018 84.09 84.8271 84.166C84.8607 84.2673 84.8859 84.3601 84.9279 84.4529C84.9783 84.5627 85.0456 84.664 85.1128 84.7652C85.1548 84.8328 85.1884 84.8918 85.2304 84.9594C85.3145 85.086 85.4237 85.1957 85.533 85.3223C85.5666 85.3645 85.6002 85.4067 85.6422 85.4404C85.7767 85.5755 85.9196 85.7021 86.0708 85.8371C86.096 85.8624 86.1212 85.8793 86.1465 85.9047C86.3145 86.0397 86.4994 86.1832 86.7011 86.3098C86.7179 86.3182 86.7263 86.3267 86.7431 86.3435C86.9532 86.4786 87.1801 86.6136 87.4154 86.7487C87.4154 86.7487 87.4154 86.7487 87.4238 86.7487C87.6676 86.8837 87.9281 87.0103 88.197 87.1369C88.197 87.1369 88.197 87.1369 88.2054 87.1369C90.6509 88.2594 94.1469 88.9769 98.0547 89.0106C101.971 89.0359 105.475 88.3607 107.938 87.2804C108.215 87.1622 108.476 87.0356 108.719 86.9006C108.719 86.9006 108.719 86.9006 108.728 86.9006C108.971 86.774 109.19 86.6389 109.408 86.5039C109.417 86.4955 109.434 86.487 109.45 86.4786C109.652 86.352 109.837 86.2169 110.013 86.0819C110.047 86.0566 110.064 86.0397 110.089 86.0144C110.249 85.8878 110.392 85.7612 110.518 85.6261C110.551 85.5924 110.585 85.5502 110.627 85.508C110.736 85.3898 110.837 85.2716 110.929 85.1535C110.971 85.086 111.005 85.0269 111.047 84.9594C111.106 84.8581 111.182 84.7568 111.232 84.6471C111.274 84.5542 111.308 84.4529 111.341 84.3601C111.366 84.2841 111.408 84.1997 111.425 84.1238C111.467 83.9465 111.493 83.7609 111.493 83.5752C111.509 80.5198 105.517 78.0047 98.1136 77.954L98.122 77.9456Z" fill="#F5DF35"/>
<path d="M111.5 76.8825C111.5 77.0681 111.474 77.2454 111.432 77.4311C111.416 77.507 111.374 77.5914 111.348 77.6674C111.315 77.7687 111.281 77.8615 111.239 77.9544C111.189 78.0556 111.113 78.1654 111.054 78.2666C111.012 78.3342 110.979 78.3932 110.937 78.4608C110.844 78.5874 110.743 78.6971 110.634 78.8152C110.592 78.8574 110.567 78.8997 110.525 78.9334C110.39 79.0685 110.247 79.1951 110.096 79.3217C110.071 79.347 110.046 79.3639 110.021 79.3892C109.852 79.5242 109.659 79.6593 109.457 79.7859C109.449 79.7943 109.432 79.8027 109.415 79.8112C109.205 79.9462 108.978 80.0728 108.735 80.1994H108.726C106.272 81.5077 102.407 82.3348 98.0618 82.3095C93.717 82.2757 89.8681 81.3895 87.4225 80.0559C87.4225 80.0559 87.4225 80.0559 87.4141 80.0559C87.1704 79.9209 86.9519 79.7859 86.7418 79.6508C86.7334 79.6424 86.7166 79.6339 86.6998 79.6255C86.4981 79.4905 86.3132 79.3554 86.1452 79.2204C86.1199 79.1951 86.0947 79.1782 86.0695 79.1529C85.9182 79.0263 85.7754 78.8912 85.6409 78.7562C85.6073 78.7224 85.5737 78.6802 85.5317 78.638C85.4224 78.5114 85.3216 78.4017 85.2291 78.2751C85.1787 78.2076 85.1535 78.1485 85.1115 78.081C85.0442 77.9797 84.977 77.87 84.9266 77.7687C84.8846 77.6758 84.8594 77.5746 84.8257 77.4817C84.8005 77.4057 84.7585 77.3213 84.7417 77.2454C84.6997 77.0681 84.6745 76.8825 84.6745 76.6968H84.6325L84.582 81.6005H84.7249C85.4896 84.352 91.137 86.5295 98.0114 86.5802C104.894 86.6308 110.558 84.5292 111.357 81.7862H111.5L111.55 76.8909H111.508L111.5 76.8825Z" fill="#EABA24"/>
<path d="M98.122 71.261C90.7182 71.2104 84.6926 73.6412 84.6758 76.6965C84.6758 76.8822 84.701 77.0594 84.743 77.2451C84.7598 77.3211 84.8018 77.4055 84.8271 77.4814C84.8607 77.5827 84.8859 77.6755 84.9279 77.7684C84.9783 77.8781 85.0456 77.9794 85.1128 78.0807C85.1548 78.1482 85.1884 78.2073 85.2304 78.2748C85.3145 78.4014 85.4237 78.5111 85.533 78.6377C85.5666 78.6799 85.6002 78.7221 85.6422 78.7559C85.7767 78.8909 85.9196 79.0175 86.0708 79.1526C86.096 79.1779 86.1212 79.1948 86.1465 79.2201C86.3145 79.3551 86.4994 79.4986 86.7011 79.6252C86.7179 79.6337 86.7263 79.6421 86.7431 79.6505C86.9532 79.7856 87.1801 79.9206 87.4154 80.0557C87.4154 80.0557 87.4154 80.0557 87.4238 80.0557C87.6676 80.1907 87.9281 80.3173 88.197 80.4439C88.197 80.4439 88.197 80.4439 88.2054 80.4439C90.6509 81.558 94.1469 82.2838 98.0547 82.3176C101.971 82.3429 105.475 81.6677 107.938 80.5874C108.215 80.4608 108.476 80.3426 108.719 80.2076C108.719 80.2076 108.719 80.2076 108.728 80.2076C108.971 80.081 109.19 79.9459 109.408 79.8193C109.417 79.8109 109.434 79.8025 109.45 79.794C109.652 79.6674 109.837 79.5324 110.013 79.3973C110.047 79.372 110.064 79.3551 110.089 79.3298C110.249 79.2032 110.392 79.0766 110.518 78.9416C110.551 78.9078 110.585 78.8656 110.627 78.8234C110.736 78.7052 110.837 78.5871 110.929 78.4689C110.971 78.4098 111.005 78.3423 111.047 78.2748C111.106 78.1735 111.182 78.0722 111.232 77.9625C111.274 77.8697 111.308 77.7684 111.341 77.6755C111.366 77.5996 111.408 77.5152 111.425 77.4392C111.467 77.262 111.493 77.0763 111.493 76.8906C111.509 73.8353 105.517 71.3201 98.1136 71.2695L98.122 71.261Z" fill="#F5DF35"/>
<path d="M113.711 70.1974C113.711 70.3831 113.686 70.5603 113.644 70.746C113.627 70.822 113.585 70.9064 113.56 70.9823C113.526 71.0836 113.493 71.1765 113.451 71.2693C113.4 71.3706 113.333 71.4803 113.266 71.5816C113.224 71.6407 113.19 71.7082 113.148 71.7757C113.064 71.9023 112.955 72.012 112.846 72.1302C112.804 72.1724 112.778 72.2146 112.736 72.2484C112.602 72.3834 112.459 72.51 112.308 72.6366C112.282 72.6619 112.257 72.6788 112.232 72.7041C112.064 72.8392 111.871 72.9742 111.669 73.1008C111.661 73.1093 111.644 73.1177 111.627 73.1261C111.417 73.2612 111.19 73.3878 110.946 73.5228H110.938C108.476 74.831 104.618 75.6582 100.265 75.6329C95.9202 75.5991 92.0712 74.7213 89.6257 73.3793C89.6257 73.3793 89.6257 73.3793 89.6173 73.3793C89.3819 73.2527 89.155 73.1177 88.9449 72.9742C88.9365 72.9658 88.9197 72.9573 88.9029 72.9404C88.7096 72.8054 88.5164 72.6704 88.3483 72.5353C88.3231 72.51 88.2978 72.4931 88.2726 72.4678C88.1214 72.3412 87.9785 72.2062 87.844 72.0711C87.8104 72.0374 87.7768 71.9952 87.7348 71.953C87.6255 71.8348 87.5247 71.7166 87.4323 71.59C87.3818 71.5225 87.3566 71.4634 87.3146 71.3959C87.2474 71.2946 87.1801 71.1849 87.1297 71.0836C87.0877 70.9908 87.0541 70.8895 87.0289 70.7967C87.0037 70.7207 86.9616 70.6363 86.9448 70.5603C86.9028 70.3831 86.8776 70.1974 86.8776 70.0117H86.8356L86.7852 74.9154H86.928C87.6844 77.6669 93.3402 79.8445 100.215 79.8951C107.097 79.9458 112.77 77.8442 113.56 75.1011H113.703L113.753 70.2058H113.711V70.1974Z" fill="#EABA24"/>
<path d="M100.333 64.5765C92.9291 64.5258 86.9035 66.9566 86.8867 70.0119C86.8867 70.1976 86.9119 70.3833 86.954 70.5605C86.9708 70.6449 87.0128 70.7209 87.038 70.7968C87.0716 70.8981 87.0968 70.991 87.1388 71.0838C87.1893 71.1935 87.2565 71.2948 87.3237 71.3961C87.3657 71.4636 87.3994 71.5227 87.4414 71.5902C87.5254 71.7168 87.6347 71.8265 87.7439 71.9531C87.7775 71.9953 87.8111 72.0375 87.8532 72.0713C87.9876 72.2063 88.1305 72.3414 88.2818 72.468C88.307 72.4933 88.3322 72.5102 88.3574 72.5355C88.5255 72.6706 88.7104 72.814 88.9121 72.9406C88.9289 72.9491 88.9373 72.9575 88.9541 72.9744C89.1642 73.1094 89.3911 73.2445 89.6264 73.3795H89.6348C89.8785 73.5146 90.139 73.6412 90.4079 73.7678C90.4079 73.7678 90.4079 73.7678 90.4163 73.7678C92.8619 74.8903 96.3579 75.6077 100.266 75.6415C104.182 75.6668 107.686 74.9916 110.149 73.9113C110.426 73.7931 110.686 73.6665 110.93 73.5314C110.93 73.5314 110.93 73.5314 110.939 73.5314C111.182 73.4048 111.401 73.2698 111.619 73.1348C111.628 73.1263 111.645 73.1179 111.661 73.1094C111.863 72.9828 112.048 72.8478 112.224 72.7128C112.258 72.6874 112.275 72.6706 112.3 72.6452C112.451 72.5186 112.603 72.392 112.729 72.257C112.762 72.2232 112.796 72.181 112.838 72.1388C112.947 72.0207 113.048 71.9025 113.14 71.7843C113.191 71.7253 113.216 71.6577 113.258 71.5902C113.317 71.4889 113.393 71.3876 113.443 71.2779C113.485 71.1851 113.519 71.0838 113.552 70.991C113.577 70.915 113.619 70.8306 113.636 70.7546C113.678 70.5774 113.703 70.3917 113.703 70.206C113.72 67.1507 107.728 64.6355 100.325 64.5849L100.333 64.5765Z" fill="#F5DF35"/>
<path d="M113.711 63.5128C113.711 63.6985 113.686 63.8758 113.644 64.0614C113.627 64.1458 113.585 64.2218 113.56 64.2978C113.526 64.3906 113.493 64.4919 113.451 64.5847C113.4 64.686 113.333 64.7957 113.266 64.897C113.224 64.9561 113.19 65.0236 113.148 65.0911C113.064 65.2093 112.955 65.3275 112.846 65.4456C112.804 65.4878 112.778 65.53 112.736 65.5638C112.602 65.6988 112.459 65.8254 112.308 65.952C112.282 65.9774 112.257 65.9942 112.232 66.0196C112.064 66.1546 111.871 66.2896 111.669 66.4162C111.661 66.4247 111.644 66.4331 111.627 66.45C111.417 66.585 111.19 66.7116 110.946 66.8467H110.938C108.476 68.1549 104.618 68.982 100.265 68.9567C95.9202 68.923 92.0712 68.0367 89.6257 66.6948C89.6257 66.6948 89.6257 66.6948 89.6173 66.6948C89.3819 66.5597 89.155 66.4331 88.9449 66.2896C88.9365 66.2812 88.9197 66.2728 88.9029 66.2559C88.7096 66.1208 88.5164 65.9858 88.3483 65.8508C88.3231 65.8254 88.2978 65.8086 88.2726 65.7832C88.1214 65.6566 87.9785 65.5216 87.844 65.3865C87.8104 65.3528 87.7768 65.3106 87.7348 65.2684C87.6255 65.1502 87.5247 65.0321 87.4323 64.9055C87.3818 64.8379 87.3566 64.7789 87.3146 64.7113C87.2474 64.61 87.1801 64.5088 87.1297 64.399C87.0877 64.3062 87.0541 64.2049 87.0289 64.1121C87.0037 64.0361 86.9616 63.9517 86.9448 63.8758C86.9028 63.6985 86.8776 63.5128 86.8776 63.3271H86.8356L86.7852 68.2224H86.928C87.6844 70.9739 93.3402 73.1515 100.215 73.2021C107.097 73.2528 112.77 71.1512 113.56 68.4081H113.703L113.753 63.5128H113.711Z" fill="#EABA24"/>
<path d="M100.333 57.8919C92.9291 57.8412 86.9035 60.272 86.8867 63.3273C86.8867 63.513 86.9119 63.6903 86.954 63.8759C86.9708 63.9603 87.0128 64.0363 87.038 64.1123C87.0716 64.2136 87.0968 64.3064 87.1388 64.3992C87.1893 64.509 87.2565 64.6102 87.3237 64.7115C87.3657 64.779 87.3994 64.8381 87.4414 64.9056C87.5254 65.0322 87.6347 65.1504 87.7439 65.2686C87.7775 65.3108 87.8111 65.353 87.8532 65.3867C87.9876 65.5218 88.1305 65.6568 88.2818 65.7834C88.307 65.8087 88.3322 65.8256 88.3574 65.8509C88.5255 65.986 88.7104 66.1295 88.9121 66.2561C88.9289 66.2645 88.9373 66.2729 88.9541 66.2898C89.1642 66.4249 89.3911 66.5599 89.6264 66.695H89.6348C89.8785 66.83 90.139 66.9566 90.4079 67.0832C90.4079 67.0832 90.4079 67.0832 90.4163 67.0832C92.8619 68.2057 96.3579 68.9231 100.266 68.9569C104.182 68.9822 107.686 68.307 110.149 67.2267C110.426 67.1001 110.686 66.9819 110.93 66.8469C110.93 66.8469 110.93 66.8469 110.939 66.8469C111.182 66.7203 111.401 66.5852 111.619 66.4502C111.628 66.4418 111.645 66.4333 111.661 66.4164C111.863 66.2898 112.048 66.1548 112.224 66.0197C112.258 66.0029 112.275 65.9775 112.3 65.9522C112.451 65.8256 112.603 65.699 112.729 65.564C112.762 65.5302 112.796 65.488 112.838 65.4458C112.947 65.3277 113.048 65.2095 113.14 65.0913C113.191 65.0238 113.216 64.9647 113.258 64.8972C113.317 64.7959 113.393 64.6946 113.443 64.5849C113.485 64.4921 113.519 64.3908 113.552 64.298C113.577 64.222 113.619 64.1376 113.636 64.0616C113.678 63.8844 113.703 63.6987 113.703 63.513C113.72 60.4577 107.728 57.9425 100.325 57.8919H100.333Z" fill="#F5DF35"/>
<path d="M113.711 56.8284C113.711 57.0141 113.686 57.1913 113.644 57.377C113.627 57.453 113.585 57.5374 113.56 57.6133C113.526 57.7062 113.493 57.8075 113.451 57.9003C113.4 58.01 113.333 58.1113 113.266 58.2126C113.224 58.2801 113.19 58.3392 113.148 58.4067C113.064 58.5249 112.955 58.643 112.846 58.7612C112.804 58.8034 112.778 58.8372 112.736 58.8794C112.602 59.0144 112.459 59.141 112.308 59.2676C112.282 59.2929 112.257 59.3098 112.232 59.3351C112.064 59.4702 111.871 59.6052 111.669 59.7318C111.661 59.7402 111.644 59.7487 111.627 59.7571C111.417 59.8922 111.19 60.0188 110.946 60.1538H110.938C108.476 61.462 104.618 62.2892 100.265 62.2639C95.9202 62.2301 92.0712 61.3439 89.6257 60.0019C89.6257 60.0019 89.6257 60.0019 89.6173 60.0019C89.3819 59.8668 89.155 59.7402 88.9449 59.5968C88.9365 59.5883 88.9197 59.5799 88.9029 59.563C88.7096 59.4364 88.5164 59.2929 88.3483 59.1579C88.3231 59.1326 88.2978 59.1157 88.2726 59.0904C88.1214 58.9638 87.9785 58.8287 87.844 58.6937C87.8104 58.6599 87.7768 58.6177 87.7348 58.5755C87.6255 58.4489 87.5247 58.3392 87.4323 58.2126C87.3818 58.1451 87.3566 58.086 87.3146 58.0185C87.2474 57.9172 87.1801 57.8075 87.1297 57.7062C87.0877 57.6133 87.0541 57.512 87.0289 57.4192C87.0037 57.3432 86.9616 57.2588 86.9448 57.1829C86.9028 57.0056 86.8776 56.82 86.8776 56.6343H86.8356L86.7852 61.538H86.928C87.6844 64.2895 93.3402 66.467 100.215 66.5177C107.097 66.5683 112.77 64.4667 113.56 61.7237H113.703L113.753 56.8284H113.711Z" fill="#EABA24"/>
<path d="M100.333 51.2073C92.9291 51.1567 86.9035 53.5874 86.8867 56.6428C86.8867 56.8285 86.9119 57.0057 86.954 57.1914C86.9708 57.2758 87.0128 57.3517 87.038 57.4277C87.0716 57.529 87.0968 57.6218 87.1388 57.7147C87.1893 57.8244 87.2565 57.9257 87.3237 58.0269C87.3657 58.0945 87.3994 58.1536 87.4414 58.2211C87.5254 58.3477 87.6347 58.4574 87.7439 58.584C87.7775 58.6262 87.8111 58.6684 87.8532 58.7022C87.9876 58.8372 88.1305 58.9638 88.2818 59.0988C88.307 59.1242 88.3322 59.141 88.3574 59.1664C88.5255 59.3014 88.7104 59.4449 88.9121 59.5715C88.9289 59.5799 88.9373 59.5884 88.9541 59.6053C89.1642 59.7403 89.3911 59.8753 89.6264 60.0104H89.6348C89.8785 60.1454 90.139 60.272 90.4079 60.3986C90.4079 60.3986 90.4079 60.3986 90.4163 60.3986C92.8619 61.5127 96.3579 62.2386 100.266 62.2723C104.182 62.2977 107.686 61.6225 110.149 60.5421C110.426 60.4155 110.686 60.2889 110.93 60.1623C110.93 60.1623 110.93 60.1623 110.939 60.1623C111.182 60.0357 111.401 59.9007 111.619 59.7656C111.628 59.7572 111.645 59.7487 111.661 59.7403C111.863 59.6137 112.048 59.4787 112.224 59.3436C112.258 59.3183 112.275 59.3014 112.3 59.2761C112.451 59.1495 112.603 59.0229 112.729 58.8878C112.762 58.8541 112.796 58.8119 112.838 58.7697C112.947 58.6515 113.048 58.5334 113.14 58.4152C113.191 58.3477 113.216 58.2886 113.258 58.2211C113.317 58.1198 113.393 58.0185 113.443 57.9088C113.485 57.8159 113.519 57.7147 113.552 57.6218C113.577 57.5459 113.619 57.4615 113.636 57.3855C113.678 57.2083 113.703 57.0226 113.703 56.8369C113.72 53.7816 107.728 51.2664 100.325 51.2158L100.333 51.2073Z" fill="#F5DF35"/>
<path d="M111.746 50.4054C111.746 50.5911 111.72 50.7683 111.678 50.954C111.662 51.03 111.62 51.1144 111.594 51.1903C111.561 51.2916 111.527 51.3845 111.485 51.4773C111.435 51.587 111.359 51.6883 111.3 51.7896C111.258 51.8571 111.225 51.9162 111.183 51.9837C111.09 52.1019 110.989 52.22 110.88 52.3382C110.838 52.3804 110.813 52.4142 110.771 52.4564C110.645 52.5914 110.494 52.718 110.342 52.8446C110.317 52.8699 110.292 52.8868 110.267 52.9121C110.099 53.0472 109.905 53.1822 109.704 53.3088C109.695 53.3173 109.678 53.3257 109.662 53.3426C109.451 53.4776 109.225 53.6042 108.981 53.7393H108.972C106.519 55.0475 102.653 55.8746 98.3079 55.8493C93.9631 55.8155 90.1142 54.9293 87.6686 53.5873C87.6686 53.5873 87.6686 53.5873 87.6602 53.5873C87.4249 53.4523 87.198 53.3257 86.9879 53.1822C86.9795 53.1738 86.9627 53.1653 86.9459 53.1485C86.7442 53.0219 86.5593 52.8784 86.3912 52.7433C86.366 52.718 86.3408 52.7011 86.3156 52.6758C86.1643 52.5492 86.0215 52.4142 85.887 52.2791C85.8534 52.2454 85.8198 52.2032 85.7778 52.161C85.6685 52.0428 85.5677 51.9246 85.4752 51.798C85.4248 51.739 85.3912 51.6714 85.3576 51.6039C85.2903 51.5026 85.2231 51.4013 85.1727 51.2916C85.1307 51.1988 85.097 51.0975 85.0718 51.0047C85.0382 50.9287 85.0046 50.8443 84.9878 50.7683C84.9458 50.5911 84.9206 50.4054 84.9206 50.2197H84.8785L84.8281 55.115H84.971C85.7273 57.8665 91.3831 60.044 98.2575 60.0947C105.14 60.1453 110.813 58.0437 111.603 55.3007H111.746L111.796 50.4054H111.754H111.746Z" fill="#EABA24"/>
<path d="M98.3642 44.7845C90.9603 44.7338 84.9348 47.1646 84.918 50.2199C84.918 50.4056 84.9432 50.5828 84.9852 50.7685C85.002 50.8529 85.0356 50.9289 85.0692 51.0048C85.1029 51.1061 85.1281 51.199 85.1701 51.2918C85.2205 51.4015 85.2877 51.5028 85.355 51.6041C85.3886 51.6716 85.4306 51.7307 85.4726 51.7982C85.5567 51.9248 85.6659 52.043 85.7752 52.1611C85.8088 52.2033 85.8424 52.2456 85.8844 52.2793C86.0189 52.4144 86.1617 52.5494 86.313 52.676C86.3382 52.7013 86.3634 52.7182 86.3886 52.7435C86.5567 52.8786 86.7416 53.022 86.9433 53.1486C86.9601 53.1571 86.9685 53.1655 86.9853 53.1824C87.1954 53.3174 87.4223 53.4525 87.6576 53.5875H87.666C87.9097 53.7226 88.1703 53.8492 88.4392 53.9758H88.4476C90.8931 55.0983 94.3891 55.8157 98.2969 55.8495C102.213 55.8748 105.718 55.1996 108.171 54.1193C108.449 53.9927 108.709 53.8661 108.953 53.7395C108.953 53.7395 108.953 53.7395 108.961 53.7395C109.205 53.6129 109.424 53.4778 109.642 53.3428C109.651 53.3343 109.667 53.3259 109.684 53.309C109.886 53.1824 110.071 53.0474 110.247 52.9123C110.281 52.887 110.298 52.8701 110.323 52.8448C110.483 52.7182 110.625 52.5916 110.751 52.4566C110.793 52.4228 110.819 52.3806 110.861 52.3384C110.97 52.2202 111.071 52.1021 111.163 51.9839C111.205 51.9248 111.239 51.8573 111.281 51.7898C111.34 51.6885 111.415 51.5872 111.466 51.4775C111.508 51.3847 111.541 51.2834 111.575 51.1905C111.6 51.1146 111.642 51.0302 111.659 50.9542C111.701 50.777 111.726 50.5913 111.726 50.4056C111.743 47.3503 105.751 44.8351 98.3473 44.7845H98.3642Z" fill="#F5DF35"/>
<path d="M108.703 51.4267C110.258 50.6418 111.291 49.6796 111.602 48.6161H111.745L111.796 43.7208H111.754C111.754 43.9065 111.728 44.0838 111.686 44.2694C111.669 44.3538 111.627 44.4298 111.602 44.5058C111.569 44.6071 111.535 44.6999 111.493 44.7927C111.443 44.9025 111.367 45.0037 111.308 45.105C111.266 45.1725 111.232 45.2316 111.19 45.2991C111.098 45.4173 110.997 45.5355 110.888 45.6536C110.846 45.6958 110.821 45.7296 110.779 45.7718C110.653 45.9068 110.501 46.0334 110.35 46.16C110.325 46.1854 110.3 46.2022 110.274 46.2276C110.106 46.3626 109.913 46.4976 109.711 46.6242C109.703 46.6327 109.686 46.6411 109.669 46.6496C109.459 46.7846 109.232 46.9197 108.989 47.0463H108.98C106.526 48.3545 102.661 49.1816 98.3157 49.1563C93.9709 49.1225 90.122 48.2363 87.6764 46.9028C87.6764 46.9028 87.6764 46.9028 87.668 46.9028C87.4327 46.7677 87.2058 46.6327 86.9957 46.4976C86.9873 46.4892 86.9705 46.4808 86.9537 46.4639C86.752 46.3373 86.5671 46.1938 86.3991 46.0588C86.3738 46.0334 86.3486 46.0166 86.3234 45.9912C86.1721 45.8646 86.0293 45.7296 85.8948 45.5945C85.8612 45.5608 85.8276 45.5186 85.7856 45.4764C85.6763 45.3582 85.5755 45.2401 85.483 45.1135C85.4326 45.0459 85.399 44.9869 85.3654 44.9193C85.2981 44.8181 85.2309 44.7083 85.1805 44.6071C85.1385 44.5142 85.1049 44.4129 85.0797 44.3201C85.046 44.2441 85.0124 44.1597 84.9956 44.0838C84.9536 43.8981 84.9284 43.7208 84.9284 43.5352H84.8864L84.8359 48.4389H84.9788C85.7351 51.1904 91.3909 53.3679 98.2653 53.4186C102.484 53.4523 106.249 52.6674 108.711 51.4351" fill="#EABA24"/>
<path d="M98.3642 38.0999C90.9603 38.0493 84.9348 40.48 84.918 43.5353C84.918 43.721 84.9432 43.8983 84.9852 44.084C85.002 44.1599 85.0356 44.2443 85.0692 44.3203C85.1029 44.4216 85.1281 44.5144 85.1701 44.6072C85.2205 44.717 85.2877 44.8182 85.355 44.9195C85.3886 44.9871 85.4306 45.0461 85.4726 45.1137C85.5567 45.2403 85.6659 45.3584 85.7752 45.4766C85.8088 45.5188 85.8424 45.561 85.8844 45.5947C86.0189 45.7298 86.1617 45.8564 86.313 45.9914C86.3382 46.0167 86.3634 46.0336 86.3886 46.0589C86.5567 46.194 86.7416 46.3375 86.9433 46.4641C86.9601 46.4725 86.9685 46.481 86.9853 46.4978C87.1954 46.6329 87.4223 46.7679 87.6576 46.903H87.666C87.9097 47.038 88.1703 47.1646 88.4392 47.2912H88.4476C90.8931 48.4053 94.3891 49.1312 98.2969 49.1649C102.213 49.1902 105.718 48.515 108.171 47.4347C108.449 47.3081 108.709 47.1899 108.953 47.0549C108.953 47.0549 108.953 47.0549 108.961 47.0549C109.205 46.9283 109.424 46.7932 109.642 46.6582C109.651 46.6498 109.667 46.6413 109.684 46.6329C109.886 46.5063 110.071 46.3712 110.247 46.2362C110.281 46.2109 110.298 46.194 110.323 46.1687C110.483 46.0421 110.625 45.9155 110.751 45.7804C110.793 45.7467 110.819 45.7045 110.861 45.6623C110.97 45.5441 111.071 45.4259 111.163 45.3078C111.205 45.2403 111.239 45.1812 111.281 45.1137C111.34 45.0124 111.415 44.9111 111.466 44.8014C111.508 44.7085 111.541 44.6072 111.575 44.5144C111.6 44.4384 111.642 44.354 111.659 44.2781C111.701 44.1008 111.726 43.9152 111.726 43.7295C111.743 40.6741 105.751 38.159 98.3473 38.1083L98.3642 38.0999Z" fill="#F5DF35"/>
<path d="M110.551 27.3808C110.601 27.558 110.627 27.7353 110.635 27.921C110.635 28.0054 110.627 28.0898 110.618 28.1742C110.618 28.2754 110.618 28.3852 110.593 28.4864C110.576 28.6046 110.534 28.7228 110.501 28.8409C110.475 28.9169 110.467 28.9844 110.442 29.0604C110.391 29.2039 110.324 29.3473 110.248 29.4993C110.223 29.5499 110.206 29.6005 110.181 29.6512C110.089 29.82 109.988 29.9888 109.879 30.1576C109.862 30.1829 109.845 30.2167 109.82 30.242C109.694 30.4277 109.551 30.6218 109.4 30.8075C109.391 30.8244 109.374 30.8328 109.366 30.8497C109.206 31.0438 109.021 31.2464 108.828 31.4489C108.828 31.4489 108.828 31.4489 108.82 31.4489C106.836 33.5083 103.391 35.5677 99.2393 36.9688C95.0878 38.3698 91.1716 38.8003 88.474 38.3192H88.4656C88.2051 38.277 87.9529 38.2179 87.7092 38.1588C87.6924 38.1588 87.684 38.1504 87.6672 38.142C87.4403 38.0829 87.2302 38.0154 87.0285 37.9394C86.9949 37.931 86.9697 37.9141 86.9361 37.8972C86.7512 37.8297 86.5831 37.7453 86.4234 37.6609C86.373 37.6356 86.331 37.6102 86.289 37.5849C86.1545 37.5005 86.0201 37.4246 85.9024 37.3402C85.8436 37.298 85.7932 37.2473 85.7343 37.1967C85.6419 37.1207 85.5494 37.0447 85.4738 36.9603C85.4066 36.8844 85.3477 36.8 85.2973 36.7156C85.2469 36.6481 85.1881 36.589 85.1545 36.513C85.062 36.3527 84.9948 36.1923 84.9444 36.0151L84.9023 36.0319L86.2218 40.7162L86.3562 40.674C87.8437 43.0457 93.8356 43.2651 100.399 41.0454C106.971 38.8256 111.795 34.96 111.786 32.0819L111.921 32.0397L110.601 27.3555L110.559 27.3723L110.551 27.3808Z" fill="#EABA24"/>
<path d="M96.2404 26.4357C89.1643 28.8243 84.1052 33.1287 84.9372 36.049C84.9876 36.2263 85.0633 36.3866 85.1473 36.547C85.1893 36.6145 85.2481 36.682 85.2902 36.7496C85.349 36.834 85.3994 36.9184 85.4666 36.9943C85.5423 37.0787 85.6431 37.1547 85.7272 37.2306C85.7776 37.2813 85.8364 37.3319 85.8952 37.3741C86.0129 37.467 86.1474 37.5429 86.2818 37.6189C86.3238 37.6442 86.3743 37.6695 86.4163 37.6949C86.5759 37.7793 86.7524 37.8552 86.9289 37.9312C86.9625 37.9481 86.9877 37.9565 87.0214 37.9734C87.223 38.0493 87.4416 38.1169 87.6601 38.1759C87.6769 38.1759 87.6937 38.1844 87.7021 38.1928C87.9374 38.2519 88.1895 38.311 88.4584 38.3532H88.4668C88.7357 38.4038 89.0215 38.4376 89.3156 38.4713C91.9544 38.733 95.4924 38.2688 99.2238 37.0028C102.963 35.7367 106.123 33.939 108.157 32.099H108.165C108.392 31.888 108.611 31.6855 108.804 31.4829C108.804 31.4829 108.804 31.4829 108.813 31.4829C109.006 31.2803 109.182 31.0862 109.35 30.8837C109.359 30.8668 109.376 30.8583 109.384 30.8415C109.544 30.6558 109.678 30.4617 109.804 30.276C109.829 30.2422 109.846 30.2169 109.863 30.1916C109.972 30.0228 110.082 29.8455 110.166 29.6852C110.191 29.6345 110.208 29.5839 110.233 29.5332C110.3 29.3813 110.367 29.2378 110.426 29.0944C110.451 29.0184 110.468 28.9424 110.485 28.8749C110.519 28.7567 110.561 28.6301 110.577 28.5204C110.594 28.4191 110.594 28.3094 110.603 28.2081C110.603 28.1237 110.619 28.0393 110.619 27.9549C110.619 27.7692 110.586 27.5836 110.535 27.4148C109.703 24.5029 103.3 24.0725 96.2152 26.4695L96.2404 26.4357Z" fill="#F5DF35"/>
<path d="M111.651 17.6917C111.601 17.8689 111.525 18.0293 111.424 18.1896C111.382 18.2571 111.324 18.3247 111.273 18.3837C111.214 18.4597 111.156 18.5441 111.088 18.6201C111.013 18.7045 110.912 18.7804 110.819 18.8564C110.761 18.8986 110.71 18.9492 110.651 18.9999C110.534 19.0843 110.399 19.1602 110.256 19.2362C110.206 19.2615 110.164 19.2868 110.122 19.3122C109.962 19.3966 109.786 19.4641 109.601 19.5316C109.567 19.5485 109.542 19.5569 109.508 19.5654C109.307 19.6329 109.088 19.7004 108.861 19.751C108.844 19.751 108.828 19.751 108.819 19.7679C108.576 19.8186 108.323 19.8692 108.063 19.9114H108.055C105.34 20.3081 101.441 19.7848 97.3144 18.2656C93.1965 16.7548 89.7929 14.5941 87.86 12.4841C87.86 12.4841 87.86 12.4841 87.8516 12.4841C87.6667 12.2815 87.4903 12.0705 87.3306 11.868C87.3222 11.8511 87.3138 11.8426 87.3054 11.8258C87.1541 11.6316 87.0196 11.4375 86.8936 11.2518C86.8768 11.2265 86.86 11.1927 86.8432 11.1674C86.7339 10.9902 86.6331 10.8214 86.549 10.6441C86.5238 10.5935 86.507 10.5429 86.4818 10.4922C86.4146 10.3403 86.3473 10.1968 86.3053 10.0449C86.2801 9.96893 86.2633 9.89297 86.2465 9.81701C86.2129 9.69885 86.1793 9.57224 86.1624 9.45408C86.1456 9.34436 86.1456 9.24308 86.1456 9.1418C86.1456 9.05739 86.1288 8.96455 86.1372 8.88859C86.154 8.70291 86.1792 8.51723 86.2381 8.34842L86.1961 8.33154L84.7422 12.9652L84.8766 13.0158C84.801 15.8939 89.5408 19.8861 96.0538 22.2831C102.575 24.6801 108.559 24.6294 110.105 22.2915L110.24 22.3422L111.693 17.7085L111.651 17.6917Z" fill="#EABA24"/>
<path d="M100.566 7.78284C93.5489 5.20015 87.1284 5.45336 86.2376 8.34832C86.1787 8.52557 86.1535 8.70281 86.1367 8.88849C86.1367 8.97289 86.1367 9.0573 86.1451 9.1417C86.1451 9.24298 86.1451 9.34426 86.1619 9.45398C86.1787 9.57214 86.2124 9.69875 86.246 9.81691C86.2628 9.89287 86.2796 9.96039 86.3048 10.0448C86.3552 10.1883 86.414 10.3402 86.4813 10.4921C86.5065 10.5428 86.5233 10.5934 86.5485 10.644C86.6326 10.8128 86.7334 10.9901 86.8426 11.1673C86.8595 11.2011 86.8763 11.2264 86.8931 11.2517C87.0191 11.4374 87.1536 11.64 87.3049 11.8257C87.3133 11.8425 87.3217 11.851 87.3301 11.8679C87.4897 12.0704 87.6662 12.273 87.8511 12.484C87.8511 12.484 87.8511 12.484 87.8595 12.484C88.0528 12.695 88.2629 12.906 88.4814 13.117C88.4814 13.117 88.4814 13.117 88.4898 13.117C90.4899 15.016 93.5994 16.8982 97.3055 18.257C101.012 19.6243 104.541 20.1814 107.188 19.9873C107.491 19.9704 107.768 19.9366 108.037 19.8944C108.037 19.8944 108.037 19.8944 108.046 19.8944C108.306 19.8522 108.558 19.81 108.802 19.7509C108.819 19.7509 108.836 19.7425 108.844 19.7341C109.071 19.6834 109.289 19.6159 109.491 19.5484C109.525 19.5399 109.558 19.5231 109.584 19.5146C109.768 19.4471 109.945 19.3796 110.105 19.2952C110.147 19.2699 110.197 19.2445 110.239 19.2192C110.382 19.1433 110.508 19.0673 110.634 18.9829C110.693 18.9407 110.743 18.8901 110.802 18.8394C110.895 18.7635 110.987 18.6875 111.071 18.6031C111.138 18.5271 111.197 18.4427 111.256 18.3668C111.306 18.2992 111.365 18.2402 111.407 18.1726C111.5 18.0207 111.575 17.8519 111.634 17.6747C112.533 14.7797 107.567 10.3486 100.549 7.76595L100.566 7.78284Z" fill="#F5DF35"/>
<path d="M60.6403 84.833C60.6403 85.0187 60.6655 85.1959 60.7075 85.3816C60.7243 85.466 60.7663 85.542 60.7915 85.6179C60.8252 85.7192 60.8588 85.8121 60.9008 85.9049C60.9512 86.0146 61.0268 86.1159 61.0857 86.2172C61.1277 86.2763 61.1613 86.3438 61.2033 86.4113C61.2958 86.5295 61.3966 86.6476 61.5059 86.7658C61.5479 86.808 61.5731 86.8502 61.6151 86.884C61.7412 87.019 61.8924 87.1456 62.0437 87.2722C62.0689 87.2975 62.0941 87.3144 62.1193 87.3397C62.2874 87.4748 62.4807 87.6098 62.6824 87.7364C62.6908 87.7448 62.7076 87.7533 62.7244 87.7702C62.9345 87.9052 63.1614 88.0318 63.4051 88.1669H63.4135C65.8675 89.4751 69.7332 90.3022 74.078 90.2769C78.4228 90.2431 82.2718 89.3569 84.7173 88.0149C84.7173 88.0149 84.7173 88.0149 84.7257 88.0149C84.9611 87.8799 85.188 87.7533 85.3981 87.6098C85.4065 87.6014 85.4233 87.5929 85.4401 87.5845C85.6418 87.4494 85.8267 87.3144 85.9947 87.1794C86.0199 87.1625 86.0452 87.1372 86.0704 87.1118C86.2216 86.9852 86.3645 86.8502 86.499 86.7152C86.5326 86.6814 86.5662 86.6392 86.6082 86.597C86.7175 86.4788 86.8183 86.3607 86.9108 86.2341C86.9612 86.1665 86.9948 86.1075 87.0284 86.0399C87.0956 85.9387 87.1629 85.8289 87.2133 85.7277C87.2553 85.6348 87.2805 85.5335 87.3141 85.4407C87.3393 85.3647 87.3814 85.2803 87.3982 85.2044C87.4402 85.0271 87.4654 84.8414 87.4654 84.6558H87.5074L87.5578 89.551H87.415C86.6586 92.3025 81.0028 94.4801 74.1285 94.5307C67.2457 94.5814 61.5731 92.4798 60.7831 89.7367H60.6403L60.5898 84.8414H60.6319L60.6403 84.833Z" fill="#EABA24"/>
<path d="M74.019 79.2033C81.4228 79.1526 87.4484 81.5834 87.4652 84.6387C87.4652 84.8244 87.44 85.0016 87.398 85.1873C87.3812 85.2717 87.3392 85.3477 87.3139 85.4236C87.2803 85.5249 87.2551 85.6178 87.2131 85.7106C87.1627 85.8203 87.0954 85.9216 87.0282 86.0229C86.9862 86.0904 86.9526 86.1495 86.9106 86.217C86.8265 86.3436 86.7173 86.4533 86.608 86.5799C86.5744 86.6221 86.5408 86.6643 86.4988 86.6981C86.3643 86.8331 86.2214 86.9598 86.0702 87.0948C86.045 87.1201 86.0197 87.137 85.9945 87.1623C85.8265 87.2974 85.6416 87.4408 85.4399 87.5674C85.4231 87.5759 85.4147 87.5843 85.3979 87.5928C85.1878 87.7278 84.9609 87.8628 84.7255 87.9979H84.7171C84.4734 88.1329 84.2129 88.2595 83.944 88.3861C83.944 88.3861 83.944 88.3861 83.9356 88.3861C81.4901 89.5087 77.9941 90.2261 74.0863 90.2598C70.1701 90.2852 66.6656 89.61 64.2033 88.5296C63.926 88.4115 63.6655 88.2849 63.4217 88.1498C63.4217 88.1498 63.4217 88.1498 63.4133 88.1498C63.1696 88.0232 62.9511 87.8882 62.7326 87.7531C62.7242 87.7447 62.7074 87.7362 62.6906 87.7194C62.4889 87.5928 62.304 87.4577 62.1276 87.3227C62.0939 87.3058 62.0771 87.2805 62.0519 87.2552C61.9007 87.1285 61.7494 87.0019 61.6233 86.8669C61.5813 86.8331 61.5561 86.7909 61.5141 86.7487C61.4048 86.6306 61.304 86.5124 61.2115 86.3943C61.1695 86.3352 61.1359 86.2677 61.0939 86.2001C61.0351 86.0989 60.9594 85.9976 60.909 85.8879C60.867 85.795 60.8334 85.6937 60.7997 85.6009C60.7745 85.5249 60.7325 85.4405 60.7157 85.3646C60.6737 85.1873 60.6485 85.0016 60.6485 84.816C60.6317 81.7606 66.6236 79.2455 74.0274 79.1948L74.019 79.2033Z" fill="#F5DF35"/>
<path d="M60.6832 78.047C60.6832 78.2327 60.7084 78.4099 60.7505 78.5956C60.7673 78.6716 60.8093 78.756 60.8345 78.8319C60.8681 78.9332 60.9017 79.0261 60.9438 79.1189C60.9942 79.2286 61.0698 79.3299 61.1286 79.4312C61.1707 79.4987 61.2043 79.5578 61.2463 79.6253C61.3387 79.7435 61.4396 79.8616 61.5488 79.9798C61.5909 80.022 61.6161 80.0558 61.6581 80.098C61.7925 80.233 61.9354 80.3596 62.0867 80.4862C62.1119 80.5115 62.1371 80.5284 62.1623 80.5537C62.3304 80.6888 62.5237 80.8238 62.7254 80.9504C62.7338 80.9589 62.7506 80.9673 62.7674 80.9757C62.9775 81.1108 63.2044 81.2458 63.4481 81.3724H63.4565C65.9104 82.6806 69.7762 83.5078 74.121 83.4825C78.4658 83.4487 82.3148 82.5625 84.7603 81.2289C84.7603 81.2289 84.7603 81.2289 84.7687 81.2289C85.004 81.0939 85.2309 80.9673 85.441 80.8238C85.4494 80.8154 85.4662 80.8069 85.483 80.7901C85.6847 80.6635 85.8696 80.52 86.0377 80.3849C86.0629 80.3596 86.0881 80.3427 86.1133 80.3174C86.2646 80.1908 86.4075 80.0558 86.5419 79.9207C86.5756 79.887 86.6092 79.8448 86.6512 79.8026C86.7604 79.6844 86.8613 79.5662 86.9537 79.4396C87.0041 79.3721 87.0294 79.313 87.0714 79.2455C87.1386 79.1442 87.2058 79.0345 87.2563 78.9332C87.2983 78.8404 87.3235 78.7391 87.3571 78.6463C87.3823 78.5703 87.4243 78.4859 87.4411 78.4099C87.4832 78.2243 87.5084 78.047 87.5084 77.8613H87.5504L87.6008 82.765H87.458C86.7016 85.5165 81.0458 87.6941 74.1714 87.7447C67.2887 87.7954 61.6161 85.6938 60.8261 82.9507H60.6832L60.6328 78.0555H60.6748L60.6832 78.047Z" fill="#EABA24"/>
<path d="M74.019 72.5188C81.4228 72.4682 87.4484 74.899 87.4652 77.9543C87.4652 78.14 87.44 78.3172 87.398 78.5029C87.3812 78.5789 87.3392 78.6633 87.3139 78.7392C87.2803 78.8405 87.2551 78.9333 87.2131 79.0346C87.1627 79.1444 87.0954 79.2456 87.0282 79.3469C86.9862 79.406 86.9526 79.4735 86.9106 79.541C86.8265 79.6676 86.7173 79.7858 86.608 79.904C86.5744 79.9462 86.5408 79.9884 86.4988 80.0221C86.3643 80.1572 86.2214 80.2838 86.0702 80.4188C86.045 80.4441 86.0197 80.461 85.9945 80.4863C85.8265 80.6214 85.6416 80.7649 85.4399 80.8915C85.4231 80.8999 85.4147 80.9083 85.3979 80.9252C85.1878 81.0603 84.9609 81.1953 84.7255 81.3303H84.7171C84.4734 81.4654 84.2129 81.592 83.944 81.7186C83.944 81.7186 83.944 81.7186 83.9356 81.7186C81.4901 82.8411 77.9941 83.5585 74.0863 83.5923C70.1701 83.6176 66.6656 82.9424 64.2033 81.8621C63.926 81.7439 63.6655 81.6173 63.4217 81.4823C63.4217 81.4823 63.4217 81.4823 63.4133 81.4823C63.1696 81.3557 62.9511 81.2206 62.7326 81.0856C62.7242 81.0771 62.7074 81.0687 62.6906 81.0603C62.4889 80.9337 62.304 80.7986 62.1276 80.6636C62.0939 80.6383 62.0771 80.6214 62.0519 80.5961C61.9007 80.4695 61.7494 80.3429 61.6233 80.2078C61.5813 80.174 61.5561 80.1318 61.5141 80.0896C61.4048 79.9715 61.304 79.8533 61.2115 79.7352C61.1695 79.6676 61.1359 79.6086 61.0939 79.541C61.0351 79.4398 60.9594 79.3385 60.909 79.2288C60.867 79.1359 60.8334 79.0346 60.7997 78.9418C60.7745 78.8658 60.7325 78.7814 60.7157 78.7055C60.6737 78.5282 60.6485 78.3425 60.6485 78.1569C60.6317 75.1015 66.6236 72.5864 74.0274 72.5357L74.019 72.5188Z" fill="#F5DF35"/>
<path d="M62.0778 71.4635C62.0778 71.6492 62.103 71.8264 62.145 72.0121C62.1618 72.0965 62.2038 72.1725 62.229 72.2484C62.2627 72.3497 62.2963 72.4426 62.3383 72.5354C62.3887 72.6451 62.4643 72.7464 62.5232 72.8477C62.5652 72.9152 62.5988 72.9743 62.6408 73.0418C62.7333 73.16 62.8341 73.2781 62.9434 73.3963C62.9854 73.4385 63.0106 73.4807 63.0526 73.5145C63.1871 73.6495 63.3299 73.7761 63.4812 73.9027C63.5064 73.928 63.5316 73.9449 63.5569 73.9702C63.7249 74.1053 63.9182 74.2403 64.1199 74.3669C64.1283 74.3754 64.1451 74.3838 64.1619 74.3922C64.372 74.5273 64.5989 74.6623 64.8426 74.7889H64.851C67.305 76.0972 71.1707 76.9243 75.5155 76.899C79.8603 76.8652 83.7093 75.979 86.1548 74.6455C86.1548 74.6455 86.1548 74.6455 86.1633 74.6455C86.3986 74.5188 86.6255 74.3838 86.8356 74.2403C86.844 74.2319 86.8608 74.2234 86.8776 74.2066C87.0709 74.08 87.2642 73.9365 87.4322 73.8014C87.4574 73.7761 87.4827 73.7592 87.5079 73.7339C87.6591 73.6073 87.802 73.4723 87.9365 73.3372C87.9701 73.3035 88.0037 73.2613 88.0457 73.2191C88.155 73.1009 88.2558 72.9827 88.3483 72.8561C88.3987 72.7886 88.4239 72.7295 88.4659 72.662C88.5331 72.5607 88.6004 72.451 88.6508 72.3497C88.6928 72.2569 88.718 72.1556 88.7516 72.0628C88.7768 71.9868 88.8189 71.9024 88.8357 71.8264C88.8777 71.6408 88.9029 71.4635 88.9029 71.2778H88.9449L88.9953 76.1816H88.8525C88.0961 78.933 82.4403 81.1106 75.566 81.1612C68.6832 81.2119 63.019 79.1103 62.2206 76.3672H62.0778L62.0273 71.472H62.0694L62.0778 71.4635Z" fill="#EABA24"/>
<path d="M75.4565 65.8343C82.8603 65.7836 88.8859 68.2144 88.9027 71.2697C88.9027 71.4554 88.8775 71.6327 88.8355 71.8183C88.8187 71.8943 88.7766 71.9787 88.7514 72.0547C88.7178 72.1559 88.6926 72.2488 88.6506 72.3416C88.6002 72.4513 88.5329 72.5526 88.4657 72.6539C88.4237 72.7214 88.3901 72.7805 88.3481 72.848C88.264 72.9746 88.1548 73.0843 88.0455 73.211C88.0119 73.2532 87.9783 73.2954 87.9363 73.3291C87.8018 73.4642 87.6673 73.5908 87.5077 73.7258C87.4825 73.7511 87.4572 73.768 87.432 73.7933C87.264 73.9284 87.0791 74.0719 86.8774 74.1985C86.8606 74.2069 86.8522 74.2153 86.8354 74.2322C86.6253 74.3672 86.3984 74.5023 86.1631 74.6373H86.1546C85.9109 74.7724 85.6504 74.899 85.3815 75.0256C85.3815 75.0256 85.3815 75.0256 85.3731 75.0256C82.936 76.1481 79.4316 76.8655 75.5238 76.8993C71.6076 76.9246 68.1031 76.2494 65.6408 75.1691C65.3635 75.0425 65.103 74.9243 64.8592 74.7893C64.8592 74.7893 64.8592 74.7893 64.8508 74.7893C64.6071 74.6627 64.3886 74.5276 64.1701 74.3926C64.1617 74.3841 64.1449 74.3757 64.1281 74.3673C63.9264 74.2407 63.7415 74.1056 63.5651 73.9706C63.5314 73.9452 63.5146 73.9284 63.4894 73.903C63.3297 73.7764 63.1869 73.6498 63.0608 73.5148C63.0188 73.481 62.9936 73.4388 62.9516 73.3966C62.8423 73.2785 62.7415 73.1603 62.649 73.0422C62.607 72.9746 62.5734 72.9155 62.5314 72.848C62.4725 72.7467 62.3969 72.6455 62.3465 72.5357C62.3045 72.4429 62.2709 72.3416 62.2372 72.2488C62.212 72.1728 62.17 72.0884 62.1532 72.0125C62.1112 71.8352 62.086 71.6495 62.086 71.4638C62.0692 68.4085 68.0611 65.8934 75.4649 65.8427L75.4565 65.8343Z" fill="#F5DF35"/>
<path d="M62.0778 64.7789C62.0778 64.9646 62.103 65.1419 62.145 65.3276C62.1618 65.4035 62.2038 65.4879 62.229 65.5639C62.2627 65.6652 62.2963 65.758 62.3383 65.8508C62.3887 65.9521 62.4643 66.0618 62.5232 66.1631C62.5652 66.2306 62.5988 66.2897 62.6408 66.3573C62.7333 66.4754 62.8341 66.5936 62.9434 66.7117C62.9854 66.7539 63.0106 66.7961 63.0526 66.8299C63.1871 66.9649 63.3299 67.0915 63.4812 67.2181C63.5064 67.2435 63.5316 67.2603 63.5569 67.2857C63.7249 67.4207 63.9182 67.5558 64.1199 67.6824C64.1283 67.6908 64.1451 67.6992 64.1619 67.7161C64.372 67.8512 64.5989 67.9778 64.8426 68.1044H64.851C67.305 69.4126 71.1707 70.2397 75.5155 70.2144C79.8603 70.1806 83.7093 69.3029 86.1548 67.9609C86.1548 67.9609 86.1548 67.9609 86.1633 67.9609C86.3986 67.8258 86.6255 67.6992 86.8356 67.5558C86.844 67.5473 86.8608 67.5389 86.8776 67.522C87.0709 67.3954 87.2642 67.2519 87.4322 67.1169C87.4574 67.0915 87.4827 67.0747 87.5079 67.0493C87.6591 66.9227 87.802 66.7877 87.9365 66.6527C87.9701 66.6189 88.0037 66.5767 88.0457 66.5345C88.155 66.4163 88.2558 66.2982 88.3483 66.1716C88.3987 66.104 88.4239 66.045 88.4659 65.9774C88.5331 65.8762 88.6004 65.7664 88.6508 65.6652C88.6928 65.5723 88.718 65.471 88.7516 65.3782C88.7768 65.3022 88.8189 65.2178 88.8357 65.1419C88.8777 64.9562 88.9029 64.7789 88.9029 64.5933H88.9449L88.9953 69.497H88.8525C88.0961 72.2485 82.4403 74.426 75.566 74.4767C68.6832 74.5273 63.019 72.4257 62.2206 69.6827H62.0778L62.0273 64.7874H62.0694L62.0778 64.7789Z" fill="#EABA24"/>
<path d="M75.4565 59.1497C82.8603 59.0991 88.8859 61.5298 88.9027 64.5852C88.9027 64.7708 88.8775 64.9481 88.8355 65.1338C88.8187 65.2097 88.7766 65.2941 88.7514 65.3701C88.7178 65.4714 88.6926 65.5642 88.6506 65.657C88.6002 65.7668 88.5329 65.8681 88.4657 65.9693C88.4237 66.0369 88.3901 66.0959 88.3481 66.1635C88.264 66.2901 88.1548 66.4082 88.0455 66.5264C88.0119 66.5686 87.9783 66.6108 87.9363 66.6445C87.8018 66.7796 87.6673 66.9146 87.5077 67.0412C87.4825 67.0666 87.4572 67.0834 87.432 67.1088C87.264 67.2438 87.0791 67.3873 86.8774 67.5139C86.8606 67.5223 86.8522 67.5308 86.8354 67.5476C86.6253 67.6827 86.3984 67.8177 86.1631 67.9528H86.1546C85.9109 68.0878 85.6504 68.2144 85.3815 68.341C85.3815 68.341 85.3815 68.341 85.3731 68.341C82.936 69.4636 79.4316 70.181 75.5238 70.2147C71.6076 70.24 68.1031 69.5648 65.6408 68.4845C65.3635 68.3663 65.103 68.2397 64.8592 68.1047C64.8592 68.1047 64.8592 68.1047 64.8508 68.1047C64.6071 67.9781 64.3886 67.843 64.1701 67.7164C64.1617 67.708 64.1449 67.6996 64.1281 67.6827C63.9264 67.5561 63.7415 67.421 63.5651 67.286C63.5314 67.2607 63.5146 67.2438 63.4894 67.2185C63.3297 67.0919 63.1869 66.9653 63.0608 66.8302C63.0188 66.7965 62.9936 66.7543 62.9516 66.7121C62.8423 66.5939 62.7415 66.4757 62.649 66.3576C62.607 66.2901 62.5734 66.231 62.5314 66.1635C62.4725 66.0622 62.3969 65.9609 62.3465 65.8512C62.3045 65.7583 62.2709 65.657 62.2372 65.5642C62.212 65.4882 62.17 65.4038 62.1532 65.3279C62.1112 65.1506 62.086 64.965 62.086 64.7793C62.0692 61.7239 68.0611 59.2088 75.4649 59.1581L75.4565 59.1497Z" fill="#F5DF35"/>
<path d="M59.8668 58.0944C59.8668 58.2801 59.892 58.4573 59.9341 58.643C59.9509 58.7189 59.9929 58.8033 60.0181 58.8793C60.0517 58.9806 60.0853 59.0734 60.1273 59.1663C60.1778 59.2676 60.2534 59.3773 60.3122 59.4786C60.3543 59.5376 60.3879 59.6052 60.4299 59.6727C60.5139 59.7908 60.6232 59.909 60.7324 60.0272C60.7744 60.0694 60.7997 60.1031 60.8417 60.1453C60.9761 60.2804 61.119 60.407 61.2703 60.5336C61.2955 60.5589 61.3207 60.5758 61.3459 60.6011C61.514 60.7361 61.7073 60.8712 61.909 60.9978C61.9174 61.0062 61.9342 61.0147 61.951 61.0231C62.1611 61.1581 62.388 61.2847 62.6317 61.4198H62.6401C65.094 62.728 68.9598 63.5551 73.3046 63.5298C77.6494 63.4961 81.4984 62.6183 83.9439 61.2763C83.9439 61.2763 83.9439 61.2763 83.9523 61.2763C84.1876 61.1497 84.4145 61.0147 84.6246 60.8712C84.633 60.8627 84.6498 60.8543 84.6666 60.8374C84.8599 60.7024 85.0532 60.5673 85.2213 60.4323C85.2465 60.407 85.2717 60.3901 85.2969 60.3648C85.4482 60.2382 85.5911 60.1031 85.7255 59.9681C85.7675 59.9343 85.7928 59.8921 85.8348 59.8499C85.944 59.7318 86.0449 59.6136 86.1373 59.487C86.1877 59.4195 86.2129 59.3604 86.255 59.2929C86.3222 59.1916 86.3894 59.0819 86.4399 58.9806C86.4819 58.8877 86.5155 58.7865 86.5407 58.6936C86.5659 58.6177 86.6079 58.5333 86.6247 58.4573C86.6668 58.2801 86.692 58.0944 86.692 57.9087H86.734L86.7844 62.8124H86.6416C85.8768 65.5639 80.2294 67.7415 73.355 67.7921C66.4723 67.8427 60.7997 65.7411 60.0097 62.9981H59.8668L59.8164 58.1028H59.8584L59.8668 58.0944Z" fill="#EABA24"/>
<path d="M73.2456 52.4651C80.6494 52.4145 86.675 54.8453 86.6918 57.9006C86.6918 58.0863 86.6666 58.2719 86.6245 58.4492C86.6077 58.5252 86.5657 58.6096 86.5405 58.6855C86.5069 58.7868 86.4817 58.8796 86.4397 58.9725C86.3892 59.0822 86.322 59.1835 86.2548 59.2848C86.2127 59.3523 86.1791 59.4114 86.1371 59.4789C86.0447 59.6055 85.9438 59.7152 85.8346 59.8418C85.801 59.884 85.7673 59.9262 85.7253 59.96C85.5993 60.095 85.4564 60.2301 85.2967 60.3567C85.2715 60.382 85.2463 60.3989 85.2211 60.4242C85.053 60.5592 84.8597 60.7027 84.6664 60.8293C84.6496 60.8377 84.6412 60.8462 84.6244 60.8631C84.4143 60.9981 84.1874 61.1332 83.9521 61.2682H83.9437C83.7 61.4032 83.4395 61.5298 83.1706 61.6564C83.1706 61.6564 83.1706 61.6564 83.1622 61.6564C80.725 62.779 77.2206 63.4964 73.3128 63.5302C69.3966 63.5555 65.8922 62.8803 63.4299 61.7999C63.1525 61.6818 62.892 61.5552 62.6483 61.4201C62.6483 61.4201 62.6483 61.4201 62.6399 61.4201C62.3962 61.2935 62.1777 61.1585 61.9592 61.0234C61.9508 61.015 61.934 61.0066 61.9172 60.9981C61.7155 60.8715 61.5306 60.7365 61.3541 60.6014C61.3205 60.5761 61.3037 60.5592 61.2785 60.5339C61.1188 60.4073 60.9759 60.2807 60.8499 60.1457C60.8163 60.1119 60.7827 60.0697 60.7406 60.0275C60.6314 59.9093 60.5305 59.7912 60.4381 59.673C60.3877 59.6055 60.3625 59.5464 60.3204 59.4789C60.2616 59.3776 60.186 59.2763 60.1356 59.1666C60.0935 59.0738 60.0599 58.9725 60.0263 58.8796C60.0011 58.8037 59.9591 58.7193 59.9423 58.6433C59.9002 58.4661 59.875 58.2804 59.875 58.0947C59.8582 55.0394 65.8502 52.5242 73.254 52.4736L73.2456 52.4651Z" fill="#F5DF35"/>
<path d="M59.8668 51.4098C59.8668 51.5955 59.892 51.7727 59.9341 51.9584C59.9509 52.0344 59.9929 52.1188 60.0181 52.1947C60.0517 52.296 60.0853 52.3889 60.1273 52.4817C60.1778 52.583 60.2534 52.6927 60.3122 52.794C60.3543 52.8615 60.3879 52.9206 60.4299 52.9881C60.5139 53.1063 60.6232 53.2244 60.7324 53.3426C60.7744 53.3848 60.7997 53.4186 60.8417 53.4608C60.9761 53.5958 61.119 53.7224 61.2703 53.849C61.2955 53.8743 61.3207 53.8912 61.3459 53.9165C61.514 54.0516 61.7073 54.1866 61.909 54.3132C61.9174 54.3217 61.9342 54.3301 61.951 54.3385C62.1611 54.4736 62.388 54.6002 62.6317 54.7352H62.6401C65.094 56.0434 68.9598 56.8706 73.3046 56.8453C77.6494 56.8115 81.4984 55.9253 83.9439 54.5917C83.9439 54.5917 83.9439 54.5917 83.9523 54.5917C84.1876 54.4651 84.4145 54.3301 84.6246 54.1866C84.633 54.1782 84.6498 54.1697 84.6666 54.1528C84.8599 54.0178 85.0532 53.8828 85.2213 53.7477C85.2465 53.7224 85.2717 53.7055 85.2969 53.6802C85.4482 53.5536 85.5911 53.4186 85.7255 53.2835C85.7675 53.2498 85.7928 53.2076 85.8348 53.1654C85.944 53.0388 86.0449 52.929 86.1373 52.8024C86.1877 52.7349 86.2129 52.6758 86.255 52.6083C86.3222 52.507 86.3894 52.3973 86.4399 52.296C86.4819 52.2032 86.5155 52.1019 86.5407 52.0091C86.5659 51.9331 86.6079 51.8487 86.6247 51.7727C86.6668 51.5955 86.692 51.4098 86.692 51.2241H86.734L86.7844 56.1278H86.6416C85.8768 58.8793 80.2294 61.0569 73.355 61.1075C66.4723 61.1582 60.7997 59.0566 60.0097 56.3135H59.8668L59.8164 51.4182H59.8584L59.8668 51.4098Z" fill="#EABA24"/>
<path d="M73.2456 45.7806C80.6494 45.7299 86.675 48.1607 86.6918 51.216C86.6918 51.4017 86.6666 51.5789 86.6245 51.7646C86.6077 51.8406 86.5657 51.925 86.5405 52.0009C86.5069 52.1022 86.4817 52.1951 86.4397 52.2879C86.3892 52.3976 86.322 52.4989 86.2548 52.6002C86.2127 52.6677 86.1791 52.7268 86.1371 52.7943C86.0447 52.9209 85.9438 53.0306 85.8346 53.1572C85.801 53.1994 85.7673 53.2416 85.7253 53.2754C85.5993 53.4104 85.4564 53.537 85.2967 53.6721C85.2715 53.6974 85.2463 53.7143 85.2211 53.7396C85.053 53.8747 84.8597 54.0181 84.6664 54.1447C84.6496 54.1532 84.6412 54.1616 84.6244 54.1785C84.4143 54.3135 84.1874 54.4486 83.9521 54.5836H83.9437C83.7 54.7187 83.4395 54.8453 83.1706 54.9719C83.1706 54.9719 83.1706 54.9719 83.1622 54.9719C80.725 56.086 77.2206 56.8118 73.3128 56.8371C69.3966 56.8625 65.8922 56.1873 63.4299 55.1069C63.1525 54.9888 62.892 54.8621 62.6483 54.7271C62.6483 54.7271 62.6483 54.7271 62.6399 54.7271C62.3962 54.6005 62.1777 54.4655 61.9592 54.3304C61.9508 54.322 61.934 54.3135 61.9172 54.3051C61.7155 54.1785 61.5306 54.0435 61.3541 53.9084C61.3205 53.8831 61.3037 53.8662 61.2785 53.8409C61.1188 53.7143 60.9759 53.5877 60.8499 53.4526C60.8163 53.4189 60.7827 53.3767 60.7406 53.3345C60.6314 53.2163 60.5305 53.0982 60.4381 52.98C60.3877 52.9125 60.3625 52.8534 60.3204 52.7859C60.2616 52.6846 60.186 52.5833 60.1356 52.4736C60.0935 52.3808 60.0599 52.2795 60.0263 52.1866C60.0011 52.1107 59.9591 52.0263 59.9423 51.9503C59.9002 51.7731 59.875 51.5874 59.875 51.4017C59.8582 48.3464 65.8502 45.8312 73.254 45.7806H73.2456Z" fill="#F5DF35"/>
<path d="M96.0138 91.4244H60.1124L32.5562 74.9493C28.7576 72.6789 23.8582 73.793 21.4042 77.4813C18.7906 81.406 19.9336 86.7233 23.9338 89.2131L58.3392 110.643H142.05V91.4329H96.0054L96.0138 91.4244Z" fill="#F0D4C5"/>
<path d="M65.5826 84.4278C65.5826 79.9208 69.2215 76.2662 73.7092 76.2662H91.5422C94.9541 76.2662 98.2737 75.1521 100.988 73.0843C103.711 71.0164 107.022 69.9023 110.434 69.9023H116.426C122.006 69.9023 136.654 70.6282 142.049 72.063V92.5894H73.7008C69.2131 92.5894 65.5742 88.9349 65.5742 84.4278H65.5826Z" fill="#F5D9C7"/>
<path d="M142.058 114.002H160V69.1089H142.058V114.002Z" fill="#F16144"/>
</svg>
