<svg width="250" height="305" viewBox="0 0 250 305" fill="none" xmlns="http://www.w3.org/2000/svg">
<path d="M64 161.393L149.494 124.002L235 161.393L149.494 197.002L64 161.393Z" fill="#D34637"/>
<path d="M0 111.7L85.7971 74.002L150 125.112L64.2029 161.002L0 111.7Z" fill="#F46144"/>
<path d="M183.087 198.409C183.087 210.705 166.283 220.676 145.564 220.676C124.845 220.676 108.031 210.705 108.031 198.409V189.499H111.161C116.968 181.648 130.172 176.152 145.564 176.152C160.956 176.152 174.15 181.638 179.948 189.499H183.038V197.585C183.067 197.869 183.077 198.144 183.077 198.409" fill="#EFC439"/>
<g style="mix-blend-mode:multiply" opacity="0.6">
<mask id="mask0_98_7901" style="mask-type:luminance" maskUnits="userSpaceOnUse" x="145" y="167" width="39" height="54">
<path d="M183.085 167.241H145.562V220.675H183.085V167.241Z" fill="white"/>
</mask>
<g mask="url(#mask0_98_7901)">
<path d="M183.046 197.584C183.076 197.869 183.085 198.144 183.085 198.409C183.085 210.705 166.291 220.675 145.562 220.675V167.241C166.281 167.241 183.085 177.212 183.085 189.498C183.085 189.792 183.076 190.087 183.046 190.362V197.584Z" fill="#E5B82A"/>
</g>
</g>
<path d="M183.087 189.498C183.087 189.792 183.077 190.087 183.048 190.362C182.283 202.265 165.802 211.765 145.564 211.765C125.326 211.765 108.031 201.794 108.031 189.498C108.031 177.202 124.836 167.241 145.564 167.241C166.292 167.241 183.087 177.212 183.087 189.498Z" fill="#FCDA57"/>
<path d="M122.912 191.402L148.732 176.378L149.654 176.751C152.793 178.027 156.001 179.518 159.209 181.186C163.937 183.65 166.802 185.956 167.704 188.056C168.626 190.009 167.832 191.854 165.468 193.228C163.054 194.631 160.053 195.229 156.55 195.014C152.107 194.768 146.917 193.208 141.963 190.627C141.041 190.146 140.109 189.646 139.285 189.135L129.504 194.827L122.902 191.392L122.912 191.402ZM143.385 186.77C144.072 187.222 144.975 187.742 146.132 188.34C149.144 189.911 154.775 192.187 158.728 189.891C162.113 187.918 158.728 185.377 155.305 183.591C153.813 182.816 152.597 182.256 151.763 181.903L143.385 186.78V186.77Z" fill="#E6B829"/>
<path d="M183.087 185.681C183.087 197.977 166.283 207.947 145.564 207.947C124.845 207.947 108.031 197.977 108.031 185.681V176.77H111.161C116.968 168.919 130.172 163.424 145.564 163.424C160.956 163.424 174.15 168.91 179.948 176.77H183.038V184.856C183.067 185.141 183.077 185.416 183.077 185.681" fill="#EFC439"/>
<g style="mix-blend-mode:multiply" opacity="0.6">
<mask id="mask1_98_7901" style="mask-type:luminance" maskUnits="userSpaceOnUse" x="145" y="154" width="39" height="54">
<path d="M183.085 154.514H145.562V207.948H183.085V154.514Z" fill="white"/>
</mask>
<g mask="url(#mask1_98_7901)">
<path d="M183.046 184.847C183.076 185.131 183.085 185.406 183.085 185.671C183.085 197.967 166.291 207.938 145.562 207.938V154.504C166.281 154.504 183.085 164.474 183.085 176.761C183.085 177.055 183.076 177.349 183.046 177.624V184.847Z" fill="#E5B82A"/>
</g>
</g>
<path d="M183.087 176.77C183.087 177.065 183.077 177.359 183.048 177.634C182.283 189.538 165.802 199.037 145.564 199.037C125.326 199.037 108.031 189.067 108.031 176.77C108.031 164.474 124.836 154.514 145.564 154.514C166.292 154.514 183.087 164.484 183.087 176.77Z" fill="#FCDA57"/>
<path d="M122.912 178.674L148.732 163.649L149.654 164.022C152.793 165.298 156.001 166.79 159.209 168.458C163.937 170.921 166.802 173.227 167.704 175.327C168.626 177.28 167.832 179.125 165.468 180.499C163.054 181.902 160.053 182.501 156.55 182.285C152.107 182.04 146.917 180.479 141.963 177.898C141.041 177.418 140.109 176.917 139.285 176.407L129.504 182.099L122.902 178.664L122.912 178.674ZM143.385 174.032C144.072 174.483 144.975 175.004 146.132 175.602C149.144 177.172 154.775 179.449 158.728 177.153C162.113 175.18 158.728 172.638 155.305 170.852C153.813 170.077 152.597 169.518 151.763 169.165L143.385 174.042V174.032Z" fill="#E6B829"/>
<path d="M167.814 174.219C167.814 186.515 151.009 196.485 130.291 196.485C109.572 196.485 92.7578 186.515 92.7578 174.219V165.308H95.8872C101.695 157.457 114.899 151.962 130.291 151.962C145.682 151.962 158.877 157.448 164.674 165.308H167.765V173.394C167.784 173.679 167.804 173.954 167.804 174.219" fill="#EFC439"/>
<g style="mix-blend-mode:multiply" opacity="0.6">
<mask id="mask2_98_7901" style="mask-type:luminance" maskUnits="userSpaceOnUse" x="130" y="143" width="38" height="54">
<path d="M167.824 143.051H130.301V196.485H167.824V143.051Z" fill="white"/>
</mask>
<g mask="url(#mask2_98_7901)">
<path d="M167.775 173.394C167.794 173.678 167.814 173.953 167.814 174.218C167.814 186.514 151.01 196.485 130.291 196.485V143.051C151.01 143.051 167.814 153.021 167.814 165.308C167.814 165.602 167.804 165.896 167.775 166.171V173.394Z" fill="#E5B82A"/>
</g>
</g>
<path d="M167.814 165.308C167.814 165.602 167.804 165.896 167.774 166.171C167.009 178.075 150.528 187.574 130.291 187.574C110.053 187.574 92.7578 177.604 92.7578 165.308C92.7578 153.011 109.562 143.051 130.291 143.051C151.019 143.051 167.814 153.021 167.814 165.308Z" fill="#FCDA57"/>
<path d="M107.639 167.212L133.458 152.188L134.39 152.56C137.52 153.836 140.737 155.328 143.945 156.996C148.674 159.459 151.538 161.765 152.441 163.865C153.363 165.818 152.568 167.663 150.204 169.037C147.791 170.44 144.789 171.039 141.287 170.823C136.843 170.578 131.653 169.017 126.69 166.437C125.767 165.956 124.836 165.455 124.011 164.945L114.231 170.637L107.629 167.202L107.639 167.212ZM128.112 162.58C128.799 163.031 129.701 163.551 130.859 164.15C133.87 165.72 139.511 167.997 143.455 165.701C146.849 163.728 143.455 161.186 140.031 159.4C138.54 158.625 137.324 158.056 136.49 157.712L128.112 162.59V162.58Z" fill="#E6B829"/>
<path d="M175.454 158.939C175.454 171.236 158.65 181.206 137.931 181.206C117.213 181.206 100.398 171.236 100.398 158.939V150.029H103.528C109.335 142.168 122.539 136.683 137.931 136.683C153.323 136.683 166.517 142.168 172.315 150.029H175.405V158.115C175.425 158.4 175.444 158.674 175.444 158.939" fill="#EFC439"/>
<g style="mix-blend-mode:multiply" opacity="0.6">
<mask id="mask3_98_7901" style="mask-type:luminance" maskUnits="userSpaceOnUse" x="137" y="127" width="39" height="55">
<path d="M175.453 127.771H137.93V181.205H175.453V127.771Z" fill="white"/>
</mask>
<g mask="url(#mask3_98_7901)">
<path d="M175.413 158.114C175.433 158.399 175.453 158.674 175.453 158.939C175.453 171.235 158.648 181.205 137.93 181.205V127.771C158.648 127.771 175.453 137.742 175.453 150.028C175.453 150.323 175.443 150.617 175.413 150.892V158.114Z" fill="#E5B82A"/>
</g>
</g>
<path d="M175.454 150.028C175.454 150.323 175.444 150.617 175.415 150.892C174.65 162.795 158.169 172.295 137.931 172.295C117.693 172.295 100.398 162.324 100.398 150.028C100.398 137.732 117.203 127.771 137.931 127.771C158.66 127.771 175.454 137.742 175.454 150.028Z" fill="#FCDA57"/>
<path d="M115.27 151.933L141.089 136.908L142.021 137.281C145.151 138.557 148.368 140.048 151.576 141.717C156.304 144.18 159.169 146.486 160.081 148.586C161.003 150.539 160.209 152.384 157.845 153.758C155.422 155.161 152.43 155.76 148.927 155.544C144.484 155.298 139.294 153.748 134.33 151.157C133.418 150.676 132.476 150.176 131.652 149.666L121.872 155.357L115.27 151.923V151.933ZM135.753 147.301C136.439 147.752 137.342 148.272 138.499 148.871C141.511 150.441 147.152 152.718 151.095 150.421C154.49 148.449 151.095 145.907 147.672 144.121C146.181 143.346 144.964 142.786 144.13 142.433L135.753 147.31V147.301Z" fill="#E6B829"/>
<path d="M198.183 139.018C200.311 151.128 185.498 163.866 165.094 167.457C144.679 171.059 126.403 164.15 124.265 152.04L122.715 143.267L125.795 142.728C130.151 133.984 142.207 126.29 157.364 123.621C172.5 120.952 186.47 124.063 193.543 130.795L196.584 130.255L197.986 138.213C198.065 138.488 198.124 138.763 198.163 139.018" fill="#EFC439"/>
<g style="mix-blend-mode:multiply" opacity="0.6">
<mask id="mask4_98_7901" style="mask-type:luminance" maskUnits="userSpaceOnUse" x="155" y="113" width="44" height="55">
<path d="M198.391 113.876H155.836V167.457H198.391V113.876Z" fill="white"/>
</mask>
<g mask="url(#mask4_98_7901)">
<path d="M198.009 138.203C198.087 138.478 198.146 138.753 198.185 139.008C200.314 151.118 185.501 163.855 165.097 167.447L155.836 114.818C176.241 111.226 194.516 118.125 196.645 130.225C196.694 130.509 196.734 130.804 196.753 131.088L198.009 138.193V138.203Z" fill="#E5B82A"/>
</g>
</g>
<path d="M196.643 130.235C196.692 130.519 196.731 130.814 196.751 131.098C198.065 142.953 183.478 155.17 163.544 158.684C143.13 162.285 124.854 155.377 122.715 143.267C120.586 131.167 135.399 118.439 155.824 114.837C176.228 111.246 194.504 118.145 196.633 130.244" fill="#FCDA57"/>
<path d="M137.707 142.551L160.535 123.277L161.516 123.483C164.822 124.2 168.245 125.112 171.698 126.192C176.78 127.791 179.998 129.578 181.263 131.481C182.509 133.248 182.048 135.201 179.958 136.967C177.82 138.773 174.975 139.882 171.483 140.274C167.068 140.804 161.683 140.176 156.356 138.488C155.365 138.174 154.364 137.85 153.462 137.487L144.819 144.788L137.717 142.551H137.707ZM157.072 134.435C157.827 134.759 158.808 135.112 160.044 135.505C163.282 136.525 169.226 137.791 172.719 134.847C175.711 132.315 171.944 130.402 168.255 129.234C166.646 128.724 165.361 128.38 164.469 128.184L157.062 134.435H157.072Z" fill="#E6B829"/>
<path d="M172.601 128.763C167.598 139.999 148.193 142.256 129.27 133.817C110.337 125.367 99.0457 109.421 104.049 98.1941L107.678 90.049L110.533 91.3247C119.029 86.5161 133.331 86.8792 147.389 93.15C161.427 99.4109 171.266 109.803 173.366 119.342L176.191 120.598L172.905 127.978C172.816 128.243 172.709 128.508 172.601 128.753" fill="#EFC439"/>
<g style="mix-blend-mode:multiply" opacity="0.6">
<mask id="mask5_98_7901" style="mask-type:luminance" maskUnits="userSpaceOnUse" x="129" y="85" width="49" height="54">
<path d="M177.417 85.0146H129.27V138.92H177.417V85.0146Z" fill="white"/>
</mask>
<g mask="url(#mask5_98_7901)">
<path d="M172.904 127.987C172.816 128.252 172.708 128.517 172.6 128.763C167.597 139.999 148.193 142.256 129.27 133.817L151.018 85.0146C169.942 93.4542 181.233 109.401 176.23 120.627C176.112 120.892 175.984 121.157 175.847 121.403L172.904 127.997V127.987Z" fill="#E5B82A"/>
</g>
</g>
<path d="M176.796 119.819C176.677 120.084 176.547 120.35 176.408 120.596C170.781 131.18 151.571 133.148 132.808 124.885C113.587 116.415 102.124 100.43 107.204 89.176C112.283 77.9224 131.971 75.6599 151.202 84.1198C170.413 92.5797 181.875 108.565 176.796 119.819Z" fill="#FCDA57"/>
<path d="M120.488 97.8506L150.193 94.6416L150.889 95.3678C153.234 97.8113 155.559 100.481 157.815 103.317C161.131 107.487 162.808 110.765 162.779 113.052C162.818 115.21 161.347 116.575 158.629 116.869C155.853 117.163 152.861 116.496 149.761 114.867C145.808 112.836 141.697 109.303 138.215 104.926C137.567 104.121 136.92 103.277 136.38 102.473L125.138 103.69L120.508 97.8604L120.488 97.8506ZM141.079 101.953C141.521 102.64 142.139 103.483 142.943 104.504C145.052 107.163 149.271 111.54 153.822 111.05C157.717 110.628 155.667 106.928 153.263 103.905C152.214 102.59 151.341 101.58 150.713 100.912L141.079 101.953Z" fill="#E6B829"/>
<path d="M150 196.861V305.002L115.158 290.46L95.4807 282.255L64 269.143V161.002L95.4807 174.126L115.158 182.332L150 196.861Z" fill="#F46144"/>
<path d="M235 161.002V269.143L204.727 281.903L185.281 290.109L150 305.002V196.861L185.281 181.968L204.727 173.762L235 161.002Z" fill="#FF7761"/>
<path d="M115 182.255V291.002L96 282.749V174.002L115 182.255Z" fill="white"/>
<path d="M205 174.002V281.821L185 290.002V182.183L205 174.002Z" fill="white"/>
<path d="M105.372 45.8206C100.673 56.3602 82.4757 58.4799 64.7295 50.5605C46.9736 42.6509 36.3886 27.6855 41.0876 17.1557L44.4916 9.52089L47.1698 10.7181C55.1452 6.20397 68.5554 6.54744 81.7301 12.4257C94.8951 18.2941 104.126 28.0486 106.098 36.9886L108.747 38.1662L105.657 45.0944C105.568 45.3397 105.48 45.5851 105.372 45.8206Z" fill="#EFC439"/>
<g style="mix-blend-mode:multiply" opacity="0.6">
<mask id="mask6_98_7901" style="mask-type:luminance" maskUnits="userSpaceOnUse" x="64" y="4" width="46" height="52">
<path d="M109.893 4.79102H64.7383V55.3496H109.893V4.79102Z" fill="white"/>
</mask>
<g mask="url(#mask6_98_7901)">
<path d="M105.656 45.1044C105.567 45.3497 105.479 45.5951 105.371 45.8306C100.672 56.3702 82.4747 58.4899 64.7285 50.5705L85.1332 4.79102C102.879 12.7104 113.474 27.666 108.775 38.186C108.667 38.4411 108.54 38.6865 108.412 38.9122L105.656 45.0946V45.1044Z" fill="#E5B82A"/>
</g>
</g>
<path d="M108.776 38.1855C108.668 38.4406 108.541 38.686 108.413 38.9117C103.214 48.8134 85.4679 50.6583 68.1338 42.9254C50.3778 35.0158 39.7929 20.0602 44.482 9.52059C49.181 -1.00917 67.3686 -3.12886 85.1344 4.79054C102.881 12.7099 113.465 27.6655 108.776 38.1855Z" fill="#FCDA57"/>
<path d="M56.5 16.831L84.3602 13.8281L85.0077 14.5052C87.2051 16.7918 89.3927 19.304 91.5018 21.9536C94.6116 25.8691 96.1812 28.9407 96.1616 31.0899C96.2008 33.1212 94.8176 34.397 92.267 34.6718C89.6576 34.9563 86.8617 34.3185 83.9482 32.7876C80.24 30.8838 76.3847 27.5669 73.118 23.4551C72.5098 22.6994 71.9016 21.9045 71.3915 21.1587L60.8458 22.2971L56.5 16.831ZM75.8158 20.6877C76.2278 21.3354 76.8066 22.1302 77.5619 23.0821C79.5435 25.5747 83.4969 29.6866 87.7643 29.2253C91.4234 28.8328 89.4908 25.3589 87.2345 22.5228C86.2535 21.2863 85.4295 20.3442 84.8409 19.7162L75.8059 20.6877H75.8158Z" fill="#E6B829"/>
<path d="M226.867 50.3145C230.977 61.0896 219.598 75.4466 201.45 82.3847C183.282 89.3325 165.231 86.2217 161.111 75.4466L158.129 67.6351L160.876 66.5851C163.328 57.7629 173.069 48.5285 186.548 43.3765C200.017 38.2244 213.427 38.617 221.138 43.5531L223.846 42.5227L226.553 49.608C226.671 49.8435 226.779 50.0888 226.867 50.3243" fill="#EFC439"/>
<g style="mix-blend-mode:multiply" opacity="0.6">
<mask id="mask7_98_7901" style="mask-type:luminance" maskUnits="userSpaceOnUse" x="183" y="31" width="45" height="52">
<path d="M227.723 31.875H183.578V82.3943H227.723V31.875Z" fill="white"/>
</mask>
<g mask="url(#mask7_98_7901)">
<path d="M226.565 49.6079C226.683 49.8434 226.791 50.0888 226.879 50.3243C230.99 61.0994 219.61 75.4564 201.462 82.3944L183.578 35.5748C201.727 28.6367 219.787 31.7476 223.897 42.5128C223.995 42.768 224.083 43.033 224.152 43.2881L226.565 49.6177V49.6079Z" fill="#E5B82A"/>
</g>
</g>
<path d="M223.885 42.5127C223.983 42.7679 224.071 43.0329 224.14 43.288C227.455 53.9748 216.194 67.8117 198.467 74.5927C180.299 81.5308 162.249 78.4297 158.129 67.6546C154.018 56.8894 165.398 42.5324 183.566 35.5943C201.714 28.6562 219.774 31.7671 223.885 42.5324" fill="#FCDA57"/>
<path d="M171.807 64.3288L189.406 42.5137L190.338 42.5333C193.506 42.602 196.832 42.8277 200.197 43.2202C205.16 43.7894 208.447 44.8591 209.938 46.3998C211.4 47.8031 211.321 49.6873 209.712 51.6794C208.064 53.7206 205.641 55.2514 202.492 56.2328C198.519 57.5085 193.447 57.8814 188.238 57.2828C187.277 57.1749 186.286 57.0473 185.393 56.8707L178.733 65.1335L171.797 64.3288H171.807ZM188.199 53.4065C188.945 53.5734 189.916 53.7206 191.122 53.8579C194.281 54.221 199.991 54.3388 202.679 51.0023C204.984 48.1367 201.178 47.0475 197.568 46.6255C195.998 46.4488 194.752 46.3605 193.899 46.3311L188.189 53.4065H188.199Z" fill="#E6B829"/>
<path d="M88.4321 92.6007C91.0513 99.4602 83.8018 108.606 72.2457 113.022C60.6798 117.448 49.1825 115.466 46.5633 108.606L44.6602 103.631L46.4063 102.964C47.9661 97.3405 54.1758 91.4623 62.7595 88.1847C71.3334 84.907 79.8778 85.1523 84.7926 88.2926L86.5191 87.6351L88.2457 92.1493C88.3242 92.2965 88.383 92.4535 88.4419 92.6007" fill="#EFC439"/>
<g style="mix-blend-mode:multiply" opacity="0.6">
<mask id="mask8_98_7901" style="mask-type:luminance" maskUnits="userSpaceOnUse" x="60" y="80" width="29" height="34">
<path d="M88.9609 80.8535H60.8555V113.022H88.9609V80.8535Z" fill="white"/>
</mask>
<g mask="url(#mask8_98_7901)">
<path d="M88.235 92.1485C88.3135 92.2957 88.3723 92.4527 88.4312 92.5999C91.0504 99.4595 83.8009 108.606 72.2448 113.022L60.8555 83.2085C72.4116 78.7925 83.9088 80.7748 86.5281 87.6246C86.5869 87.7914 86.6458 87.9582 86.6948 88.1152L88.235 92.1387V92.1485Z" fill="#E5B82A"/>
</g>
</g>
<path d="M86.5289 87.6251C86.5878 87.7919 86.6467 87.9588 86.6957 88.1158C88.8048 94.9165 81.6338 103.729 70.3425 108.047C58.7766 112.463 47.2794 110.49 44.6601 103.621C42.0409 96.7712 49.2904 87.6251 60.8563 83.1993C72.4124 78.7832 83.9097 80.7557 86.5289 87.6153" fill="#FCDA57"/>
<path d="M53.3594 101.521L64.5623 87.6348H65.1607C67.1816 87.6936 69.2907 87.8408 71.4391 88.0862C74.5979 88.4493 76.6874 89.1362 77.6488 90.1077C78.5807 91.0008 78.5317 92.198 77.5016 93.4737C76.452 94.7789 74.902 95.7504 72.9106 96.3687C70.3796 97.1832 67.1521 97.4187 63.8364 97.036C63.2184 96.9673 62.5905 96.8888 62.0215 96.771L57.7738 102.031L53.3594 101.521ZM63.7971 94.5728C64.2778 94.6808 64.8959 94.7789 65.661 94.8672C67.6721 95.1027 71.3017 95.1714 73.0185 93.0419C74.49 91.2166 72.0571 90.5199 69.7714 90.2549C68.7708 90.1372 67.9762 90.0881 67.4366 90.0685L63.7971 94.5728Z" fill="#E6B829"/>
<path d="M245.087 188.87C240.663 194.738 229.067 193.433 219.189 185.975C209.31 178.507 204.886 167.712 209.31 161.844L212.518 157.595L214.009 158.723C219.601 157.065 227.871 159.204 235.208 164.749C242.536 170.283 246.863 177.653 246.804 183.492L248.275 184.601L245.362 188.458C245.273 188.605 245.175 188.742 245.077 188.87" fill="#EFC439"/>
<g style="mix-blend-mode:multiply" opacity="0.6">
<mask id="mask9_98_7901" style="mask-type:luminance" maskUnits="userSpaceOnUse" x="219" y="160" width="32" height="33">
<path d="M250.001 160.51H219.188V192.541H250.001V160.51Z" fill="white"/>
</mask>
<g mask="url(#mask9_98_7901)">
<path d="M245.36 188.458C245.272 188.606 245.174 188.743 245.076 188.87C240.651 194.739 229.056 193.434 219.177 185.976L238.395 160.5C248.274 167.958 252.698 178.763 248.274 184.611C248.166 184.749 248.058 184.886 247.94 185.014L245.341 188.458H245.36Z" fill="#E5B82A"/>
</g>
</g>
<path d="M248.282 184.621C248.174 184.758 248.066 184.895 247.949 185.023C243.299 190.42 232.027 189.017 222.384 181.735C212.505 174.267 208.081 163.473 212.505 157.604C216.93 151.746 228.515 153.041 238.404 160.509C248.282 167.967 252.707 178.772 248.282 184.621Z" fill="#FCDA57"/>
<path d="M218.922 163.865L236.639 166.005L236.943 166.515C237.983 168.252 238.973 170.116 239.905 172.069C241.279 174.945 241.808 177.074 241.485 178.399C241.22 179.665 240.18 180.254 238.561 180.057C236.903 179.861 235.255 179.066 233.666 177.692C231.636 175.975 229.723 173.365 228.29 170.352C228.025 169.793 227.761 169.214 227.555 168.674L220.845 167.869L218.932 163.855L218.922 163.865ZM230.35 169.027C230.517 169.488 230.762 170.058 231.096 170.764C231.969 172.589 233.833 175.71 236.541 176.044C238.865 176.328 238.169 173.895 237.178 171.804C236.747 170.892 236.374 170.195 236.099 169.724L230.35 169.027Z" fill="#E6B829"/>
</svg>
