<svg width="200" height="244" viewBox="0 0 200 244" fill="none" xmlns="http://www.w3.org/2000/svg">
<path d="M51.2 129.114L119.595 99.2012L188 129.114L119.595 157.601L51.2 129.114Z" fill="#D34637"/>
<path d="M0 89.3598L68.6376 59.2012L120 100.089L51.3622 128.801L0 89.3598Z" fill="#F46144"/>
<path d="M146.469 158.727C146.469 168.564 133.026 176.54 116.451 176.54C99.8762 176.54 86.4248 168.564 86.4248 158.727V151.599H88.9283C93.5743 145.318 104.138 140.922 116.451 140.922C128.764 140.922 139.32 145.31 143.958 151.599H146.43V158.068C146.454 158.295 146.461 158.515 146.461 158.727" fill="#EFC439"/>
<g style="mix-blend-mode:multiply" opacity="0.6">
<mask id="mask0_98_8118" style="mask-type:luminance" maskUnits="userSpaceOnUse" x="116" y="133" width="31" height="44">
<path d="M146.467 133.792H116.448V176.539H146.467V133.792Z" fill="white"/>
</mask>
<g mask="url(#mask0_98_8118)">
<path d="M146.435 158.066C146.459 158.294 146.467 158.514 146.467 158.726C146.467 168.563 133.031 176.539 116.448 176.539V133.792C133.023 133.792 146.467 141.768 146.467 151.597C146.467 151.833 146.459 152.068 146.435 152.288V158.066Z" fill="#E5B82A"/>
</g>
</g>
<path d="M146.469 151.598C146.469 151.834 146.461 152.069 146.438 152.289C145.826 161.812 132.641 169.412 116.451 169.412C100.261 169.412 86.4248 161.435 86.4248 151.598C86.4248 141.761 99.8683 133.793 116.451 133.793C133.034 133.793 146.469 141.769 146.469 151.598Z" fill="#FCDA57"/>
<path d="M98.3296 153.121L118.985 141.102L119.723 141.4C122.234 142.42 124.801 143.614 127.367 144.948C131.15 146.919 133.441 148.764 134.163 150.444C134.901 152.006 134.265 153.482 132.374 154.581C130.443 155.704 128.042 156.183 125.24 156.01C121.685 155.814 117.534 154.566 113.57 152.501C112.833 152.116 112.087 151.716 111.428 151.307L103.603 155.861L98.3218 153.113L98.3296 153.121ZM114.708 149.415C115.258 149.777 115.98 150.193 116.906 150.672C119.315 151.928 123.82 153.749 126.982 151.912C129.69 150.334 126.982 148.301 124.243 146.872C123.051 146.252 122.077 145.804 121.41 145.522L114.708 149.423V149.415Z" fill="#E6B829"/>
<path d="M146.469 148.545C146.469 158.382 133.026 166.358 116.451 166.358C99.8762 166.358 86.4248 158.382 86.4248 148.545V141.416H88.9283C93.5743 135.136 104.138 130.739 116.451 130.739C128.764 130.739 139.32 135.128 143.958 141.416H146.43V147.885C146.454 148.113 146.461 148.333 146.461 148.545" fill="#EFC439"/>
<g style="mix-blend-mode:multiply" opacity="0.6">
<mask id="mask1_98_8118" style="mask-type:luminance" maskUnits="userSpaceOnUse" x="116" y="123" width="31" height="44">
<path d="M146.467 123.611H116.448V166.358H146.467V123.611Z" fill="white"/>
</mask>
<g mask="url(#mask1_98_8118)">
<path d="M146.435 147.878C146.459 148.106 146.467 148.325 146.467 148.537C146.467 158.374 133.031 166.351 116.448 166.351V123.604C133.023 123.604 146.467 131.58 146.467 141.409C146.467 141.644 146.459 141.88 146.435 142.1V147.878Z" fill="#E5B82A"/>
</g>
</g>
<path d="M146.469 141.416C146.469 141.651 146.461 141.887 146.438 142.107C145.826 151.629 132.641 159.229 116.451 159.229C100.261 159.229 86.4248 151.253 86.4248 141.416C86.4248 131.579 99.8683 123.61 116.451 123.61C133.034 123.61 146.469 131.587 146.469 141.416Z" fill="#FCDA57"/>
<path d="M98.3296 142.938L118.985 130.919L119.723 131.217C122.234 132.238 124.801 133.431 127.367 134.766C131.15 136.736 133.441 138.581 134.163 140.261C134.901 141.824 134.265 143.299 132.374 144.399C130.443 145.521 128.042 146 125.24 145.827C121.685 145.631 117.534 144.383 113.57 142.318C112.833 141.933 112.087 141.533 111.428 141.125L103.603 145.678L98.3218 142.931L98.3296 142.938ZM114.708 139.225C115.258 139.586 115.98 140.002 116.906 140.481C119.315 141.737 123.82 143.559 126.982 141.722C129.69 140.144 126.982 138.11 124.243 136.681C123.051 136.061 122.077 135.614 121.41 135.331L114.708 139.233V139.225Z" fill="#E6B829"/>
<path d="M134.251 139.375C134.251 149.212 120.807 157.188 104.232 157.188C87.6574 157.188 74.2061 149.212 74.2061 139.375V132.246H76.7095C81.3555 125.966 91.9188 121.569 104.232 121.569C116.546 121.569 127.101 125.958 131.739 132.246H134.211V138.715C134.227 138.943 134.243 139.163 134.243 139.375" fill="#EFC439"/>
<g style="mix-blend-mode:multiply" opacity="0.6">
<mask id="mask2_98_8118" style="mask-type:luminance" maskUnits="userSpaceOnUse" x="104" y="114" width="31" height="44">
<path d="M134.259 114.44H104.24V157.187H134.259V114.44Z" fill="white"/>
</mask>
<g mask="url(#mask2_98_8118)">
<path d="M134.22 138.715C134.236 138.942 134.251 139.162 134.251 139.374C134.251 149.211 120.808 157.187 104.233 157.187V114.44C120.808 114.44 134.251 122.417 134.251 132.246C134.251 132.481 134.243 132.717 134.22 132.937V138.715Z" fill="#E5B82A"/>
</g>
</g>
<path d="M134.251 132.246C134.251 132.481 134.243 132.717 134.219 132.937C133.607 142.46 120.423 150.059 104.232 150.059C88.042 150.059 74.2061 142.083 74.2061 132.246C74.2061 122.409 87.6496 114.44 104.232 114.44C120.815 114.44 134.251 122.417 134.251 132.246Z" fill="#FCDA57"/>
<path d="M86.1109 133.769L106.767 121.75L107.512 122.048C110.016 123.069 112.59 124.262 115.156 125.597C118.939 127.567 121.23 129.412 121.952 131.092C122.69 132.655 122.054 134.131 120.163 135.23C118.232 136.352 115.831 136.831 113.029 136.658C109.474 136.462 105.323 135.214 101.352 133.149C100.614 132.765 99.8683 132.364 99.2091 131.956L91.3847 136.509L86.103 133.762L86.1109 133.769ZM102.49 130.064C103.039 130.425 103.761 130.841 104.687 131.32C107.096 132.576 111.609 134.397 114.764 132.56C117.479 130.982 114.764 128.949 112.025 127.52C110.832 126.9 109.859 126.445 109.192 126.17L102.49 130.072V130.064Z" fill="#E6B829"/>
<path d="M140.363 127.151C140.363 136.988 126.92 144.964 110.345 144.964C93.77 144.964 80.3186 136.988 80.3186 127.151V120.023H82.8221C87.4681 113.734 98.0314 109.346 110.345 109.346C122.658 109.346 133.214 113.734 137.852 120.023H140.324V126.492C140.34 126.719 140.355 126.939 140.355 127.151" fill="#EFC439"/>
<g style="mix-blend-mode:multiply" opacity="0.6">
<mask id="mask3_98_8118" style="mask-type:luminance" maskUnits="userSpaceOnUse" x="110" y="102" width="31" height="43">
<path d="M140.362 102.217H110.344V144.964H140.362V102.217Z" fill="white"/>
</mask>
<g mask="url(#mask3_98_8118)">
<path d="M140.33 126.491C140.346 126.719 140.362 126.939 140.362 127.151C140.362 136.988 126.918 144.964 110.344 144.964V102.217C126.918 102.217 140.362 110.193 140.362 120.022C140.362 120.258 140.354 120.493 140.33 120.713V126.491Z" fill="#E5B82A"/>
</g>
</g>
<path d="M140.363 120.022C140.363 120.258 140.355 120.493 140.332 120.713C139.72 130.236 126.535 137.835 110.345 137.835C94.1545 137.835 80.3186 129.859 80.3186 120.022C80.3186 110.185 93.7621 102.217 110.345 102.217C126.927 102.217 140.363 110.193 140.363 120.022Z" fill="#FCDA57"/>
<path d="M92.2153 121.546L112.871 109.526L113.617 109.825C116.12 110.845 118.694 112.039 121.261 113.373C125.043 115.344 127.335 117.189 128.065 118.869C128.802 120.431 128.167 121.907 126.275 123.006C124.337 124.129 121.943 124.608 119.142 124.435C115.586 124.239 111.435 122.998 107.464 120.926C106.734 120.541 105.981 120.141 105.321 119.732L97.497 124.286L92.2153 121.538V121.546ZM108.602 117.84C109.151 118.201 109.873 118.617 110.799 119.096C113.209 120.352 117.721 122.174 120.876 120.337C123.591 118.759 120.876 116.725 118.137 115.297C116.944 114.676 115.971 114.229 115.304 113.946L108.602 117.848V117.84Z" fill="#E6B829"/>
<path d="M158.546 111.214C160.249 120.902 148.398 131.092 132.075 133.965C115.743 136.846 101.122 131.319 99.4116 121.632L98.1716 114.613L100.636 114.181C104.12 107.186 113.765 101.032 125.891 98.8961C138 96.7608 149.175 99.2494 154.834 104.635L157.267 104.203L158.389 110.57C158.452 110.79 158.499 111.01 158.53 111.214" fill="#EFC439"/>
<g style="mix-blend-mode:multiply" opacity="0.6">
<mask id="mask4_98_8118" style="mask-type:luminance" maskUnits="userSpaceOnUse" x="124" y="91" width="35" height="43">
<path d="M158.712 91.1006H124.667V133.965H158.712V91.1006Z" fill="white"/>
</mask>
<g mask="url(#mask4_98_8118)">
<path d="M158.405 110.563C158.468 110.782 158.515 111.002 158.547 111.206C160.25 120.894 148.399 131.084 132.076 133.958L124.667 91.8543C140.991 88.981 155.612 94.5 157.315 104.18C157.354 104.408 157.385 104.643 157.401 104.871L158.405 110.555V110.563Z" fill="#E5B82A"/>
</g>
</g>
<path d="M157.314 104.188C157.353 104.415 157.385 104.651 157.4 104.879C158.452 114.362 146.782 124.136 130.835 126.947C114.504 129.828 99.8829 124.301 98.1721 114.613C96.4691 104.933 108.319 94.7511 124.659 91.8699C140.983 88.9966 155.603 94.5156 157.306 104.196" fill="#FCDA57"/>
<path d="M110.166 114.041L128.428 98.6221L129.212 98.7869C131.857 99.36 134.596 100.09 137.359 100.954C141.424 102.233 143.998 103.662 145.01 105.185C146.007 106.598 145.638 108.161 143.967 109.574C142.256 111.018 139.98 111.905 137.186 112.219C133.654 112.643 129.346 112.141 125.084 110.791C124.292 110.539 123.491 110.28 122.769 109.99L115.855 115.831L110.173 114.041H110.166ZM125.657 107.548C126.262 107.807 127.046 108.09 128.035 108.404C130.625 109.221 135.381 110.233 138.175 107.878C140.568 105.853 137.555 104.322 134.604 103.387C133.317 102.979 132.289 102.704 131.575 102.547L125.649 107.548H125.657Z" fill="#E6B829"/>
<path d="M138.08 103.01C134.078 111.999 118.555 113.805 103.416 107.053C88.2695 100.294 79.2365 87.5364 83.2389 78.5552L86.1427 72.0392L88.4264 73.0598C95.2227 69.2129 106.665 69.5034 117.911 74.52C129.141 79.5287 137.013 87.8426 138.692 95.4735L140.953 96.4784L138.324 102.382C138.253 102.594 138.167 102.806 138.08 103.002" fill="#EFC439"/>
<g style="mix-blend-mode:multiply" opacity="0.6">
<mask id="mask5_98_8118" style="mask-type:luminance" maskUnits="userSpaceOnUse" x="103" y="68" width="39" height="44">
<path d="M141.934 68.0107H103.417V111.135H141.934V68.0107Z" fill="white"/>
</mask>
<g mask="url(#mask5_98_8118)">
<path d="M138.324 102.389C138.253 102.601 138.167 102.813 138.081 103.009C134.078 111.998 118.555 113.804 103.417 107.052L120.815 68.0107C135.954 74.7623 144.987 87.5197 140.985 96.5009C140.89 96.7129 140.788 96.9248 140.678 97.1211L138.324 102.397V102.389Z" fill="#E5B82A"/>
</g>
</g>
<path d="M141.437 95.8544C141.341 96.0669 141.238 96.2794 141.126 96.4761C136.625 104.944 121.256 106.518 106.246 99.9073C90.8695 93.1315 81.6994 80.3433 85.7626 71.3404C89.8258 62.3375 105.577 60.5275 120.961 67.2954C136.33 74.0633 145.5 86.8515 141.437 95.8544Z" fill="#FCDA57"/>
<path d="M96.3904 78.2801L120.154 75.7129L120.711 76.2938C122.587 78.2487 124.447 80.384 126.252 82.6529C128.904 85.9894 130.246 88.6116 130.223 90.4408C130.254 92.1679 129.077 93.2592 126.903 93.4947C124.682 93.7302 122.289 93.1964 119.809 91.8932C116.646 90.2681 113.358 87.4418 110.572 83.9404C110.054 83.2967 109.536 82.6215 109.104 81.9777L100.11 82.9512L96.4061 78.2879L96.3904 78.2801ZM112.863 81.5617C113.216 82.1112 113.711 82.7864 114.354 83.6028C116.042 85.7304 119.416 89.2318 123.058 88.8392C126.173 88.5017 124.533 85.542 122.61 83.1239C121.771 82.0719 121.072 81.2633 120.57 80.7295L112.863 81.5617Z" fill="#E6B829"/>
<path d="M120 157.489V244.002L92.126 232.368L76.3844 225.804L51.2 215.315V128.802L76.3844 139.301L92.126 145.865L120 157.489Z" fill="#F46144"/>
<path d="M188 128.802V215.315L163.781 225.523L148.225 232.087L120 244.002V157.489L148.225 145.574L163.781 139.01L188 128.802Z" fill="#FF7761"/>
<path d="M91.9998 145.803V232.801L76.7998 226.199V139.201L91.9998 145.803Z" fill="white"/>
<path d="M164 139.201V225.456L148 232.001V145.746L164 139.201Z" fill="white"/>
<path d="M84.2975 36.6564C80.5383 45.0881 65.9804 46.7838 51.7835 40.4483C37.5787 34.1206 29.1108 22.1483 32.87 13.7245L35.5932 7.61671L37.7357 8.57449C44.1161 4.96318 54.8442 5.23795 65.384 9.94051C75.9159 14.6352 83.3008 22.4388 84.8782 29.5908L86.9972 30.5329L84.5251 36.0755C84.4544 36.2717 84.3838 36.468 84.2975 36.6564Z" fill="#EFC439"/>
<g style="mix-blend-mode:multiply" opacity="0.6">
<mask id="mask6_98_8118" style="mask-type:luminance" maskUnits="userSpaceOnUse" x="51" y="3" width="37" height="42">
<path d="M87.916 3.83203H51.792V44.2788H87.916V3.83203Z" fill="white"/>
</mask>
<g mask="url(#mask6_98_8118)">
<path d="M84.5257 36.0827C84.4551 36.2789 84.3845 36.4752 84.2982 36.6636C80.539 45.0953 65.9811 46.791 51.7842 40.4555L68.1079 3.83203C82.3048 10.1675 90.7805 22.132 87.0214 30.5479C86.9351 30.7521 86.833 30.9483 86.731 31.1289L84.5257 36.0748V36.0827Z" fill="#E5B82A"/>
</g>
</g>
<path d="M87.0209 30.5483C86.9345 30.7525 86.8325 30.9487 86.7305 31.1293C82.5711 39.0506 68.3742 40.5266 54.5069 34.3402C40.3021 28.0126 31.8342 16.0481 35.5855 7.61646C39.3447 -0.807332 53.8947 -2.50308 68.1073 3.83243C82.3043 10.1679 90.7722 22.1324 87.0209 30.5483Z" fill="#FCDA57"/>
<path d="M45.2 13.4648L67.4881 11.0625L68.006 11.6042C69.764 13.4334 71.5141 15.4432 73.2014 17.5629C75.6892 20.6953 76.9448 23.1526 76.9291 24.8719C76.9605 26.497 75.854 27.5176 73.8135 27.7374C71.726 27.965 69.4893 27.4547 67.1585 26.23C64.1919 24.707 61.1077 22.0535 58.4943 18.764C58.0078 18.1595 57.5212 17.5236 57.1131 16.927L48.6766 17.8376L45.2 13.4648ZM60.6525 16.5501C60.9821 17.0683 61.4452 17.7042 62.0495 18.4657C63.6347 20.4598 66.7975 23.7492 70.2113 23.3802C73.1386 23.0662 71.5925 20.2871 69.7875 18.0182C69.0027 17.029 68.3435 16.2754 67.8726 15.7729L60.6447 16.5501H60.6525Z" fill="#E6B829"/>
<path d="M181.493 40.2518C184.782 48.8719 175.678 60.3574 161.159 65.9079C146.625 71.4661 132.185 68.9775 128.889 60.3574L126.503 54.1083L128.7 53.2682C130.662 46.2105 138.455 38.823 149.238 34.7014C160.014 30.5797 170.742 30.8938 176.91 34.8427L179.076 34.0183L181.242 39.6865C181.336 39.875 181.423 40.0712 181.493 40.2596" fill="#EFC439"/>
<g style="mix-blend-mode:multiply" opacity="0.6">
<mask id="mask7_98_8118" style="mask-type:luminance" maskUnits="userSpaceOnUse" x="146" y="25" width="37" height="41">
<path d="M182.178 25.5H146.862V65.9154H182.178V25.5Z" fill="white"/>
</mask>
<g mask="url(#mask7_98_8118)">
<path d="M181.252 39.6857C181.346 39.8741 181.432 40.0704 181.503 40.2588C184.791 48.8789 175.688 60.3644 161.169 65.9149L146.862 28.4592C161.381 22.9088 175.829 25.3975 179.117 34.0097C179.196 34.2138 179.266 34.4258 179.321 34.6299L181.252 39.6936V39.6857Z" fill="#E5B82A"/>
</g>
</g>
<path d="M179.107 34.0106C179.186 34.2147 179.257 34.4267 179.311 34.6308C181.964 43.1802 172.955 54.2497 158.773 59.6745C144.239 65.2249 129.799 62.7441 126.503 54.124C123.214 45.5118 132.318 34.0263 146.852 28.4758C161.371 22.9254 175.819 25.4141 179.107 34.0263" fill="#FCDA57"/>
<path d="M137.445 51.4628L151.524 34.0107L152.27 34.0264C154.805 34.0814 157.465 34.262 160.157 34.576C164.128 35.0313 166.757 35.8871 167.95 37.1196C169.119 38.2423 169.057 39.7496 167.77 41.3433C166.451 42.9762 164.513 44.2009 161.993 44.986C158.815 46.0066 154.758 46.3049 150.59 45.826C149.821 45.7397 149.029 45.6376 148.314 45.4963L142.986 52.1066L137.437 51.4628H137.445ZM150.559 42.725C151.155 42.8585 151.932 42.9762 152.898 43.0861C155.425 43.3766 159.992 43.4708 162.143 40.8016C163.987 38.5092 160.942 37.6378 158.054 37.3002C156.798 37.1589 155.801 37.0882 155.119 37.0647L150.551 42.725H150.559Z" fill="#E6B829"/>
<path d="M70.7455 74.0805C72.8409 79.5682 67.0413 86.885 57.7964 90.4178C48.5437 93.9585 39.3459 92.3726 37.2505 86.885L35.728 82.9047L37.125 82.3709C38.3728 77.8724 43.3405 73.1699 50.2075 70.5477C57.0665 67.9256 63.9021 68.1219 67.8339 70.6341L69.2151 70.1081L70.5964 73.7194C70.6592 73.8372 70.7063 73.9628 70.7533 74.0805" fill="#EFC439"/>
<g style="mix-blend-mode:multiply" opacity="0.6">
<mask id="mask8_98_8118" style="mask-type:luminance" maskUnits="userSpaceOnUse" x="48" y="64" width="24" height="27">
<path d="M71.1677 64.6826H48.6833V90.4172H71.1677V64.6826Z" fill="white"/>
</mask>
<g mask="url(#mask8_98_8118)">
<path d="M70.5869 73.718C70.6497 73.8358 70.6968 73.9614 70.7439 74.0792C72.8393 79.5668 67.0397 86.8836 57.7948 90.4164L48.6833 66.566C57.9282 63.0332 67.126 64.6191 69.2214 70.0989C69.2685 70.2323 69.3156 70.3658 69.3548 70.4914L70.5869 73.7102V73.718Z" fill="#E5B82A"/>
</g>
</g>
<path d="M69.2231 70.0999C69.2702 70.2333 69.3173 70.3668 69.3565 70.4924C71.0438 75.9329 65.307 82.9829 56.274 86.4372C47.0213 89.97 37.8236 88.392 35.7282 82.8965C33.6328 77.4167 39.4324 70.0999 48.6851 66.5592C57.93 63.0264 67.1277 64.6044 69.2231 70.092" fill="#FCDA57"/>
<path d="M42.6875 81.2161L51.6498 70.1074H52.1286C53.7452 70.1545 55.4325 70.2723 57.1512 70.4686C59.6783 70.759 61.3499 71.3086 62.119 72.0858C62.8645 72.8002 62.8253 73.758 62.0013 74.7786C61.1615 75.8227 59.9216 76.5999 58.3284 77.0945C56.3037 77.7461 53.7217 77.9346 51.0691 77.6284C50.5747 77.5734 50.0724 77.5106 49.6172 77.4164L46.2191 81.6244L42.6875 81.2161ZM51.0377 75.6579C51.4222 75.7442 51.9167 75.8227 52.5288 75.8934C54.1376 76.0818 57.0414 76.1367 58.4148 74.4331C59.5919 72.9729 57.6457 72.4155 55.8171 72.2036C55.0166 72.1093 54.3809 72.0701 53.9493 72.0544L51.0377 75.6579Z" fill="#E6B829"/>
<path d="M196.069 151.095C192.53 155.79 183.254 154.746 175.351 148.779C167.448 142.805 163.908 134.169 167.448 129.475L170.014 126.075L171.207 126.978C175.68 125.651 182.296 127.363 188.166 131.798C194.029 136.226 197.49 142.122 197.443 146.793L198.62 147.68L196.289 150.766C196.218 150.883 196.14 150.993 196.061 151.095" fill="#EFC439"/>
<g style="mix-blend-mode:multiply" opacity="0.6">
<mask id="mask9_98_8118" style="mask-type:luminance" maskUnits="userSpaceOnUse" x="175" y="128" width="26" height="27">
<path d="M200 128.408H175.35V154.033H200V128.408Z" fill="white"/>
</mask>
<g mask="url(#mask9_98_8118)">
<path d="M196.288 150.767C196.218 150.885 196.139 150.995 196.061 151.097C192.521 155.791 183.245 154.747 175.342 148.781L190.716 128.4C198.619 134.367 202.158 143.011 198.619 147.69C198.533 147.799 198.446 147.909 198.352 148.011L196.272 150.767H196.288Z" fill="#E5B82A"/>
</g>
</g>
<path d="M198.625 147.696C198.539 147.806 198.453 147.916 198.359 148.018C194.639 152.336 185.621 151.213 177.907 145.388C170.004 139.414 166.465 130.778 170.004 126.083C173.543 121.397 182.812 122.433 190.722 128.407C198.625 134.374 202.165 143.017 198.625 147.696Z" fill="#FCDA57"/>
<path d="M175.137 131.092L189.311 132.803L189.554 133.212C190.386 134.601 191.178 136.093 191.924 137.655C193.023 139.955 193.446 141.659 193.187 142.719C192.976 143.731 192.144 144.202 190.849 144.045C189.522 143.888 188.204 143.253 186.933 142.153C185.308 140.78 183.778 138.691 182.632 136.281C182.42 135.834 182.208 135.37 182.043 134.939L176.675 134.295L175.145 131.084L175.137 131.092ZM184.28 135.221C184.413 135.59 184.61 136.046 184.876 136.611C185.575 138.071 187.066 140.568 189.232 140.835C191.092 141.062 190.535 139.115 189.742 137.443C189.397 136.713 189.099 136.156 188.879 135.779L184.28 135.221Z" fill="#E6B829"/>
</svg>
