<svg width="160" height="130" viewBox="0 0 160 130" fill="none" xmlns="http://www.w3.org/2000/svg">
<path d="M85.954 118.688H34.4056L26.8125 22.9082H92.8568L85.954 118.688Z" fill="#EEEEEE"/>
<path d="M86.642 8H33.0229C31.4979 8 30.2617 9.25767 30.2617 10.8091V20.0995C30.2617 21.651 31.4979 22.9086 33.0229 22.9086H86.642C88.167 22.9086 89.4032 21.651 89.4032 20.0995V10.8091C89.4032 9.25767 88.167 8 86.642 8Z" fill="#C8C8C8"/>
<path d="M94.595 30.0994H25.0633C23.7187 30.0994 22.7336 28.8119 23.0644 27.4878L25.466 17.8316C25.6961 16.9025 26.523 16.2441 27.465 16.2441H92.1862C93.1282 16.2441 93.9551 16.8952 94.1852 17.8316L96.5868 27.4878C96.9175 28.8119 95.9324 30.0994 94.5878 30.0994H94.595Z" fill="#D8D8D8"/>
<path d="M89.9913 89.3102H30.0158L26.2695 42.0459H93.3924L89.9913 89.3102Z" fill="#F46144"/>
<path d="M27.3711 56.5518L28.8164 74.7962H90.985L92.3009 56.5518H27.3711Z" fill="#F8DEB8"/>
<path d="M65.6653 80.455C73.6895 77.1816 77.586 67.9101 74.3685 59.7465C71.1509 51.583 62.0376 47.6188 54.0135 50.8922C45.9893 54.1657 42.0927 63.4372 45.3103 71.6007C48.5279 79.7643 57.6411 83.7285 65.6653 80.455Z" fill="white"/>
<path d="M69.503 65.4622C69.8769 62.9311 69.1147 60.1659 67.2452 58.4614C63.2833 54.8476 58.5232 55.4109 55.1149 58.0956C52.3035 60.3122 50.4196 63.9699 50.6568 67.9348C50.8869 71.8192 53.2094 74.9282 57.2433 75.3818C60.4071 75.7402 63.5709 74.2698 65.8862 72.046C67.7198 70.2903 69.1291 67.9933 69.503 65.4622Z" fill="#D8442B"/>
<path d="M57.7532 65.6811C58.9037 62.6965 61.3556 60.4361 64.3756 59.8581C65.145 59.7118 65.9144 59.6826 66.6837 59.6387C67.1943 59.6094 67.7048 59.5655 68.2081 59.5655C67.9277 59.1632 67.6041 58.7828 67.2374 58.4536C63.2755 54.8398 58.5154 55.4031 55.1071 58.0878C52.2956 60.3044 50.4117 63.962 50.649 67.9269C50.7785 70.1142 51.5766 72.0528 52.9644 73.4134C55.2293 71.4529 56.7034 68.3878 57.746 65.6811H57.7532Z" fill="#F46144"/>
<path d="M69.5094 65.462C69.7898 63.56 69.4303 61.519 68.438 59.9023C67.9922 60.1511 67.5536 60.3998 67.0934 60.6266C66.4031 60.9631 65.7128 61.3215 65.0441 61.7092C63.908 62.3749 62.7144 63.1577 61.8947 64.255C60.9887 65.4693 60.4278 66.8738 59.7807 68.2345C59.1336 69.5878 58.3642 70.9558 57.1921 71.8922C56.3293 72.5798 55.1069 73.2382 54.0571 73.4211C53.7479 73.4723 53.4459 73.5162 53.1367 73.5674C54.1937 74.5403 55.5671 75.1914 57.2425 75.3743C60.4063 75.7327 63.5701 74.2623 65.8854 72.0385C67.719 70.2828 69.1283 67.9858 69.5022 65.4547L69.5094 65.462Z" fill="#F46144"/>
<path d="M125.19 82.3754C123.35 79.837 120.322 78.1033 117.223 78.2788C110.68 78.6446 107.013 83.3483 106.344 88.7105C105.798 93.1289 107.286 97.9863 110.881 101.227C114.405 104.402 119.093 105.053 122.997 101.878C126.053 99.3908 127.556 95.3016 127.671 91.3147C127.765 88.1618 127.024 84.9138 125.19 82.3754Z" fill="#D8442B"/>
<path d="M115.153 92.9744C113.607 89.3533 113.801 85.2128 115.936 82.0379C116.483 81.2333 117.123 80.5164 117.756 79.7995C118.173 79.324 118.582 78.8265 119.021 78.3803C118.431 78.2779 117.827 78.234 117.223 78.2706C110.68 78.6363 107.013 83.3401 106.344 88.7022C105.798 93.1207 107.286 97.978 110.881 101.219C112.866 103.004 115.217 103.991 117.597 103.947C117.892 100.238 116.548 96.2589 115.145 92.9744H115.153Z" fill="#F46144"/>
<path d="M125.188 82.3752C123.808 80.4659 121.744 79.0101 119.494 78.4834C119.314 79.0906 119.156 79.6977 118.94 80.3049C118.624 81.212 118.336 82.1264 118.084 83.0628C117.667 84.6502 117.293 86.3913 117.523 88.0665C117.775 89.9246 118.487 91.651 119.084 93.4067C119.681 95.1623 120.177 97.0351 119.961 98.8858C119.803 100.254 119.299 101.907 118.544 102.997C118.322 103.312 118.099 103.626 117.869 103.933C119.623 103.838 121.377 103.187 122.995 101.87C126.051 99.3833 127.554 95.294 127.669 91.3072C127.763 88.1543 127.022 84.9063 125.188 82.3678V82.3752Z" fill="#F46144"/>
<path d="M136.815 104.27C136.275 101.168 134.312 98.2496 131.458 97.0059C125.432 94.3871 120.097 96.9474 117.163 101.454C114.747 105.163 113.963 110.195 115.775 114.716C117.552 119.149 121.463 121.849 126.353 120.759C130.178 119.903 133.306 116.918 135.139 113.4C136.592 110.612 137.347 107.372 136.808 104.27H136.815Z" fill="#E85642"/>
<path d="M123.197 109.251C123.384 105.308 125.362 101.687 128.669 99.7999C129.51 99.3244 130.395 98.9733 131.279 98.6148C131.862 98.3807 132.444 98.1174 133.034 97.9199C132.552 97.5614 132.027 97.2542 131.473 97.0128C125.448 94.3939 120.113 96.9543 117.179 101.461C114.763 105.169 113.979 110.202 115.791 114.723C116.791 117.218 118.473 119.164 120.616 120.195C122.5 116.998 123.025 112.829 123.197 109.251Z" fill="#FF7761"/>
<path d="M136.82 104.27C136.41 101.936 135.202 99.7052 133.412 98.2129C132.988 98.6811 132.578 99.1493 132.125 99.6028C131.449 100.276 130.787 100.963 130.162 101.688C129.09 102.924 128.005 104.314 127.48 105.916C126.897 107.694 126.782 109.566 126.552 111.402C126.322 113.246 125.955 115.148 124.949 116.713C124.208 117.869 123.043 119.12 121.893 119.757C121.555 119.939 121.217 120.115 120.879 120.291C122.49 121 124.345 121.205 126.372 120.751C130.198 119.896 133.326 116.911 135.159 113.392C136.612 110.605 137.367 107.364 136.827 104.263L136.82 104.27Z" fill="#FF7761"/>
<path d="M99.475 96.8083C96.7642 95.2794 93.2984 94.9868 90.5589 96.4572C84.7562 99.5589 83.3469 105.389 84.9359 110.546C86.2446 114.797 89.5882 118.586 94.1829 120.005C98.6841 121.395 103.214 120.005 105.465 115.47C107.226 111.914 106.917 107.562 105.393 103.89C104.185 100.985 102.193 98.3445 99.4822 96.8156L99.475 96.8083Z" fill="#D34637"/>
<path d="M94.6823 110.707C91.7917 108.073 90.2745 104.226 90.9217 100.429C91.0871 99.4633 91.3819 98.5416 91.6623 97.6272C91.8493 97.02 92.0146 96.3982 92.2375 95.8057C91.6551 95.9593 91.0943 96.1787 90.555 96.464C84.7523 99.5657 83.3429 105.396 84.932 110.553C86.2407 114.804 89.5843 118.593 94.179 120.012C96.7172 120.795 99.2626 120.7 101.398 119.654C100.147 116.157 97.2996 113.106 94.6823 110.714V110.707Z" fill="#EA5242"/>
<path d="M99.4732 96.8083C97.4312 95.6598 94.972 95.2063 92.707 95.6818C92.7933 96.3109 92.894 96.9327 92.9515 97.5764C93.0378 98.5347 93.1457 99.4931 93.3038 100.444C93.5699 102.068 93.951 103.809 94.8354 105.228C95.8205 106.808 97.1795 108.081 98.4378 109.42C99.6962 110.759 100.919 112.251 101.472 114.036C101.882 115.345 102.105 117.057 101.868 118.374C101.796 118.754 101.717 119.135 101.638 119.515C103.191 118.688 104.521 117.357 105.456 115.47C107.217 111.914 106.908 107.562 105.384 103.89C104.176 100.985 102.184 98.3445 99.4732 96.8156V96.8083Z" fill="#EA5242"/>
</svg>
