<svg width="160" height="130" viewBox="0 0 160 130" fill="none" xmlns="http://www.w3.org/2000/svg">
<path d="M142.637 34.5254H31.3594V112.444H142.637V34.5254Z" fill="#EEEEEE"/>
<path d="M95.1242 62.1719H40.9453V98.688H95.1242V62.1719Z" fill="white"/>
<path d="M131.455 62.1719H109.227V112.444H131.455V62.1719Z" fill="white"/>
<path d="M133.499 35.1962H148.994L141.164 10H127.621L133.499 35.1962Z" fill="#F46144"/>
<path d="M142.78 44.3145H139.717C136.287 44.3145 133.501 41.5165 133.501 38.0701V35.2043H148.996V38.0701C148.996 41.5165 146.211 44.3145 142.78 44.3145Z" fill="#F46144"/>
<path d="M117.997 35.1962H133.499L127.621 10H114.086L117.997 35.1962Z" fill="#FFE7BF"/>
<path d="M127.284 44.3145H124.221C120.79 44.3145 118.005 41.5165 118.005 38.0701V35.2043H133.5V38.0701C133.5 41.5165 130.715 44.3145 127.284 44.3145Z" fill="#FFE7BF"/>
<path d="M102.506 35.1962H118.001L114.09 10H100.547L102.506 35.1962Z" fill="#F46144"/>
<path d="M111.784 44.3145H108.721C105.29 44.3145 102.505 41.5165 102.505 38.0701V35.2043H118V38.0701C118 41.5165 115.215 44.3145 111.784 44.3145Z" fill="#F46144"/>
<path d="M87 35.1962H102.502L100.543 10H87V35.1962Z" fill="#FFE7BF"/>
<path d="M96.288 44.3145H93.2251C89.7944 44.3145 87.0092 41.5165 87.0092 38.0701V35.2043H102.504V38.0701C102.504 41.5165 99.7188 44.3145 96.288 44.3145Z" fill="#FFE7BF"/>
<path d="M71.5117 35.1962H87.0064V10H73.4636L71.5117 35.1962Z" fill="#F46144"/>
<path d="M80.7841 44.3145H77.7212C74.2904 44.3145 71.5053 41.5165 71.5053 38.0701V35.2043H87V38.0701C87 41.5165 84.2149 44.3145 80.7841 44.3145Z" fill="#F46144"/>
<path d="M56.0078 35.1962H71.51L73.4619 10H59.9265L56.0078 35.1962Z" fill="#FFE7BF"/>
<path d="M65.2958 44.3145H62.2329C58.8022 44.3145 56.017 41.5165 56.017 38.0701V35.2043H71.5117V38.0701C71.5117 41.5165 68.7266 44.3145 65.2958 44.3145Z" fill="#FFE7BF"/>
<path d="M40.5117 35.1962H56.0064L59.9251 10H46.3823L40.5117 35.1962Z" fill="#F46144"/>
<path d="M49.7919 44.3145H46.729C43.2983 44.3145 40.5131 41.5165 40.5131 38.0701V35.2043H56.0078V38.0701C56.0078 41.5165 53.2227 44.3145 49.7919 44.3145Z" fill="#F46144"/>
<path d="M25.0078 35.1962H40.51L46.3806 10H32.8377L25.0078 35.1962Z" fill="#FFE7BF"/>
<path d="M34.2958 44.3145H31.2329C27.8022 44.3145 25.017 41.5165 25.017 38.0701V35.2043H40.5117V38.0701C40.5117 41.5165 37.7266 44.3145 34.2958 44.3145Z" fill="#FFE7BF"/>
<path d="M15.3745 87.1348H56.6296C59.0418 87.1348 61.0041 89.1061 61.0041 91.5293V115.606C61.0041 118.029 59.0418 120 56.6296 120H15.3745C12.9623 120 11 118.029 11 115.606V91.5293C11 89.1061 12.9623 87.1348 15.3745 87.1348Z" fill="#F46144"/>
<path d="M61.0118 95.2852H11V102.08H61.0118V95.2852Z" fill="#C8C8C8"/>
<path d="M24.2612 110.455C24.2612 112.715 22.4385 114.546 20.1892 114.546C17.9399 114.546 16.1172 112.715 16.1172 110.455C16.1172 108.195 17.9399 106.364 20.1892 106.364C22.4385 106.364 24.2612 108.195 24.2612 110.455Z" fill="#FFEED6"/>
<path d="M30.8862 110.455C30.8862 112.715 29.0635 114.546 26.8142 114.546C24.5649 114.546 22.7422 112.715 22.7422 110.455C22.7422 108.195 24.5649 106.364 26.8142 106.364C29.0635 106.364 30.8862 108.195 30.8862 110.455Z" fill="white"/>
</svg>
