<svg width="100" height="105" viewBox="0 0 100 105" fill="none" xmlns="http://www.w3.org/2000/svg">
<g clip-path="url(#clip0_58_33281)">
<path d="M85.4805 9.87993L80.9621 16.8972L72.6166 17.158L77.8931 23.6233L75.5642 31.6413L83.3456 28.6209L90.2476 33.3152L89.7806 24.9758L96.3794 19.863L88.3007 17.7341L85.4805 9.87993Z" fill="#F36144"/>
<path d="M66.406 0L64.7988 3.25086L61.2144 3.77245L63.8102 6.30156L63.1976 9.87993L66.406 8.18779L69.6144 9.87993L69.0018 6.30156L71.5977 3.77245L68.0133 3.25086L66.406 0Z" fill="#F9DFB9"/>
<path d="M59.1704 24.6483L58.7398 29.4397L54.5489 31.805L58.5336 33.6912L59.9286 38.4098L63.0945 34.7829L67.8738 35.3349L65.4053 31.2046L67.4067 26.8256L62.7124 27.8991L59.1704 24.6483Z" fill="#F9DFB9"/>
<path d="M24.5998 44.5416H79.094V89.7503C79.094 90.4478 78.53 91.0179 77.8264 91.0179H23.4595C22.762 91.0179 22.198 90.4538 22.198 89.7503V44.5416H24.6058H24.5998Z" fill="#EFEFEF"/>
<path d="M45.4392 44.5416H55.8529V51.7226V91.0179H45.4392V51.7226V44.5416Z" fill="#F36144"/>
<path d="M2.91729 54.3123L43.3589 20.3785C45.3664 18.6924 48.3625 18.9532 50.0486 20.9668L51.6316 22.853C51.9167 23.1927 51.8742 23.6961 51.5346 23.9811L3.92408 63.9254C3.58444 64.2105 3.08105 64.168 2.79599 63.8284L1.21302 61.9421C-0.473061 59.9346 -0.212265 56.9385 1.80132 55.2524L2.92336 54.3123H2.91729Z" fill="#C9C9C9"/>
<path d="M18.8769 40.9206L26.8589 34.2229L22.9331 29.5443L14.9511 36.242L18.8769 40.9206Z" fill="#F36144"/>
<path d="M4.27586 53.166L18.8744 40.9147L14.9503 36.2385L0.867317 45.7242C-0.103088 46.3732 -0.291104 47.7257 0.46096 48.6173L4.28193 53.166H4.27586Z" fill="#EFEFEF"/>
<path d="M41.4545 21.9736L26.856 34.225L22.9319 29.5488L34.7162 17.3278C35.5289 16.4847 36.8875 16.5333 37.6335 17.4309L41.4545 21.9797V21.9736Z" fill="#EFEFEF"/>
<path d="M58.2607 89.817H41.8487C36.93 89.817 32.0961 88.4888 27.8688 85.9718L15.9571 78.8818C13.428 77.3776 10.1589 78.1115 8.52138 80.5618C6.78072 83.1637 7.54491 86.6996 10.2075 88.3493L26.5345 98.4718C30.8589 101.153 35.8443 102.572 40.9329 102.572H88.9618V89.817H58.2667H58.2607Z" fill="#F2D6C7"/>
<path d="M37.9731 85.1773C37.9731 82.1872 40.3992 79.7612 43.3892 79.7612H55.2827C57.5571 79.7612 59.7709 79.0213 61.5843 77.6445C63.3977 76.2738 65.6115 75.5278 67.8859 75.5278H71.8827C75.6006 75.5278 85.3713 76.0069 88.9679 76.9591V90.5873H43.4013C40.4113 90.5873 37.9853 88.1613 37.9853 85.1712L37.9731 85.1773Z" fill="#F7DBC9"/>
<path d="M88.9558 104.81H100.922V75.0062H88.9558V104.81Z" fill="#F36144"/>
</g>
<defs>
<clipPath id="clip0_58_33281">
<rect width="100.922" height="104.81" fill="white"/>
</clipPath>
</defs>
</svg>
