<svg width="76" height="98" viewBox="0 0 76 98" fill="none" xmlns="http://www.w3.org/2000/svg">
<g clip-path="url(#clip0_58_33301)">
<path d="M0 48.5144H75.0234L67.1826 43.0621H7.8357L0 48.5144Z" fill="#EAEAEA"/>
<path d="M3.77876 93.8172L71.2497 93.8172V47.7457L3.77876 47.7457V93.8172Z" fill="#F3F3F3"/>
<path d="M0.981339 98.0051L74.042 98.0051V93.6958L0.981339 93.6958V98.0051Z" fill="#F36144"/>
<path d="M47.4644 93.6958H61.2085L61.2085 60.0311H47.4644V93.6958Z" fill="white"/>
<path d="M47.4644 64.8259H61.2085V60.026H47.4644V64.8259Z" fill="#C9C9C9"/>
<path d="M11.2603 76.383H38.3135V64.8259H11.2603V76.383Z" fill="white"/>
<path d="M27.1796 70.6069H34.8129V64.8259H27.1796V70.6069Z" fill="#C9C9C9"/>
<path d="M65.6853 46.0766H75.0639L70.3291 30.8931H62.1292L65.6853 46.0766Z" fill="#F36144"/>
<path d="M71.3003 51.5643H69.4489C67.3698 51.5643 65.6853 49.8801 65.6853 47.8013V46.0766H75.0689V47.8013C75.0689 49.8801 73.3844 51.5643 71.3053 51.5643H71.3003Z" fill="#F36144"/>
<path d="M56.3017 46.0766H65.6853L62.1291 30.8931H53.9343L56.3017 46.0766Z" fill="#FFEFD7"/>
<path d="M61.9167 51.5643H60.0653C57.9862 51.5643 56.3017 49.8801 56.3017 47.8013V46.0766H65.6853V47.8013C65.6853 49.8801 64.0008 51.5643 61.9217 51.5643H61.9167Z" fill="#FFEFD7"/>
<path d="M46.9231 46.0766H56.3017L53.9343 30.8931H45.7394L46.9231 46.0766Z" fill="#F36144"/>
<path d="M52.5381 51.5643H50.6867C48.6076 51.5643 46.9231 49.8801 46.9231 47.8013V46.0766H56.3067V47.8013C56.3067 49.8801 54.6222 51.5643 52.5431 51.5643H52.5381Z" fill="#F36144"/>
<path d="M37.5395 46.0766H46.9231L45.7394 30.8931H37.5395V46.0766Z" fill="#FFEFD7"/>
<path d="M43.1545 51.5643H41.303C39.224 51.5643 37.5395 49.8801 37.5395 47.8013V46.0766H46.9231V47.8013C46.9231 49.8801 45.2386 51.5643 43.1595 51.5643H43.1545Z" fill="#FFEFD7"/>
<path d="M28.1609 46.0766H37.5395V30.8931H29.3447L28.1609 46.0766Z" fill="#F36144"/>
<path d="M33.7759 51.5643H31.9245C29.8454 51.5643 28.1609 49.8801 28.1609 47.8013V46.0766H37.5446V47.8013C37.5446 49.8801 35.8601 51.5643 33.781 51.5643H33.7759Z" fill="#F36144"/>
<path d="M18.7773 46.0766H28.161L29.3447 30.8931H21.1498L18.7773 46.0766Z" fill="#FFEFD7"/>
<path d="M24.3923 51.5643H22.5409C20.4618 51.5643 18.7773 49.8801 18.7773 47.8013V46.0766H28.1609V47.8013C28.1609 49.8801 26.4765 51.5643 24.3974 51.5643H24.3923Z" fill="#FFEFD7"/>
<path d="M9.3988 46.0766H18.7774L21.1498 30.8931H12.9499L9.3988 46.0766Z" fill="#F36144"/>
<path d="M15.0138 51.5643H13.1624C11.0833 51.5643 9.3988 49.8801 9.3988 47.8013V46.0766H18.7824V47.8013C18.7824 49.8801 17.0979 51.5643 15.0188 51.5643H15.0138Z" fill="#F36144"/>
<path d="M0.0151978 46.0766H9.39881L12.9499 30.8931H4.75506L0.0151978 46.0766Z" fill="#FFEFD7"/>
<path d="M5.63524 51.5643H3.78381C1.70475 51.5643 0.0202513 49.8801 0.0202513 47.8013V46.0766H9.3988V47.8013C9.3988 49.8801 7.71431 51.5643 5.63524 51.5643Z" fill="#FFEFD7"/>
<path d="M44.4292 16.9689L37.3979 23.9993L30.3665 16.9689C26.4866 13.0896 26.4866 6.79262 30.3665 2.91329C34.2464 -0.96605 40.5443 -0.96605 44.4242 2.91329C48.3041 6.79262 48.3041 13.0896 44.4242 16.9689H44.4292Z" fill="#F36144"/>
<path d="M37.4029 14.9104C40.1492 14.9104 42.3755 12.6844 42.3755 9.93859C42.3755 7.19273 40.1492 4.96677 37.4029 4.96677C34.6566 4.96677 32.4304 7.19273 32.4304 9.93859C32.4304 12.6844 34.6566 14.9104 37.4029 14.9104Z" fill="white"/>
</g>
<defs>
<clipPath id="clip0_58_33301">
<rect width="75.0638" height="98" fill="white"/>
</clipPath>
</defs>
</svg>
