<svg width="98" height="87" viewBox="0 0 98 87" fill="none" xmlns="http://www.w3.org/2000/svg">
<g clip-path="url(#clip0_58_33334)">
<path d="M66.8068 6.67227H2.83385C1.26876 6.67227 0 7.9417 0 9.50761V46.5394C0 48.1053 1.26876 49.3747 2.83385 49.3747H66.8068C68.3719 49.3747 69.6406 48.1053 69.6406 46.5394V9.50761C69.6406 7.9417 68.3719 6.67227 66.8068 6.67227Z" fill="#EFEFEF"/>
<path d="M69.6406 15.2305H0V24.9062H69.6406V15.2305Z" fill="#C9C9C9"/>
<path d="M69.8589 27.8858L23.9545 60.0932L38.538 80.9006L84.4424 48.6933L69.8589 27.8858Z" fill="#FFEFD7"/>
<path d="M77.0201 42.7912L72.8815 36.8907C69.9799 38.9272 65.977 38.2223 63.9468 35.319L32.9363 57.0723C34.9717 59.9755 34.2671 63.9805 31.3654 66.0117L35.504 71.9122C38.4057 69.8757 42.4086 70.5806 44.4387 73.4839L75.4492 51.7306C73.4139 48.8274 74.1184 44.8224 77.0201 42.7912Z" fill="white"/>
<path d="M54.1928 61.9336C58.3519 61.9336 61.7236 58.5602 61.7236 54.3988C61.7236 50.2375 58.3519 46.864 54.1928 46.864C50.0336 46.864 46.6619 50.2375 46.6619 54.3988C46.6619 58.5602 50.0336 61.9336 54.1928 61.9336Z" fill="#F36144"/>
<path d="M53.4882 56.8635C54.4015 56.8112 55.1165 56.6598 55.7532 56.216C56.2438 55.8714 56.3795 55.5215 56.176 55.2291C55.581 54.3832 52.7367 56.6024 51.432 54.7383C50.7118 53.7148 51.1241 52.4407 52.4758 51.4904C53.4047 50.8429 54.2711 50.7594 55.127 50.916L54.9861 52.2893C54.2763 52.2893 53.7805 52.3729 53.2221 52.7645C52.7733 53.083 52.6428 53.4276 52.8463 53.72C53.3473 54.4406 56.2386 52.2789 57.5329 54.1273C58.2322 55.1299 57.9243 56.4875 56.3795 57.5736C55.6593 58.0801 54.5059 58.4299 53.5509 58.336L53.4935 56.8687L53.4882 56.8635ZM51.0093 50.6027L51.9956 49.9135L53.2221 51.6679L52.2357 52.3572L51.0093 50.6027ZM56.6144 56.4979L58.06 58.5605L57.0736 59.2497L55.628 57.1872L56.6144 56.4979Z" fill="white"/>
<path d="M84.8031 42.7445L30.4451 56.4863L36.6673 81.1256L91.0254 67.3838L84.8031 42.7445Z" fill="#FFE8C0"/>
<path d="M86.1949 59.2132L84.4309 52.2214C80.9969 53.0882 77.5055 51.01 76.6391 47.569L39.9244 56.853C40.7907 60.2888 38.7136 63.7821 35.2744 64.6489L37.0383 71.6406C40.4724 70.7739 43.9638 72.8521 44.8301 76.2931L81.5449 67.0091C80.6786 63.5732 82.7557 60.08 86.1949 59.2132Z" fill="white"/>
<path d="M60.7373 69.4685C64.8964 69.4685 68.2681 66.095 68.2681 61.9337C68.2681 57.7723 64.8964 54.3989 60.7373 54.3989C56.5781 54.3989 53.2064 57.7723 53.2064 61.9337C53.2064 66.095 56.5781 69.4685 60.7373 69.4685Z" fill="#F36144"/>
<path d="M59.1977 63.9857C60.0692 64.2625 60.7947 64.3774 61.5462 64.1842C62.1255 64.0379 62.3812 63.756 62.2925 63.4166C62.042 62.414 58.5923 63.474 58.0339 61.2705C57.726 60.0591 58.561 59.0095 60.1632 58.6075C61.2591 58.3307 62.0994 58.5657 62.8457 59.0147L62.2298 60.2471C61.567 59.9912 61.0713 59.8972 60.4137 60.0643C59.8814 60.2001 59.6361 60.4768 59.7248 60.8267C59.9388 61.6778 63.4093 60.6909 63.9573 62.8735C64.2548 64.0588 63.4824 65.218 61.6505 65.6828C60.7999 65.8968 59.5943 65.8185 58.7332 65.3851L59.1977 63.991V63.9857ZM59.1142 57.2498L60.2832 56.9522L60.8051 59.0304L59.6361 59.328L59.1142 57.2498ZM62.2507 64.7585L62.8665 67.2023L61.6975 67.4999L61.0817 65.0562L62.2507 64.7585Z" fill="white"/>
<path d="M49.0788 2.74571L45.2586 6.56793H60.242C60.9674 6.56793 61.3327 7.44517 60.8161 7.95689L56.4792 12.2961H47.0174C45.269 12.2961 43.7086 13.5754 43.5416 15.3141C43.3537 17.3088 44.9142 18.9902 46.8712 18.9902H69.5107C71.9845 18.9902 74.406 18.2383 76.4414 16.8284C78.482 15.4238 80.8983 14.6667 83.372 14.6667H83.4555V-1.28539H58.8016C55.1536 -1.28539 51.6517 0.166225 49.0736 2.74571H49.0788Z" fill="#F7DBC9"/>
<path d="M97.9998 -3.3793H83.4652V16.8963H97.9998V-3.3793Z" fill="#F36144"/>
<path d="M79.854 60.7588H23.7876V86.1724H79.854V60.7588Z" fill="#F9DFB9"/>
<path d="M77.1715 77.0711V69.8601C73.6279 69.8601 70.7575 66.9882 70.7575 63.4427H32.8841C32.8841 66.9882 30.0138 69.8601 26.4702 69.8601V77.0711C30.0138 77.0711 32.8841 79.943 32.8841 83.4885H70.7523C70.7523 79.943 73.6227 77.0711 77.1663 77.0711H77.1715Z" fill="white"/>
<path d="M51.8182 81.003C55.9774 81.003 59.349 77.6296 59.349 73.4682C59.349 69.3069 55.9774 65.9334 51.8182 65.9334C47.659 65.9334 44.2874 69.3069 44.2874 73.4682C44.2874 77.6296 47.659 81.003 51.8182 81.003Z" fill="#F36144"/>
<path d="M49.8298 75.0817C50.6074 75.5673 51.2806 75.8493 52.0583 75.8493C52.6584 75.8493 52.9716 75.6404 52.9716 75.2853C52.9716 74.2515 49.3653 74.4342 49.3653 72.1576C49.3653 70.9044 50.43 70.0951 52.0844 70.0951C53.2168 70.0951 53.9736 70.5284 54.5842 71.1446L53.6865 72.1889C53.102 71.7816 52.648 71.5675 51.9695 71.5675C51.4163 71.5675 51.1136 71.7764 51.1136 72.1367C51.1136 73.0139 54.7199 72.9043 54.7199 75.16C54.7199 76.3819 53.6813 77.3166 51.7973 77.3166C50.9205 77.3166 49.7724 76.9406 49.0417 76.314L49.835 75.0817H49.8298ZM51.3955 68.5286H52.601V70.6694H51.3955V68.5286ZM52.601 76.5751V79.0971H51.3955V76.5751H52.601Z" fill="white"/>
<path d="M21.1312 68.9045C27.4636 68.9045 32.5971 63.7684 32.5971 57.4326C32.5971 51.0969 27.4636 45.9607 21.1312 45.9607C14.7988 45.9607 9.66534 51.0969 9.66534 57.4326C9.66534 63.7684 14.7988 68.9045 21.1312 68.9045Z" fill="#F36144"/>
<path d="M18.4279 58.738C19.456 59.375 20.3432 59.7562 21.3661 59.7562C22.1541 59.7562 22.5717 59.4795 22.5717 59.0095C22.5717 57.6467 17.812 57.8869 17.812 54.8845C17.812 53.2344 19.2211 52.164 21.4026 52.164C22.8952 52.164 23.8972 52.7384 24.701 53.5477L23.5111 54.9262C22.7439 54.3884 22.1437 54.1012 21.2408 54.1012C20.5154 54.1012 20.1083 54.378 20.1083 54.8531C20.1083 56.0123 24.868 55.8713 24.868 58.8424C24.868 60.4559 23.5006 61.6935 21.0112 61.6935C19.8526 61.6935 18.3339 61.2026 17.3737 60.3724L18.4226 58.7432L18.4279 58.738ZM20.4998 50.0858H22.0915V52.9159H20.4998V50.0858ZM22.0863 60.7118V64.0432H20.4945V60.7118H22.0863Z" fill="white"/>
</g>
<defs>
<clipPath id="clip0_58_33334">
<rect width="98" height="86.1724" fill="white"/>
</clipPath>
</defs>
</svg>
