<svg width="174" height="153" viewBox="0 0 174 153" fill="none" xmlns="http://www.w3.org/2000/svg">
<g clip-path="url(#clip0_58_34247)">
<path d="M118.616 11.8467H5.03153C2.25269 11.8467 0 14.1006 0 16.8809V82.6311C0 85.4114 2.25269 87.6653 5.03153 87.6653H118.616C121.395 87.6653 123.648 85.4114 123.648 82.6311V16.8809C123.648 14.1006 121.395 11.8467 118.616 11.8467Z" fill="#EFEFEF"/>
<path d="M123.648 27.042H0V44.2212H123.648V27.042Z" fill="#C9C9C9"/>
<path d="M124.035 49.5116L42.5315 106.696L68.4247 143.64L149.928 86.4554L124.035 49.5116Z" fill="#FFEFD7"/>
<path d="M136.75 75.9762L129.402 65.4999C124.25 69.1156 117.143 67.864 113.538 62.7094L58.4788 101.333C62.0926 106.487 60.8417 113.598 55.6897 117.205L63.0378 127.681C68.1898 124.065 75.2969 125.317 78.9014 130.471L133.961 91.8482C130.347 86.6935 131.598 79.5826 136.75 75.9762Z" fill="white"/>
<path d="M96.2199 109.964C103.605 109.964 109.591 103.974 109.591 96.5857C109.591 89.1972 103.605 83.2076 96.2199 83.2076C88.8353 83.2076 82.8489 89.1972 82.8489 96.5857C82.8489 103.974 88.8353 109.964 96.2199 109.964Z" fill="#F36144"/>
<path d="M94.9688 100.962C96.5904 100.869 97.8599 100.6 98.9903 99.812C99.8613 99.2002 100.102 98.579 99.7409 98.0598C98.6845 96.5579 93.6345 100.498 91.3179 97.1883C90.0392 95.3712 90.7712 93.1091 93.1712 91.4217C94.8206 90.2721 96.3587 90.1238 97.8784 90.4019L97.6282 92.8402C96.368 92.8402 95.4877 92.9886 94.4962 93.6839C93.6994 94.2494 93.4677 94.8613 93.8291 95.3805C94.7186 96.6599 99.8521 92.8217 102.15 96.1036C103.392 97.8837 102.845 100.294 100.102 102.223C98.8235 103.122 96.7757 103.743 95.08 103.576L94.9781 100.971L94.9688 100.962ZM90.5674 89.8457L92.3187 88.6219L94.4962 91.737L92.7449 92.9607L90.5674 89.8457ZM100.519 100.313L103.086 103.975L101.335 105.199L98.7679 101.536L100.519 100.313Z" fill="white"/>
<path d="M150.569 75.8933L54.0554 100.292L65.1031 144.039L161.616 119.641L150.569 75.8933Z" fill="#FFE8C0"/>
<path d="M153.04 105.134L149.908 92.7197C143.811 94.2587 137.612 90.5688 136.074 84.4592L70.886 100.943C72.4242 107.043 68.7363 113.246 62.6299 114.785L65.7619 127.199C71.859 125.66 78.058 129.35 79.5962 135.459L144.784 118.975C143.246 112.875 146.933 106.673 153.04 105.134Z" fill="white"/>
<path d="M107.84 123.342C115.224 123.342 121.211 117.352 121.211 109.964C121.211 102.575 115.224 96.5857 107.84 96.5857C100.455 96.5857 94.4685 102.575 94.4685 109.964C94.4685 117.352 100.455 123.342 107.84 123.342Z" fill="#F36144"/>
<path d="M105.106 113.607C106.653 114.099 107.941 114.303 109.276 113.96C110.304 113.7 110.758 113.199 110.601 112.597C110.156 110.817 104.031 112.699 103.04 108.786C102.493 106.636 103.976 104.772 106.82 104.058C108.766 103.567 110.258 103.984 111.583 104.781L110.49 106.969C109.313 106.515 108.433 106.348 107.265 106.645C106.32 106.886 105.884 107.377 106.042 107.998C106.422 109.51 112.584 107.757 113.557 111.633C114.085 113.737 112.714 115.795 109.461 116.62C107.951 117.001 105.81 116.861 104.281 116.092L105.106 113.617V113.607ZM104.958 101.648L107.033 101.119L107.96 104.809L105.884 105.338L104.958 101.648ZM110.527 114.979L111.62 119.318L109.544 119.847L108.451 115.508L110.527 114.979Z" fill="white"/>
<path d="M87.1399 4.87502L80.3571 11.6614H106.96C108.248 11.6614 108.897 13.219 107.98 14.1275L100.279 21.8318H83.4798C80.3756 21.8318 77.605 24.1032 77.3085 27.1904C76.9749 30.732 79.7455 33.7172 83.2203 33.7172H123.417C127.809 33.7172 132.109 32.3822 135.722 29.879C139.345 27.3851 143.636 26.0408 148.028 26.0408H148.176V-2.28223H104.403C97.9257 -2.28223 91.7081 0.295123 87.1307 4.87502H87.1399Z" fill="#F7DBC9"/>
<path d="M174 -6H148.193V29.9995H174V-6Z" fill="#F36144"/>
<path d="M141.781 107.878H42.2351V153H141.781V107.878Z" fill="#F9DFB9"/>
<path d="M137.019 136.841V124.037C130.727 124.037 125.631 118.938 125.631 112.643H58.3862C58.3862 118.938 53.2898 124.037 46.998 124.037V136.841C53.2898 136.841 58.3862 141.94 58.3862 148.235H125.621C125.621 141.94 130.718 136.841 137.01 136.841H137.019Z" fill="white"/>
<path d="M92.0036 143.822C99.3883 143.822 105.375 137.832 105.375 130.444C105.375 123.055 99.3883 117.065 92.0036 117.065C84.619 117.065 78.6326 123.055 78.6326 130.444C78.6326 137.832 84.619 143.822 92.0036 143.822Z" fill="#F36144"/>
<path d="M88.4734 133.308C89.8541 134.171 91.0494 134.671 92.4301 134.671C93.4957 134.671 94.0516 134.3 94.0516 133.67C94.0516 131.834 87.6487 132.159 87.6487 128.117C87.6487 125.891 89.539 124.454 92.4764 124.454C94.4872 124.454 95.8307 125.224 96.9149 126.318L95.3211 128.172C94.2833 127.449 93.4771 127.069 92.2725 127.069C91.2903 127.069 90.7529 127.44 90.7529 128.079C90.7529 129.637 97.1558 129.442 97.1558 133.447C97.1558 135.617 95.3118 137.276 91.9668 137.276C90.41 137.276 88.3715 136.609 87.0742 135.496L88.4827 133.308H88.4734ZM91.2533 121.673H93.3937V125.474H91.2533V121.673ZM93.3937 135.96V140.438H91.2533V135.96H93.3937Z" fill="white"/>
<path d="M37.5187 122.341C48.7619 122.341 57.8764 113.221 57.8764 101.972C57.8764 90.723 48.7619 81.6037 37.5187 81.6037C26.2754 81.6037 17.1609 90.723 17.1609 101.972C17.1609 113.221 26.2754 122.341 37.5187 122.341Z" fill="#F36144"/>
<path d="M32.7189 104.29C34.5444 105.421 36.1196 106.098 37.9358 106.098C39.335 106.098 40.0763 105.606 40.0763 104.772C40.0763 102.352 31.6255 102.779 31.6255 97.4479C31.6255 94.5183 34.1274 92.6177 38.0006 92.6177C40.6508 92.6177 42.4299 93.6376 43.8569 95.0746L41.7442 97.5221C40.382 96.5672 39.3164 96.0573 37.7134 96.0573C36.4254 96.0573 35.7026 96.5487 35.7026 97.3923C35.7026 99.4505 44.1534 99.2002 44.1534 104.475C44.1534 107.34 41.7256 109.537 37.3057 109.537C35.2486 109.537 32.5521 108.666 30.8472 107.192L32.7097 104.299L32.7189 104.29ZM36.3976 88.9279H39.2238V93.9528H36.3976V88.9279ZM39.2145 107.794V113.709H36.3883V107.794H39.2145Z" fill="white"/>
</g>
<defs>
<clipPath id="clip0_58_34247">
<rect width="174" height="153" fill="white"/>
</clipPath>
</defs>
</svg>
