<svg width="167" height="173" viewBox="0 0 167 173" fill="none" xmlns="http://www.w3.org/2000/svg">
<g clip-path="url(#clip0_58_34276)">
<path d="M140.939 16.2898L133.489 27.8598L119.729 28.2898L128.429 38.9498L124.589 52.1698L137.419 47.1898L148.799 54.9298L148.029 41.1798L158.909 32.7498L145.589 29.2398L140.939 16.2898Z" fill="#F36144"/>
<path d="M109.489 -0.000244141L106.839 5.35976L100.929 6.21976L105.209 10.3898L104.199 16.2898L109.489 13.4998L114.779 16.2898L113.769 10.3898L118.049 6.21976L112.139 5.35976L109.489 -0.000244141Z" fill="#F9DFB9"/>
<path d="M97.5594 40.6398L96.8494 48.5398L89.9395 52.4398L96.5095 55.5498L98.8094 63.3298L104.029 57.3498L111.909 58.2598L107.839 51.4498L111.139 44.2298L103.399 45.9998L97.5594 40.6398Z" fill="#F9DFB9"/>
<path d="M40.5596 73.4398H130.41V147.98C130.41 149.13 129.48 150.07 128.32 150.07H38.6796C37.5296 150.07 36.5996 149.14 36.5996 147.98V73.4398H40.5696H40.5596Z" fill="#EFEFEF"/>
<path d="M74.9194 73.4398H92.0894V85.2798V150.07H74.9194V85.2798V73.4398Z" fill="#F36144"/>
<path d="M4.80956 89.5498L71.4896 33.5998C74.7996 30.8198 79.7396 31.2498 82.5196 34.5698L85.1296 37.6798C85.5996 38.2398 85.5296 39.0698 84.9696 39.5398L6.46955 105.4C5.90955 105.87 5.07956 105.8 4.60956 105.24L1.99955 102.13C-0.780445 98.8198 -0.350445 93.8798 2.96955 91.0998L4.81956 89.5498H4.80956Z" fill="#C9C9C9"/>
<path d="M31.1238 67.4695L44.2844 56.4264L37.8116 48.7124L24.6509 59.7555L31.1238 67.4695Z" fill="#F36144"/>
<path d="M7.04959 87.6598L31.1196 67.4598L24.6496 59.7498L1.42959 75.3898C-0.170415 76.4598 -0.480415 78.6898 0.759585 80.1598L7.05959 87.6598H7.04959Z" fill="#EFEFEF"/>
<path d="M68.3496 36.2298L44.2796 56.4298L37.8096 48.7198L57.2396 28.5698C58.5796 27.1798 60.8196 27.2598 62.0496 28.7398L68.3496 36.2398V36.2298Z" fill="#EFEFEF"/>
<path d="M96.0594 148.09H68.9994C60.8894 148.09 52.9194 145.9 45.9494 141.75L26.3094 130.06C22.1394 127.58 16.7494 128.79 14.0494 132.83C11.1794 137.12 12.4394 142.95 16.8294 145.67L43.7494 162.36C50.8794 166.78 59.0994 169.12 67.4894 169.12H146.679V148.09H96.0694H96.0594Z" fill="#F2D6C7"/>
<path d="M62.6096 140.44C62.6096 135.51 66.6096 131.51 71.5396 131.51H91.1496C94.8996 131.51 98.5496 130.29 101.54 128.02C104.53 125.76 108.18 124.53 111.93 124.53H118.52C124.65 124.53 140.76 125.32 146.69 126.89V149.36H71.5596C66.6296 149.36 62.6296 145.36 62.6296 140.43L62.6096 140.44Z" fill="#F7DBC9"/>
<path d="M146.669 172.81H166.399V123.67H146.669V172.81Z" fill="#F36144"/>
</g>
<defs>
<clipPath id="clip0_58_34276">
<rect width="166.4" height="172.81" fill="white" transform="translate(-0.000488281 -0.000244141)"/>
</clipPath>
</defs>
</svg>
