<svg width="104" height="96" viewBox="0 0 104 96" fill="none" xmlns="http://www.w3.org/2000/svg">
<g clip-path="url(#clip0_58_33260)">
<path d="M9.35388 0.00866699H43.2638C48.4276 0.00866699 52.6177 4.19872 52.6177 9.36255V78.273C52.6177 83.4368 48.4276 87.6269 43.2638 87.6269H9.35388C4.19005 87.6269 0 83.4368 0 78.273V9.36255C0 4.19872 4.19005 0.00866699 9.35388 0.00866699Z" fill="#EFEFEF"/>
<path d="M41.8615 2.15656H10.7505C6.00863 2.15656 2.16455 6.00063 2.16455 10.7425V77.3159C2.16455 82.0578 6.00863 85.9019 10.7505 85.9019H41.8615C46.6034 85.9019 50.4475 82.0578 50.4475 77.3159V10.7425C50.4475 6.00063 46.6034 2.15656 41.8615 2.15656Z" fill="white"/>
<path d="M33.1642 8.3832H19.4534C18.7356 8.3832 18.1569 7.80449 18.1569 7.08668C18.1569 6.36886 18.7356 5.79015 19.4534 5.79015H33.1642C33.8821 5.79015 34.4608 6.36886 34.4608 7.08668C34.4608 7.80449 33.8821 8.3832 33.1642 8.3832Z" fill="#EFEFEF"/>
<path d="M99.597 57.4041C101.445 47.7632 95.1272 38.4497 85.4863 36.6018C75.8453 34.754 66.5318 41.0716 64.684 50.7125C62.8362 60.3535 69.1537 69.667 78.7947 71.5148C88.4357 73.3627 97.7492 67.0451 99.597 57.4041Z" fill="#F36144"/>
<path d="M81.537 49.2229C81.537 51.6098 80.2821 52.8084 77.7723 52.8084C75.2624 52.8084 74.0075 51.6149 74.0075 49.2229C74.0075 46.8308 75.2624 45.6424 77.7723 45.6424C80.2821 45.6424 81.537 46.8359 81.537 49.2229ZM89.527 45.6374L79.2599 62.3308H75.2877L85.3625 45.6374H89.532H89.527ZM78.759 49.2229C78.759 48.5626 78.4301 48.2376 77.7773 48.2376C77.1246 48.2376 76.7956 48.5677 76.7956 49.2229C76.7956 49.878 77.1246 50.2132 77.7773 50.2132C78.4301 50.2132 78.759 49.8831 78.759 49.2229ZM90.7009 58.7503C90.7009 61.1373 89.446 62.3308 86.9362 62.3308C84.4263 62.3308 83.1714 61.1373 83.1714 58.7503C83.1714 56.3634 84.4263 55.1648 86.9362 55.1648C89.446 55.1648 90.7009 56.3583 90.7009 58.7503ZM87.9229 58.7503C87.9229 58.0901 87.594 57.76 86.9412 57.76C86.2885 57.76 85.9545 58.0901 85.9545 58.7503C85.9545 59.4106 86.2834 59.7356 86.9412 59.7356C87.5991 59.7356 87.9229 59.4055 87.9229 58.7503Z" fill="white"/>
<path d="M44.194 91.1345L40.4931 91.7667C38.937 92.0334 37.3757 91.3271 36.5874 90.0035L27.2659 74.3125L38.8192 72.3468L46.7995 85.7758C48.0895 87.9489 46.7535 90.7048 44.1992 91.1395L44.194 91.1345Z" fill="#C9C9C9"/>
<path d="M17.9731 50.1771L29.0877 48.2173L33.8246 75.0817L22.71 77.0415C20.9158 77.3579 19.2038 76.1591 18.8874 74.3649L15.2956 53.9948C14.9792 52.2005 16.178 50.4885 17.9722 50.1721L17.9731 50.1771Z" fill="#FFEFD7"/>
<path d="M65.6608 80.6935L33.7089 75.0552L28.9352 48.3525L57.0009 32.2826L65.6608 80.6935Z" fill="#F36144"/>
<path d="M69.2 84.539C67.503 84.8478 65.8851 83.6837 65.5833 81.9478L56.8061 31.0238C56.5043 29.2879 57.6423 27.6329 59.3393 27.3242C61.0364 27.0155 62.6543 28.1795 62.9561 29.9155L71.7332 80.8394C72.035 82.5754 70.897 84.2303 69.2 84.539Z" fill="#FFEFD7"/>
</g>
<defs>
<clipPath id="clip0_58_33260">
<rect width="104" height="95.2582" fill="white" transform="translate(0 0.00866699)"/>
</clipPath>
</defs>
</svg>
