<svg width="144" height="188" viewBox="0 0 144 188" fill="none" xmlns="http://www.w3.org/2000/svg">
<g clip-path="url(#clip0_58_34296)">
<path d="M0 93.0685H143.922L128.881 82.609H15.0317L0 93.0685Z" fill="#EAEAEA"/>
<path d="M7.24905 179.976L136.683 179.976V91.5937L7.24905 91.5937V179.976Z" fill="#F3F3F3"/>
<path d="M1.8824 188.01L142.04 188.01V179.743L1.8824 179.743V188.01Z" fill="#F36144"/>
<path d="M91.0542 179.743H117.42L117.42 115.162H91.0542V179.743Z" fill="white"/>
<path d="M91.0542 124.36H117.42V115.152H91.0542V124.36Z" fill="#C9C9C9"/>
<path d="M21.6017 146.531H73.4995V124.36H21.6017V146.531Z" fill="white"/>
<path d="M52.1406 135.45H66.7842V124.36H52.1406V135.45Z" fill="#C9C9C9"/>
<path d="M126.009 88.3918H144L134.917 59.2642H119.187L126.009 88.3918Z" fill="#F36144"/>
<path d="M136.78 98.9193H133.228C129.24 98.9193 126.009 95.6883 126.009 91.7005V88.3919H144.01V91.7005C144.01 95.6883 140.778 98.9193 136.79 98.9193H136.78Z" fill="#F36144"/>
<path d="M108.007 88.3918H126.009L119.187 59.2642H103.466L108.007 88.3918Z" fill="#FFEFD7"/>
<path d="M118.779 98.9193H115.227C111.239 98.9193 108.007 95.6883 108.007 91.7005V88.3919H126.008V91.7005C126.008 95.6883 122.777 98.9193 118.788 98.9193H118.779Z" fill="#FFEFD7"/>
<path d="M90.0159 88.3918H108.007L103.466 59.2642H87.7451L90.0159 88.3918Z" fill="#F36144"/>
<path d="M100.787 98.9193H97.2358C93.2474 98.9193 90.0159 95.6883 90.0159 91.7005V88.3919H108.017V91.7005C108.017 95.6883 104.786 98.9193 100.797 98.9193H100.787Z" fill="#F36144"/>
<path d="M72.0146 88.3918H90.0159L87.7451 59.2642H72.0146V88.3918Z" fill="#FFEFD7"/>
<path d="M82.786 98.9193H79.2343C75.2459 98.9193 72.0144 95.6883 72.0144 91.7005V88.3919H90.0156V91.7005C90.0156 95.6883 86.7841 98.9193 82.7957 98.9193H82.786Z" fill="#FFEFD7"/>
<path d="M54.0229 88.3918H72.0145V59.2642H56.2937L54.0229 88.3918Z" fill="#F36144"/>
<path d="M64.7948 98.9193H61.2431C57.2547 98.9193 54.0232 95.6883 54.0232 91.7005V88.3919H72.0244V91.7005C72.0244 95.6883 68.7929 98.9193 64.8045 98.9193H64.7948Z" fill="#F36144"/>
<path d="M36.022 88.3918H54.0232L56.294 59.2642H40.5732L36.022 88.3918Z" fill="#FFEFD7"/>
<path d="M46.7934 98.9193H43.2416C39.2532 98.9193 36.0217 95.6883 36.0217 91.7005V88.3919H54.0229V91.7005C54.0229 95.6883 50.7915 98.9193 46.8031 98.9193H46.7934Z" fill="#FFEFD7"/>
<path d="M18.0303 88.3918H36.0218L40.573 59.2642H24.8426L18.0303 88.3918Z" fill="#F36144"/>
<path d="M28.8021 98.9193H25.2504C21.262 98.9193 18.0305 95.6883 18.0305 91.7005V88.3919H36.0317V91.7005C36.0317 95.6883 32.8003 98.9193 28.8118 98.9193H28.8021Z" fill="#F36144"/>
<path d="M0.0292969 88.3918H18.0305L24.8428 59.2642H9.12209L0.0292969 88.3918Z" fill="#FFEFD7"/>
<path d="M10.8104 98.9193H7.25866C3.27025 98.9193 0.038765 95.6883 0.038765 91.7005V88.3919H18.0303V91.7005C18.0303 95.6883 14.7988 98.9193 10.8104 98.9193Z" fill="#FFEFD7"/>
<path d="M85.2318 32.5526L71.743 46.0394L58.2542 32.5526C50.8111 25.1106 50.8111 13.0307 58.2542 5.58876C65.6973 -1.85323 77.779 -1.85323 85.222 5.58876C92.6651 13.0307 92.6651 25.1106 85.222 32.5526H85.2318Z" fill="#F36144"/>
<path d="M71.7526 28.6036C77.0209 28.6036 81.2917 24.3334 81.2917 19.0659C81.2917 13.7983 77.0209 9.52808 71.7526 9.52808C66.4842 9.52808 62.2134 13.7983 62.2134 19.0659C62.2134 24.3334 66.4842 28.6036 71.7526 28.6036Z" fill="white"/>
</g>
<defs>
<clipPath id="clip0_58_34296">
<rect width="144" height="188" fill="white"/>
</clipPath>
</defs>
</svg>
