<svg width="187" height="172" viewBox="0 0 187 172" fill="none" xmlns="http://www.w3.org/2000/svg">
<path d="M16.81 0H77.75C87.03 0 94.56 7.53 94.56 16.81V140.65C94.56 149.93 87.03 157.46 77.75 157.46H16.81C7.53 157.46 0 149.93 0 140.65V16.81C0 7.53 7.53 0 16.81 0Z" fill="#EFEFEF"/>
<path d="M75.2301 3.86H19.3201C10.7984 3.86 3.89014 10.7682 3.89014 19.29V138.93C3.89014 147.452 10.7984 154.36 19.3201 154.36H75.2301C83.7519 154.36 90.6601 147.452 90.6601 138.93V19.29C90.6601 10.7682 83.7519 3.86 75.2301 3.86Z" fill="white"/>
<path d="M59.5999 15.05H34.9599C33.6699 15.05 32.6299 14.01 32.6299 12.72C32.6299 11.43 33.6699 10.39 34.9599 10.39H59.5999C60.8899 10.39 61.9299 11.43 61.9299 12.72C61.9299 14.01 60.8899 15.05 59.5999 15.05Z" fill="#EFEFEF"/>
<path d="M178.987 103.146C182.308 85.8203 170.955 69.0829 153.629 65.7621C136.303 62.4413 119.565 73.7947 116.245 91.1207C112.924 108.447 124.277 125.184 141.603 128.505C158.929 131.826 175.667 120.472 178.987 103.146Z" fill="#F36144"/>
<path d="M146.531 88.4436C146.531 92.7332 144.276 94.8871 139.766 94.8871C135.255 94.8871 133 92.7423 133 88.4436C133 84.1448 135.255 82.0091 139.766 82.0091C144.276 82.0091 146.531 84.1539 146.531 88.4436ZM160.89 82L142.439 112H135.301L153.406 82H160.899H160.89ZM141.539 88.4436C141.539 87.2571 140.948 86.673 139.775 86.673C138.602 86.673 138.011 87.2662 138.011 88.4436C138.011 89.6209 138.602 90.2233 139.775 90.2233C140.948 90.2233 141.539 89.6301 141.539 88.4436ZM163 105.566C163 109.855 160.745 112 156.234 112C151.724 112 149.469 109.855 149.469 105.566C149.469 101.276 151.724 99.122 156.234 99.122C160.745 99.122 163 101.267 163 105.566ZM158.008 105.566C158.008 104.379 157.416 103.786 156.243 103.786C155.07 103.786 154.47 104.379 154.47 105.566C154.47 106.752 155.061 107.336 156.243 107.336C157.426 107.336 158.008 106.743 158.008 105.566Z" fill="white"/>
<path d="M79.4218 163.764L72.7707 164.9C69.9742 165.379 67.1684 164.11 65.7518 161.731L49 133.533L69.7626 130L84.1042 154.133C86.4224 158.039 84.0214 162.991 79.431 163.773L79.4218 163.764Z" fill="#C9C9C9"/>
<path d="M32.2996 90.1585L52.2737 86.6365L60.7865 134.915L40.8124 138.437C37.5878 139.005 34.5112 136.851 33.9426 133.627L27.4878 97.0192C26.9192 93.7947 29.0735 90.7181 32.298 90.1495L32.2996 90.1585Z" fill="#FFEFD7"/>
<path d="M118 145L60.5788 134.867L52 86.8795L102.437 58L118 145Z" fill="#F36144"/>
<path d="M124.36 151.911C121.311 152.466 118.403 150.374 117.861 147.254L102.087 55.7378C101.545 52.6181 103.59 49.644 106.64 49.0892C109.689 48.5344 112.597 50.6263 113.139 53.7459L128.913 145.262C129.455 148.382 127.41 151.356 124.36 151.911Z" fill="#FFEFD7"/>
</svg>
