<svg width="59" height="58" viewBox="0 0 59 58" fill="none" xmlns="http://www.w3.org/2000/svg">
<path d="M40.8503 24.8665L41.7887 40.9902C41.8222 41.5643 41.3656 42.0483 40.7904 42.0483H18.1829C17.6078 42.0483 17.1512 41.5643 17.1846 40.9902L18.123 24.8665" stroke="#222222" stroke-width="2" stroke-linecap="round" stroke-linejoin="round"/>
<path d="M18.0322 26.7753C15.9229 26.7753 14.214 25.1704 14.214 23.1895L15.8765 17.4818C16.2495 16.2013 17.4231 15.3208 18.7568 15.3208H21.8504V23.1895C21.8504 25.1704 20.1414 26.7753 18.0322 26.7753Z" fill="#FCA675" stroke="#222222" stroke-width="1.5" stroke-linecap="round" stroke-linejoin="round"/>
<path d="M25.6685 26.7753C23.5593 26.7753 21.8503 25.1704 21.8503 23.1895V15.3208H29.4867V23.1895C29.4867 25.1704 27.7778 26.7753 25.6685 26.7753Z" fill="#F46144" stroke="#222222" stroke-width="1.5" stroke-linecap="round" stroke-linejoin="round"/>
<path d="M33.3049 26.7753C31.1956 26.7753 29.4867 25.1704 29.4867 23.1895V15.3208H37.1231V23.1895C37.1231 25.1704 35.4141 26.7753 33.3049 26.7753Z" fill="#0E3D78" stroke="#222222" stroke-width="1.5" stroke-linecap="round" stroke-linejoin="round"/>
<path d="M40.9412 26.7753C38.832 26.7753 37.123 25.1704 37.123 23.1895V15.3208H40.2166C41.5503 15.3208 42.7239 16.2013 43.0969 17.4818L44.7594 23.1895C44.7594 25.1704 43.0505 26.7753 40.9412 26.7753Z" fill="#F46144" stroke="#222222" stroke-width="1.5" stroke-linecap="round" stroke-linejoin="round"/>
<path d="M26.6937 30.293L32.6937 36.293M32.6937 30.293L26.6937 36.293" stroke="black" stroke-width="2" stroke-linecap="round"/>
</svg>
