<svg width="59" height="58" viewBox="0 0 59 58" fill="none" xmlns="http://www.w3.org/2000/svg">
<circle cx="27.9866" cy="22.5" r="4.5" fill="#F46144"/>
<circle cx="36.9866" cy="37.5" r="7.5" fill="#F4AE44"/>
<path d="M40.1741 41.8625C39.2657 42.6208 38.2032 43 36.9866 43C35.6032 43 34.4241 42.5125 33.4491 41.5375C32.4741 40.5625 31.9866 39.3833 31.9866 38C31.9866 36.6167 32.4741 35.4375 33.4491 34.4625C34.4241 33.4875 35.6032 33 36.9866 33C37.6699 33 38.3116 33.1292 38.9116 33.3875C39.5116 33.6458 40.0366 33.9917 40.4866 34.425V33H41.9866V37H37.9866V35.5H39.4366C39.1199 35.1833 38.7532 34.9375 38.3366 34.7625C37.9199 34.5875 37.4699 34.5 36.9866 34.5C36.0199 34.5 35.1949 34.8417 34.5116 35.525C33.8282 36.2083 33.4866 37.0333 33.4866 38C33.4866 38.9667 33.8282 39.7917 34.5116 40.475C35.1949 41.1583 36.0199 41.5 36.9866 41.5C37.7866 41.5 38.4907 41.2667 39.0991 40.8C39.7074 40.3333 40.1199 39.7333 40.3366 39H41.8866C41.6532 40.15 41.0824 41.1042 40.1741 41.8625Z" fill="#0E3D78"/>
<path d="M16.9866 39.735V36.2769C16.9866 35.5151 17.1935 34.8096 17.6073 34.1605C18.0211 33.5113 18.574 33.0123 19.2661 32.6632C20.8037 31.9094 22.3547 31.344 23.9193 30.9671C25.4838 30.5902 27.0618 30.4017 28.6532 30.4017C29.4829 30.4017 30.307 30.4526 31.1256 30.5543C31.9443 30.656 32.7655 30.8115 33.5891 31.0209L31.6417 32.9922C31.1308 32.9187 30.6328 32.8575 30.1475 32.8085C29.6622 32.7595 29.1641 32.735 28.6532 32.735C27.235 32.735 25.8295 32.905 24.4366 33.245C23.0437 33.5851 21.6771 34.0851 20.337 34.7452C20.0239 34.9148 19.7761 35.1337 19.5936 35.4019C19.4111 35.6701 19.3199 35.9618 19.3199 36.2769V37.4017H28.5336V39.735H16.9866ZM28.6532 27.8888C27.156 27.8888 25.8743 27.3557 24.8081 26.2895C23.7419 25.2233 23.2088 23.9416 23.2088 22.4444C23.2088 20.9472 23.7419 19.6655 24.8081 18.5993C25.8743 17.5331 27.156 17 28.6532 17C30.1504 17 31.4321 17.5331 32.4983 18.5993C33.5645 19.6655 34.0977 20.9472 34.0977 22.4444C34.0977 23.9416 33.5645 25.2233 32.4983 26.2895C31.4321 27.3557 30.1504 27.8888 28.6532 27.8888ZM28.6532 25.5555C29.5088 25.5555 30.2412 25.2509 30.8505 24.6416C31.4597 24.0324 31.7644 23.3 31.7644 22.4444C31.7644 21.5889 31.4597 20.8565 30.8505 20.2472C30.2412 19.6379 29.5088 19.3333 28.6532 19.3333C27.7977 19.3333 27.0653 19.6379 26.456 20.2472C25.8467 20.8565 25.5421 21.5889 25.5421 22.4444C25.5421 23.3 25.8467 24.0324 26.456 24.6416C27.0653 25.2509 27.7977 25.5555 28.6532 25.5555Z" fill="black"/>
</svg>
