<svg width="59" height="58" viewBox="0 0 59 58" fill="none" xmlns="http://www.w3.org/2000/svg">
<ellipse cx="29.4866" cy="39" rx="14.5" ry="7" fill="#C9EABE"/>
<path d="M36.8813 28.5719C37.2422 28.5719 37.5497 28.4424 37.8038 28.1834C38.0579 27.9244 38.1849 27.6111 38.1849 27.2433C38.1849 26.8755 38.0579 26.5622 37.8038 26.3032C37.5497 26.0442 37.2422 25.9147 36.8813 25.9147C36.5205 25.9147 36.213 26.0442 35.9589 26.3032C35.7048 26.5622 35.5777 26.8755 35.5777 27.2433C35.5777 27.6111 35.7048 27.9244 35.9589 28.1834C36.213 28.4424 36.5205 28.5719 36.8813 28.5719ZM24.1263 17.6417H31.4947V15.3889H24.1263V17.6417ZM20.4866 43.0134C19.7082 40.2753 18.9302 37.5507 18.1528 34.8395C17.3753 32.1284 16.9866 29.346 16.9866 26.4923C16.9866 24.4012 17.7017 22.6268 19.1319 21.1692C20.5621 19.7116 22.3032 18.9828 24.355 18.9828H32.0919C32.7664 18.0797 33.5755 17.3533 34.5192 16.8036C35.4629 16.2538 36.4959 15.9789 37.6182 15.9789C38.0244 15.9789 38.3715 16.1258 38.6596 16.4194C38.9478 16.713 39.0918 17.0668 39.0918 17.4808C39.0918 17.5829 39.0781 17.6849 39.0507 17.787C39.0233 17.889 38.9945 17.9834 38.9643 18.07C38.8282 18.432 38.7125 18.8027 38.6171 19.182C38.5217 19.5614 38.44 19.9446 38.372 20.3316L42.2064 24.2395H44.9866V33.4156L40.9651 34.7615L38.5392 43.0134H31.7235V40.0096H27.3023V43.0134H20.4866ZM22.1444 40.7606H25.0918V37.7567H33.9339V40.7606H36.8813L39.1655 33.0257L42.7761 31.7866V26.4923H41.3024L36.1445 21.2356C36.1445 20.735 36.1752 20.2531 36.2366 19.79C36.298 19.3269 36.3995 18.8624 36.5412 18.3964C35.829 18.5967 35.2074 18.9457 34.6765 19.4434C34.1456 19.9412 33.7384 20.5386 33.455 21.2356H24.355C22.9304 21.2356 21.7146 21.7488 20.7076 22.7751C19.7006 23.8014 19.1971 25.0405 19.1971 26.4923C19.1971 28.9455 19.5286 31.3423 20.1918 33.6828C20.855 36.0233 21.5058 38.3825 22.1444 40.7606Z" fill="black"/>
<path d="M29.1124 25.125V25.7541C29.5257 25.8217 29.9116 25.9469 30.2703 26.1295C30.6368 26.3121 30.9175 26.532 31.1124 26.789L29.9545 27.4891C29.7986 27.2659 29.5179 27.1036 29.1124 27.0021V29.072L29.4633 29.1938C29.5023 29.2005 29.592 29.2276 29.7323 29.2749C30.3093 29.4441 30.746 29.7112 31.0422 30.0765C31.3385 30.4418 31.4867 30.8477 31.4867 31.2941C31.4867 31.6526 31.3892 32.001 31.1943 32.3392C31.0072 32.6707 30.7343 32.9514 30.3756 33.1814C30.0169 33.4046 29.5959 33.5399 29.1124 33.5872V34.125H27.9662V33.5466C27.4048 33.4519 26.9019 33.2592 26.4575 32.9683C26.013 32.6774 25.6894 32.3155 25.4867 31.8826L26.7849 31.4057C26.8863 31.6222 27.0384 31.8082 27.2411 31.9638C27.4516 32.1126 27.6933 32.2242 27.9662 32.2986V29.9852C27.4984 29.8161 27.1475 29.6639 26.9136 29.5286C26.5549 29.3121 26.2742 29.0483 26.0715 28.7372C25.8766 28.4193 25.7791 28.0878 25.7791 27.7428C25.7791 27.4519 25.8571 27.1611 26.013 26.8702C26.1768 26.5726 26.4341 26.3223 26.7849 26.1194C27.1358 25.9164 27.5296 25.7845 27.9662 25.7236V25.125H29.1124ZM27.2762 27.3978C27.2216 27.5264 27.1943 27.638 27.1943 27.7327C27.1943 27.8815 27.2372 28.0269 27.323 28.169C27.4087 28.3043 27.5335 28.4193 27.6972 28.514C27.7362 28.541 27.8259 28.585 27.9662 28.6459V26.9717C27.8025 27.0055 27.6582 27.0596 27.5335 27.134C27.4165 27.2084 27.3307 27.2964 27.2762 27.3978ZM29.1124 32.3494C29.4087 32.2817 29.6465 32.1498 29.8259 31.9536C30.0052 31.7507 30.0949 31.5376 30.0949 31.3144C30.0949 31.1182 30.0247 30.9424 29.8844 30.7868C29.7518 30.6244 29.5491 30.5027 29.2762 30.4215L29.1124 30.3708V32.3494Z" fill="#F46144"/>
</svg>
