<svg width="59" height="58" viewBox="0 0 59 58" fill="none" xmlns="http://www.w3.org/2000/svg">
<path d="M40.8501 24.8665L41.7885 40.9902C41.8219 41.5643 41.3653 42.0483 40.7902 42.0483H18.1827C17.6076 42.0483 17.151 41.5643 17.1844 40.9902L18.1228 24.8665" stroke="#222222" stroke-width="2" stroke-linecap="round" stroke-linejoin="round"/>
<path d="M18.0319 26.7753C15.9227 26.7753 14.2137 25.1704 14.2137 23.1895L15.8763 17.4818C16.2493 16.2013 17.4229 15.3208 18.7566 15.3208H21.8501V23.1895C21.8501 25.1704 20.1412 26.7753 18.0319 26.7753Z" fill="#FCA675" stroke="#222222" stroke-width="1.5" stroke-linecap="round" stroke-linejoin="round"/>
<path d="M25.6683 26.7753C23.559 26.7753 21.8501 25.1704 21.8501 23.1895V15.3208H29.4865V23.1895C29.4865 25.1704 27.7775 26.7753 25.6683 26.7753Z" fill="#F46144" stroke="#222222" stroke-width="1.5" stroke-linecap="round" stroke-linejoin="round"/>
<path d="M33.3046 26.7753C31.1954 26.7753 29.4865 25.1704 29.4865 23.1895V15.3208H37.1228V23.1895C37.1228 25.1704 35.4139 26.7753 33.3046 26.7753Z" fill="#0E3D78" stroke="#222222" stroke-width="1.5" stroke-linecap="round" stroke-linejoin="round"/>
<path d="M40.941 26.7753C38.8317 26.7753 37.1228 25.1704 37.1228 23.1895V15.3208H40.2163C41.5501 15.3208 42.7236 16.2013 43.0966 17.4818L44.7592 23.1895C44.7592 25.1704 43.0502 26.7753 40.941 26.7753Z" fill="#F46144" stroke="#222222" stroke-width="1.5" stroke-linecap="round" stroke-linejoin="round"/>
<path d="M32.6863 30.9136V30V29.9H32.7863H33.9863H34.0863V30V33.2V33.3H33.9863H30.7863H30.6863V33.2V32V31.9H30.7863H31.6879C31.4898 31.7365 31.2698 31.6039 31.0276 31.5022C30.7074 31.3677 30.3606 31.3 29.9863 31.3C29.2395 31.3 28.6049 31.5628 28.077 32.0907C27.5491 32.6186 27.2863 33.2532 27.2863 34C27.2863 34.7468 27.5491 35.3814 28.077 35.9093C28.6049 36.4372 29.2395 36.7 29.9863 36.7C30.6053 36.7 31.1471 36.52 31.6155 36.1607C32.0854 35.8002 32.4031 35.338 32.5704 34.7717L32.5916 34.7H32.6663H33.9063H34.0287L34.0043 34.8199C33.8131 35.7623 33.3444 36.5457 32.6004 37.1668C31.8552 37.7889 30.9824 38.1 29.9863 38.1C28.8532 38.1 27.8844 37.6995 27.0856 36.9007C26.2868 36.1019 25.8863 35.1331 25.8863 34C25.8863 32.8669 26.2868 31.8981 27.0856 31.0993C27.8844 30.3005 28.8532 29.9 29.9863 29.9C30.546 29.9 31.0728 30.0059 31.5659 30.2182C31.9832 30.3978 32.3568 30.6296 32.6863 30.9136Z" fill="black" stroke="black" stroke-width="0.2"/>
</svg>
