<svg width="58" height="58" viewBox="0 0 58 58" fill="none" xmlns="http://www.w3.org/2000/svg">
<rect x="31.8473" y="39.1033" width="12" height="3" transform="rotate(-43.8775 31.8473 39.1033)" fill="#F46144"/>
<circle cx="27.5001" cy="22.5" r="4.5" fill="#F4AE44"/>
<path d="M16.0001 39.735V36.2769C16.0001 35.5151 16.207 34.8096 16.6209 34.1605C17.0347 33.5113 17.5876 33.0123 18.2796 32.6632C19.8172 31.9094 21.3683 31.344 22.9328 30.9671C24.4974 30.5902 26.0753 30.4017 27.6668 30.4017C28.4964 30.4017 29.3205 30.4526 30.1392 30.5543C30.9579 30.656 31.779 30.8115 32.6026 31.0209L30.6552 32.9922C30.1444 32.9187 29.6463 32.8575 29.161 32.8085C28.6757 32.7595 28.1776 32.735 27.6668 32.735C26.2486 32.735 24.843 32.905 23.4501 33.245C22.0572 33.5851 20.6907 34.0851 19.3505 34.7452C19.0374 34.9148 18.7896 35.1337 18.6072 35.4019C18.4247 35.6701 18.3334 35.9618 18.3334 36.2769V37.4017H27.5471V39.735H16.0001ZM30.9574 41.5897V37.4795L39.4023 29.0735C39.5957 28.88 39.8046 28.7439 40.0288 28.6651C40.2531 28.5864 40.4773 28.547 40.7016 28.547C40.9462 28.547 41.1828 28.5929 41.4114 28.6846C41.6399 28.7763 41.8477 28.9139 42.0347 29.0974L43.4736 30.5513C43.6411 30.7447 43.7708 30.9541 43.8625 31.1794C43.9542 31.4048 44.0001 31.6302 44.0001 31.8555C44.0001 32.0809 43.9582 32.3102 43.8745 32.5435C43.7907 32.7769 43.6571 32.9903 43.4736 33.1837L35.0676 41.5897H30.9574ZM32.8121 39.735H34.2899L39.3395 34.6615L38.6245 33.9226L37.9006 33.1927L32.8121 38.2572V39.735ZM38.6245 33.9226L37.9006 33.1927L39.3395 34.6615L38.6245 33.9226ZM27.6668 27.8888C26.1696 27.8888 24.8879 27.3557 23.8217 26.2895C22.7555 25.2233 22.2224 23.9416 22.2224 22.4444C22.2224 20.9472 22.7555 19.6655 23.8217 18.5993C24.8879 17.5331 26.1696 17 27.6668 17C29.164 17 30.4457 17.5331 31.5119 18.5993C32.5781 19.6655 33.1112 20.9472 33.1112 22.4444C33.1112 23.9416 32.5781 25.2233 31.5119 26.2895C30.4457 27.3557 29.164 27.8888 27.6668 27.8888ZM27.6668 25.5555C28.5223 25.5555 29.2547 25.2509 29.864 24.6416C30.4733 24.0324 30.7779 23.3 30.7779 22.4444C30.7779 21.5889 30.4733 20.8565 29.864 20.2472C29.2547 19.6379 28.5223 19.3333 27.6668 19.3333C26.8112 19.3333 26.0788 19.6379 25.4696 20.2472C24.8603 20.8565 24.5557 21.5889 24.5557 22.4444C24.5557 23.3 24.8603 24.0324 25.4696 24.6416C26.0788 25.2509 26.8112 25.5555 27.6668 25.5555Z" fill="black"/>
</svg>
