<svg width="400" height="640" viewBox="0 0 400 640" fill="none" xmlns="http://www.w3.org/2000/svg">
<g clip-path="url(#clip0_3657_22873)">
<rect x="0.5" y="0.5" width="399" height="639" rx="16.5" fill="#F2F5F6" stroke="#E1E1E1"/>
<mask id="mask0_3657_22873" style="mask-type:alpha" maskUnits="userSpaceOnUse" x="1" y="-1" width="398" height="640">
<rect x="1.5" y="-0.5" width="397" height="639" rx="16.5" stroke="#E1E1E1"/>
</mask>
<g mask="url(#mask0_3657_22873)">
</g>
<mask id="path-3-inside-1_3657_22873" fill="white">
<path d="M1 582H399V621C399 630.389 391.389 638 382 638H18C8.61117 638 1 630.389 1 621V582Z"/>
</mask>
<path d="M1 582H399V621C399 630.389 391.389 638 382 638H18C8.61117 638 1 630.389 1 621V582Z" fill="white"/>
<path d="M1 581H399V583H1V581ZM399 638H1H399ZM1 638V582V638ZM399 582V638V582Z" fill="#E1E1E1" mask="url(#path-3-inside-1_3657_22873)"/>
<circle cx="36" cy="610" r="15" fill="#EEF2F5"/>
<path d="M36 604L36 616" stroke="#99A8B5" stroke-width="2" stroke-linecap="round"/>
<path d="M30 610H42" stroke="#99A8B5" stroke-width="2" stroke-linecap="round"/>
<rect x="56" y="593" width="325" height="34" rx="17" fill="#EEF2F5"/>
<path d="M88.2656 610.484V611.5H82.6094V614.344H81.3906V611.5H75.5469V610.484H88.2656ZM77.1719 616.969V612.969H78.4062V615.938H86.8438V616.969H77.1719ZM77.2031 608.891V604.062H86.6094V608.891H77.2031ZM78.4062 607.906H85.3906V605.031H78.4062V607.906ZM94.0938 607.641C94.0781 609.867 95.6875 612.32 97.7031 613.281L97 614.25C95.4375 613.484 94.1172 611.844 93.4922 609.961C92.8516 612 91.4609 613.797 89.9062 614.594L89.1562 613.625C91.1562 612.648 92.875 610.008 92.8906 607.641V605.828H89.6562V604.812H97.2188V605.828H94.0938V607.641ZM98.9219 617.266V603.375H100.141V609H102.469V610.047H100.141V617.266H98.9219ZM113.062 605V608.625H115.172V603.672H116.344V616.562H115.172V609.641H113.062V613.531H107.75V605H113.062ZM108.906 612.547H111.906V605.984H108.906V612.547ZM117.953 617.266V603.375H119.141V617.266H117.953ZM125.188 607.328C125.188 609.539 126.266 611.922 128.109 613.016L127.406 613.969C126.062 613.156 125.102 611.672 124.617 609.977C124.109 611.828 123.078 613.422 121.688 614.266L120.906 613.344C122.828 612.219 124 609.758 124 607.375V604.688H125.188V607.328ZM126.578 609.406V608.359H128.938V603.672H130.094V616.562H128.938V609.406H126.578ZM131.781 617.266V603.375H132.969V617.266H131.781ZM139.859 607.641C139.867 610 141.578 612.398 143.625 613.281L142.938 614.25C141.312 613.516 139.914 611.914 139.266 609.992C138.617 612.031 137.211 613.797 135.625 614.594L134.891 613.625C136.883 612.672 138.617 610.047 138.625 607.641V605.828H135.344V604.812H143.172V605.828H139.859V607.641ZM145.109 617.266V603.375H146.344V617.266H145.109Z" fill="#99A8B5"/>
<mask id="mask1_3657_22873" style="mask-type:alpha" maskUnits="userSpaceOnUse" x="0" y="-1" width="400" height="640">
<rect x="0.5" y="-0.5" width="399" height="639" rx="16.5" fill="white" stroke="#E1E1E1"/>
</mask>
<g mask="url(#mask1_3657_22873)">
</g>
<path d="M1 18C1 8.61116 8.61116 1 18 1H382C391.389 1 399 8.61116 399 18V45H1V18Z" fill="white"/>
<path d="M20.856 17.6675C18.5635 17.6675 16.9302 19.2349 16.9302 21.3809V21.3955C16.9302 23.4023 18.3511 24.8818 20.3799 24.8818C21.8301 24.8818 22.7529 24.1421 23.1411 23.3071H23.2876C23.2876 23.3877 23.2803 23.4683 23.2803 23.5488C23.1997 25.5703 22.4893 27.2109 20.812 27.2109C19.8818 27.2109 19.23 26.7275 18.9517 25.9878L18.9297 25.9146H17.0693L17.084 25.9951C17.4209 27.6138 18.8711 28.7637 20.812 28.7637C23.4707 28.7637 25.0747 26.6543 25.0747 23.0947V23.0801C25.0747 19.2715 23.1118 17.6675 20.856 17.6675ZM20.8486 23.4316C19.6475 23.4316 18.7759 22.5527 18.7759 21.3296V21.3149C18.7759 20.1357 19.7061 19.2056 20.8706 19.2056C22.0425 19.2056 22.958 20.1504 22.958 21.3589V21.3735C22.958 22.5674 22.0425 23.4316 20.8486 23.4316ZM27.8999 21.6519C28.5737 21.6519 29.0645 21.1392 29.0645 20.4946C29.0645 19.8428 28.5737 19.3374 27.8999 19.3374C27.2334 19.3374 26.7354 19.8428 26.7354 20.4946C26.7354 21.1392 27.2334 21.6519 27.8999 21.6519ZM27.8999 27.0864C28.5737 27.0864 29.0645 26.5811 29.0645 25.9292C29.0645 25.2773 28.5737 24.772 27.8999 24.772C27.2334 24.772 26.7354 25.2773 26.7354 25.9292C26.7354 26.5811 27.2334 27.0864 27.8999 27.0864ZM35.8521 28.5H37.6611V26.4712H39.082V24.9111H37.6611V17.9312H34.9878C33.5522 20.1138 32.0508 22.5454 30.6812 24.9258V26.4712H35.8521V28.5ZM32.439 24.9551V24.8452C33.4644 23.0508 34.6875 21.0952 35.7715 19.4399H35.8813V24.9551H32.439ZM42.9619 28.5H44.8516V17.9312H42.9692L40.208 19.8721V21.6519L42.8374 19.7915H42.9619V28.5Z" fill="black"/>
<path opacity="0.35" d="M362.339 17.8347H379.005C380.202 17.8347 381.172 18.8047 381.172 20.0013V26.0013C381.172 27.198 380.202 28.168 379.005 28.168H362.339C361.142 28.168 360.172 27.198 360.172 26.0013V20.0013C360.172 18.8047 361.142 17.8347 362.339 17.8347Z" fill="black" stroke="black"/>
<path opacity="0.4" d="M382.672 21.0013V25.0013C383.477 24.6626 384 23.8745 384 23.0013C384 22.1282 383.477 21.3401 382.672 21.0013" fill="black"/>
<path d="M361.672 20.4347C361.672 19.8272 362.164 19.3347 362.772 19.3347H378.572C379.179 19.3347 379.672 19.8272 379.672 20.4347V25.568C379.672 26.1755 379.179 26.668 378.572 26.668H362.772C362.164 26.668 361.672 26.1755 361.672 25.568V20.4347Z" fill="black"/>
<path fill-rule="evenodd" clip-rule="evenodd" d="M347.003 19.6093C349.219 19.6094 351.35 20.4609 352.956 21.9877C353.077 22.1055 353.27 22.104 353.389 21.9843L354.545 20.8177C354.605 20.7569 354.639 20.6747 354.639 20.5891C354.638 20.5035 354.603 20.4217 354.542 20.3617C350.327 16.3221 343.678 16.3221 339.462 20.3617C339.401 20.4216 339.367 20.5034 339.366 20.589C339.366 20.6746 339.399 20.7569 339.459 20.8177L340.616 21.9843C340.735 22.1042 340.928 22.1057 341.049 21.9877C342.655 20.4608 344.787 19.6093 347.003 19.6093ZM347.003 23.405C348.22 23.4049 349.394 23.8574 350.297 24.6747C350.419 24.7906 350.611 24.7881 350.73 24.669L351.885 23.5023C351.946 23.4411 351.979 23.3581 351.978 23.2718C351.978 23.1856 351.942 23.1033 351.88 23.0433C349.132 20.4869 344.876 20.4869 342.128 23.0433C342.066 23.1033 342.03 23.1856 342.03 23.2719C342.029 23.3582 342.063 23.4412 342.123 23.5023L343.278 24.669C343.397 24.7881 343.589 24.7906 343.711 24.6747C344.613 23.858 345.786 23.4055 347.003 23.405ZM349.316 25.9588C349.318 26.0453 349.284 26.1287 349.222 26.1893L347.224 28.205C347.166 28.2642 347.086 28.2976 347.003 28.2976C346.92 28.2976 346.84 28.2642 346.781 28.205L344.783 26.1893C344.722 26.1287 344.688 26.0452 344.69 25.9587C344.691 25.8722 344.729 25.7903 344.793 25.7323C346.069 24.6534 347.937 24.6534 349.212 25.7323C349.277 25.7904 349.314 25.8723 349.316 25.9588Z" fill="black"/>
<path fill-rule="evenodd" clip-rule="evenodd" d="M333.339 17.6679H332.339C331.787 17.6679 331.339 18.1156 331.339 18.6679V27.3346C331.339 27.8869 331.787 28.3346 332.339 28.3346H333.339C333.891 28.3346 334.339 27.8869 334.339 27.3346V18.6679C334.339 18.1156 333.891 17.6679 333.339 17.6679ZM327.672 20.0013H328.672C329.224 20.0013 329.672 20.449 329.672 21.0013V27.3346C329.672 27.8869 329.224 28.3346 328.672 28.3346H327.672C327.12 28.3346 326.672 27.8869 326.672 27.3346V21.0013C326.672 20.449 327.12 20.0013 327.672 20.0013ZM324.006 22.3346H323.006C322.453 22.3346 322.006 22.7823 322.006 23.3346V27.3346C322.006 27.8869 322.453 28.3346 323.006 28.3346H324.006C324.558 28.3346 325.006 27.8869 325.006 27.3346V23.3346C325.006 22.7823 324.558 22.3346 324.006 22.3346ZM319.339 24.3346H318.339C317.787 24.3346 317.339 24.7823 317.339 25.3346V27.3346C317.339 27.8869 317.787 28.3346 318.339 28.3346H319.339C319.891 28.3346 320.339 27.8869 320.339 27.3346V25.3346C320.339 24.7823 319.891 24.3346 319.339 24.3346Z" fill="black"/>
<path fill-rule="evenodd" clip-rule="evenodd" d="M20 76.1311C20 66.6698 27.6112 59 37 59H364C373.389 59 381 66.6698 381 76.1311V538.67C381 548.131 373.389 555.801 364 555.801H35C26.7157 555.801 20 549.034 20 540.686V76.1311Z" fill="white"/>
<path d="M7 563.359C19.8 557.313 20.4 542.197 20.4 535.647L41.5 551.77C23.1 564.669 10.8333 564.871 7 563.359Z" fill="white"/>
</g>
<defs>
<clipPath id="clip0_3657_22873">
<rect width="400" height="640" fill="white"/>
</clipPath>
</defs>
</svg>
