<svg width="327" height="36" viewBox="0 0 327 36" fill="none" xmlns="http://www.w3.org/2000/svg">
<path d="M0.832275 1.05884H199.479V7.24131H0.832275V1.05884Z" fill="#C52922"/>
<path d="M4.61253 28.5196C4.73974 29.6898 4.42638 30.8655 3.73546 31.8104C2.8718 32.5257 1.81547 32.9586 0.705251 33.0524L0.520874 33.082L1.36879 35.3405L1.48858 35.3225C3.06939 35.1589 4.55456 34.4756 5.7188 33.3764C6.82359 32.0478 7.3659 30.3286 7.22713 28.5948V12.5208H4.61253V28.5196Z" fill="#030303"/>
<path d="M21.248 22.2216C21.3422 23.5846 20.9449 24.9358 20.1303 26.0227C19.2782 26.8468 18.1471 27.3064 16.971 27.3064C15.7948 27.3064 14.6636 26.8468 13.8116 26.0227C12.9967 24.936 12.5993 23.5846 12.6939 22.2216V12.5206H10.0553V22.05C9.98268 23.0598 10.1067 24.0743 10.4204 25.0352C10.7342 25.9962 11.2313 26.8848 11.8834 27.6502C13.3092 28.8661 15.1108 29.5327 16.972 29.5327C18.8331 29.5327 20.6348 28.8661 22.0605 27.6502C22.7123 26.8846 23.2091 25.9959 23.5226 25.035C23.8361 24.0741 23.9602 23.0597 23.8876 22.05V12.5206H21.248V22.2216Z" fill="#030303"/>
<path d="M39.1635 21.7758L39.2291 25.5992L29.4271 12.5799L29.3823 12.5206H26.7188V29.2024H29.2344V20.6047L29.101 16.0868L38.925 29.1431L38.9698 29.2024H41.7031V12.5217H39.1635V21.7758Z" fill="#030303"/>
<path d="M52.6188 22.6789H56.8011V26.6146C55.5804 27.2289 54.2293 27.5275 52.8678 27.4839C52.0685 27.5083 51.2726 27.3686 50.5277 27.0732C49.7828 26.7777 49.1041 26.3326 48.5324 25.7643C47.9543 25.1613 47.504 24.4441 47.2093 23.6572C46.9146 22.8703 46.7817 22.0303 46.8188 21.1892C46.7602 19.5015 47.3548 17.8578 48.4751 16.6108C49.0447 16.0116 49.733 15.5422 50.4943 15.2333C51.2557 14.9245 52.0728 14.7834 52.8917 14.8193C54.6824 14.7961 56.4312 15.3695 57.8709 16.452L58.0126 16.5579L59.0886 14.4402L58.9845 14.3619C57.2029 13.095 55.0659 12.4484 52.8928 12.5185C50.597 12.4679 48.3749 13.3435 46.7126 14.9538C45.8821 15.7526 45.2271 16.7209 44.7907 17.7952C44.3543 18.8694 44.1463 20.0253 44.1803 21.1871C44.1179 22.3618 44.3004 23.5367 44.7158 24.6348C45.1312 25.7329 45.7701 26.7294 46.5907 27.5591C48.227 29.099 50.393 29.9238 52.622 29.8556C55.0102 29.9415 57.3595 29.2227 59.3043 27.811L59.3647 27.7645V20.4798H52.6188V22.6789Z" fill="#030303"/>
<path d="M80.9011 12.522H77.9042L70.2511 22.4114V12.522H67.6948V33.3808H70.2511V26.365L72.5303 23.3146L78.7969 33.3797H81.7042L74.2417 21.2117L80.9011 12.522Z" fill="#030303"/>
<path d="M102.594 12.5217L98.5636 26.3108L94.4146 12.5217H92.099L88.175 26.2864L84.6115 12.5217H81.7594L86.3938 29.2035H89.7427L93.2469 17.2526L96.7271 29.2035H100.095L105.278 12.5217H102.594Z" fill="#030303"/>
<path d="M109.667 12.5206L103.027 29.2024H105.591L107.583 24.2397H114.386L116.477 29.2024H119.045L112.253 12.5206H109.667ZM111.021 15.1465L113.527 21.9675H108.472L111.002 15.1465H111.021Z" fill="#030303"/>
<path d="M132.822 21.7759L132.888 25.5993L123.038 12.5217H120.378V29.2035H122.894V20.6058L122.76 16.0879L132.63 29.2035H135.364V12.5217H132.822V21.7759Z" fill="#030303"/>
<path d="M177.851 21.7757L177.917 25.5991L168.111 12.5851L168.067 12.5258H165.407V29.2076H167.923V20.61L167.79 16.092L177.614 29.1483L177.659 29.2076H180.393V12.5216H177.853L177.851 21.7757Z" fill="#030303"/>
<path d="M154.696 12.5206L148.056 29.2024H150.62L152.612 24.2397H159.416L161.506 29.2024H164.074L157.282 12.5206H154.696ZM156.05 15.1465L158.557 21.9675H153.502L156.032 15.1465H156.05Z" fill="#030303"/>
<path d="M143.699 28.5196C143.826 29.6898 143.513 30.8655 142.822 31.8104C141.958 32.5257 140.902 32.9586 139.792 33.0524L139.607 33.082L140.455 35.3405L140.574 35.3225C142.155 35.1589 143.64 34.4756 144.804 33.3764C145.909 32.0478 146.451 30.3286 146.312 28.5948V12.5208H143.699V28.5196Z" fill="#030303"/>
<path d="M191.305 22.6789H195.488V26.6146C194.267 27.2289 192.916 27.5275 191.554 27.4839C190.755 27.5083 189.959 27.3686 189.214 27.0732C188.469 26.7777 187.791 26.3326 187.219 25.7643C186.641 25.1613 186.19 24.4441 185.896 23.6572C185.601 22.8703 185.468 22.0303 185.505 21.1892C185.447 19.5015 186.041 17.8578 187.161 16.6108C187.731 16.0116 188.419 15.5422 189.181 15.2333C189.942 14.9245 190.759 14.7834 191.578 14.8193C193.369 14.7961 195.118 15.3695 196.557 16.452L196.699 16.5579L197.775 14.4402L197.671 14.3619C195.889 13.095 193.752 12.4484 191.579 12.5185C189.283 12.468 187.061 13.3436 185.399 14.9538C184.569 15.7526 183.914 16.7209 183.477 17.7952C183.041 18.8694 182.833 20.0253 182.867 21.1871C182.804 22.3618 182.987 23.5367 183.402 24.6349C183.817 25.733 184.456 26.7295 185.277 27.5591C186.913 29.099 189.079 29.9238 191.308 29.8556C193.697 29.9417 196.047 29.2229 197.992 27.811L198.052 27.7645V20.4798H191.305V22.6789Z" fill="#030303"/>
<path d="M211.325 29.3334V12.5334H214.541L221.693 24.3894H219.989L227.021 12.5334H230.213L230.261 29.3334H226.613L226.589 18.1254H227.261L221.645 27.5574H219.893L214.157 18.1254H214.973V29.3334H211.325Z" fill="#030303"/>
<path d="M240.391 29.5254C238.919 29.5254 237.623 29.2374 236.503 28.6614C235.399 28.0854 234.543 27.3014 233.935 26.3094C233.327 25.3014 233.023 24.1574 233.023 22.8774C233.023 21.5814 233.319 20.4374 233.911 19.4454C234.519 18.4374 235.343 17.6534 236.383 17.0934C237.423 16.5174 238.599 16.2294 239.911 16.2294C241.175 16.2294 242.311 16.5014 243.319 17.0454C244.343 17.5734 245.151 18.3414 245.743 19.3494C246.335 20.3414 246.631 21.5334 246.631 22.9254C246.631 23.0694 246.623 23.2374 246.607 23.4294C246.591 23.6054 246.575 23.7734 246.559 23.9334H236.071V21.7494H244.591L243.151 22.3974C243.151 21.7254 243.015 21.1414 242.743 20.6454C242.471 20.1494 242.095 19.7654 241.615 19.4934C241.135 19.2054 240.575 19.0614 239.935 19.0614C239.295 19.0614 238.727 19.2054 238.231 19.4934C237.751 19.7654 237.375 20.1574 237.103 20.6694C236.831 21.1654 236.695 21.7574 236.695 22.4454V23.0214C236.695 23.7254 236.847 24.3494 237.151 24.8934C237.471 25.4214 237.911 25.8294 238.471 26.1174C239.047 26.3894 239.719 26.5254 240.487 26.5254C241.175 26.5254 241.775 26.4214 242.287 26.2134C242.815 26.0054 243.295 25.6934 243.727 25.2774L245.719 27.4374C245.127 28.1094 244.383 28.6294 243.487 28.9974C242.591 29.3494 241.559 29.5254 240.391 29.5254Z" fill="#030303"/>
<path d="M265.66 16.2294C266.684 16.2294 267.588 16.4374 268.372 16.8534C269.172 17.2534 269.796 17.8774 270.244 18.7254C270.708 19.5574 270.94 20.6294 270.94 21.9414V29.3334H267.196V22.5174C267.196 21.4774 266.98 20.7094 266.548 20.2134C266.116 19.7174 265.508 19.4694 264.724 19.4694C264.18 19.4694 263.692 19.5974 263.26 19.8534C262.828 20.0934 262.492 20.4614 262.252 20.9574C262.012 21.4534 261.892 22.0854 261.892 22.8534V29.3334H258.148V22.5174C258.148 21.4774 257.932 20.7094 257.5 20.2134C257.084 19.7174 256.484 19.4694 255.7 19.4694C255.156 19.4694 254.668 19.5974 254.236 19.8534C253.804 20.0934 253.468 20.4614 253.228 20.9574C252.988 21.4534 252.868 22.0854 252.868 22.8534V29.3334H249.124V16.4214H252.7V19.9494L252.028 18.9174C252.476 18.0374 253.108 17.3734 253.924 16.9254C254.756 16.4614 255.7 16.2294 256.756 16.2294C257.94 16.2294 258.972 16.5334 259.852 17.1414C260.748 17.7334 261.34 18.6454 261.628 19.8774L260.308 19.5174C260.74 18.5094 261.428 17.7094 262.372 17.1174C263.332 16.5254 264.428 16.2294 265.66 16.2294Z" fill="#030303"/>
<path d="M281.928 29.5254C280.792 29.5254 279.816 29.2854 279 28.8054C278.184 28.3254 277.56 27.5974 277.128 26.6214C276.696 25.6294 276.48 24.3814 276.48 22.8774C276.48 21.3574 276.704 20.1094 277.152 19.1334C277.616 18.1574 278.256 17.4294 279.072 16.9494C279.888 16.4694 280.84 16.2294 281.928 16.2294C283.144 16.2294 284.232 16.5014 285.192 17.0454C286.168 17.5894 286.936 18.3574 287.496 19.3494C288.072 20.3414 288.36 21.5174 288.36 22.8774C288.36 24.2214 288.072 25.3894 287.496 26.3814C286.936 27.3734 286.168 28.1494 285.192 28.7094C284.232 29.2534 283.144 29.5254 281.928 29.5254ZM274.296 29.3334V11.5254H278.04V19.0374L277.8 22.8534L277.872 26.6934V29.3334H274.296ZM281.28 26.4534C281.904 26.4534 282.456 26.3094 282.936 26.0214C283.432 25.7334 283.824 25.3254 284.112 24.7974C284.416 24.2534 284.568 23.6134 284.568 22.8774C284.568 22.1254 284.416 21.4854 284.112 20.9574C283.824 20.4294 283.432 20.0214 282.936 19.7334C282.456 19.4454 281.904 19.3014 281.28 19.3014C280.656 19.3014 280.096 19.4454 279.6 19.7334C279.104 20.0214 278.712 20.4294 278.424 20.9574C278.136 21.4854 277.992 22.1254 277.992 22.8774C277.992 23.6134 278.136 24.2534 278.424 24.7974C278.712 25.3254 279.104 25.7334 279.6 26.0214C280.096 26.3094 280.656 26.4534 281.28 26.4534Z" fill="#030303"/>
<path d="M297.274 29.5254C295.802 29.5254 294.506 29.2374 293.386 28.6614C292.282 28.0854 291.426 27.3014 290.818 26.3094C290.21 25.3014 289.906 24.1574 289.906 22.8774C289.906 21.5814 290.202 20.4374 290.794 19.4454C291.402 18.4374 292.226 17.6534 293.266 17.0934C294.306 16.5174 295.482 16.2294 296.794 16.2294C298.058 16.2294 299.194 16.5014 300.202 17.0454C301.226 17.5734 302.034 18.3414 302.626 19.3494C303.218 20.3414 303.514 21.5334 303.514 22.9254C303.514 23.0694 303.506 23.2374 303.49 23.4294C303.474 23.6054 303.458 23.7734 303.442 23.9334H292.954V21.7494H301.474L300.034 22.3974C300.034 21.7254 299.898 21.1414 299.626 20.6454C299.354 20.1494 298.978 19.7654 298.498 19.4934C298.018 19.2054 297.458 19.0614 296.818 19.0614C296.178 19.0614 295.61 19.2054 295.114 19.4934C294.634 19.7654 294.258 20.1574 293.986 20.6694C293.714 21.1654 293.578 21.7574 293.578 22.4454V23.0214C293.578 23.7254 293.73 24.3494 294.034 24.8934C294.354 25.4214 294.794 25.8294 295.354 26.1174C295.93 26.3894 296.602 26.5254 297.37 26.5254C298.058 26.5254 298.658 26.4214 299.17 26.2134C299.698 26.0054 300.178 25.6934 300.61 25.2774L302.602 27.4374C302.01 28.1094 301.266 28.6294 300.37 28.9974C299.474 29.3494 298.442 29.5254 297.274 29.5254Z" fill="#030303"/>
<path d="M306.007 29.3334V16.4214H309.583V20.0694L309.079 19.0134C309.463 18.1014 310.079 17.4134 310.927 16.9494C311.775 16.4694 312.807 16.2294 314.023 16.2294V19.6854C313.863 19.6694 313.719 19.6614 313.591 19.6614C313.463 19.6454 313.327 19.6374 313.183 19.6374C312.159 19.6374 311.327 19.9334 310.687 20.5254C310.063 21.1014 309.751 22.0054 309.751 23.2374V29.3334H306.007Z" fill="#030303"/>
<path d="M320.687 29.5254C319.583 29.5254 318.519 29.3974 317.495 29.1414C316.487 28.8694 315.687 28.5334 315.095 28.1334L316.343 25.4454C316.935 25.8134 317.631 26.1174 318.431 26.3574C319.247 26.5814 320.047 26.6934 320.831 26.6934C321.695 26.6934 322.303 26.5894 322.655 26.3814C323.023 26.1734 323.207 25.8854 323.207 25.5174C323.207 25.2134 323.063 24.9894 322.775 24.8454C322.503 24.6854 322.135 24.5654 321.671 24.4854C321.207 24.4054 320.695 24.3254 320.135 24.2454C319.591 24.1654 319.039 24.0614 318.479 23.9334C317.919 23.7894 317.407 23.5814 316.943 23.3094C316.479 23.0374 316.103 22.6694 315.815 22.2054C315.543 21.7414 315.407 21.1414 315.407 20.4054C315.407 19.5894 315.639 18.8694 316.103 18.2454C316.583 17.6214 317.271 17.1334 318.167 16.7814C319.063 16.4134 320.135 16.2294 321.383 16.2294C322.263 16.2294 323.159 16.3254 324.071 16.5174C324.983 16.7094 325.743 16.9894 326.351 17.3574L325.103 20.0214C324.479 19.6534 323.847 19.4054 323.207 19.2774C322.583 19.1334 321.975 19.0614 321.383 19.0614C320.551 19.0614 319.943 19.1734 319.559 19.3974C319.175 19.6214 318.983 19.9094 318.983 20.2614C318.983 20.5814 319.119 20.8214 319.391 20.9814C319.679 21.1414 320.055 21.2694 320.519 21.3654C320.983 21.4614 321.487 21.5494 322.031 21.6294C322.591 21.6934 323.151 21.7974 323.711 21.9414C324.271 22.0854 324.775 22.2934 325.223 22.5654C325.687 22.8214 326.063 23.1814 326.351 23.6454C326.639 24.0934 326.783 24.6854 326.783 25.4214C326.783 26.2214 326.543 26.9334 326.063 27.5574C325.583 28.1654 324.887 28.6454 323.975 28.9974C323.079 29.3494 321.983 29.5254 320.687 29.5254Z" fill="#030303"/>
</svg>
