<svg width="24" height="24" viewBox="0 0 24 24" fill="none" xmlns="http://www.w3.org/2000/svg">
    <path d="M19.048 4.95141C18.7126 4.61593 18.1686 4.61593 17.8332 4.95141L12 10.7845L6.16693 4.95141C5.83145 4.61593 5.28753 4.61593 4.95205 4.95141C4.61657 5.28689 4.61657 5.83081 4.95205 6.16629L10.7852 11.9994L4.95166 17.8329C4.61618 18.1684 4.61618 18.7123 4.95166 19.0478C5.28714 19.3833 5.83106 19.3833 6.16654 19.0478L12 13.2143L17.8336 19.0478C18.169 19.3833 18.713 19.3833 19.0484 19.0478C19.3839 18.7123 19.3839 18.1684 19.0484 17.8329L13.2149 11.9994L19.048 6.16629C19.3835 5.83081 19.3835 5.28689 19.048 4.95141Z" fill="#888888" stroke="#888888" stroke-width="0.2" stroke-linecap="round"/>
</svg>
