<svg width="20" height="20" viewBox="0 0 20 20" fill="none" xmlns="http://www.w3.org/2000/svg">
<circle cx="10" cy="10" r="10" fill="#5F0000"/>
<path fill-rule="evenodd" clip-rule="evenodd" d="M6.49531 12.1218C7.26823 13.2641 8.43733 14.5013 10.0026 15.8332C11.5679 14.5013 12.737 13.2641 13.5099 12.1218C14.2828 10.9794 14.6693 9.92212 14.6693 8.9499C14.6693 7.49157 14.2002 6.32976 13.262 5.46448C12.3238 4.5992 11.2373 4.16656 10.0026 4.16656C8.76788 4.16656 7.68142 4.5992 6.74323 5.46448C5.80503 6.32976 5.33594 7.49157 5.33594 8.9499C5.33594 9.92212 5.7224 10.9794 6.49531 12.1218ZM10.0015 10.4465C11.037 10.4465 11.8765 9.60701 11.8765 8.57147C11.8765 7.53594 11.037 6.69647 10.0015 6.69647C8.96593 6.69647 8.12646 7.53594 8.12646 8.57147C8.12646 9.60701 8.96593 10.4465 10.0015 10.4465Z" fill="white"/>
</svg>
