<svg width="179" height="20" viewBox="0 0 179 20" fill="none" xmlns="http://www.w3.org/2000/svg">
    <g clip-path="url(#clip0_668_10750)">
    <path d="M0.458466 0.583008H109.878V3.98847H0.458466V0.583008Z" fill="white"/>
    <path d="M2.54069 15.709C2.61075 16.3536 2.43815 17.0012 2.05757 17.5217C1.58185 17.9157 0.999989 18.1542 0.388455 18.2058L0.286896 18.2222L0.753947 19.4662L0.819934 19.4563C1.69068 19.3661 2.50875 18.9898 3.15004 18.3843C3.75859 17.6525 4.05731 16.7055 3.98087 15.7504V6.89648H2.54069V15.709Z" fill="white"/>
    <path d="M11.7039 12.24C11.7558 12.9908 11.5369 13.7351 11.0882 14.3338C10.6189 14.7877 9.99582 15.0409 9.34797 15.0409C8.70011 15.0409 8.07704 14.7877 7.60769 14.3338C7.15885 13.7352 6.93998 12.9908 6.99203 12.24V6.89648H5.53866V12.1455C5.49865 12.7017 5.56699 13.2605 5.73979 13.7898C5.91258 14.3192 6.18644 14.8086 6.54564 15.2302C7.33099 15.9 8.32336 16.2671 9.34853 16.2671C10.3737 16.2671 11.3661 15.9 12.1514 15.2302C12.5104 14.8085 12.7841 14.319 12.9568 13.7897C13.1295 13.2604 13.1978 12.7017 13.1578 12.1455V6.89648H11.7039V12.24Z" fill="white"/>
    <path d="M21.5723 11.9945L21.6084 14.1005L16.2092 6.92914L16.1845 6.89648H14.7174V16.0852H16.1031V11.3494L16.0296 8.86079L21.4409 16.0526L21.4656 16.0852H22.9711V6.89707H21.5723V11.9945Z" fill="white"/>
    <path d="M28.9837 12.4921H31.2875V14.6599C30.615 14.9983 29.8708 15.1628 29.1209 15.1387C28.6806 15.1522 28.2422 15.0753 27.8319 14.9125C27.4216 14.7498 27.0477 14.5046 26.7328 14.1916C26.4144 13.8594 26.1663 13.4644 26.004 13.0309C25.8417 12.5975 25.7685 12.1348 25.7889 11.6715C25.7566 10.7419 26.0842 9.83645 26.7013 9.14959C27.015 8.81955 27.3941 8.56094 27.8135 8.39083C28.2329 8.22073 28.6829 8.14299 29.1341 8.16277C30.1204 8.14997 31.0837 8.46585 31.8767 9.06211L31.9547 9.12043L32.5475 7.95397L32.4901 7.91081C31.5088 7.21302 30.3316 6.8568 29.1346 6.89542C27.8701 6.86755 26.6461 7.34985 25.7304 8.23684C25.2729 8.67686 24.9122 9.21023 24.6718 9.80196C24.4314 10.3937 24.3168 11.0304 24.3356 11.6703C24.3012 12.3174 24.4017 12.9646 24.6305 13.5694C24.8593 14.1743 25.2113 14.7232 25.6633 15.1802C26.5646 16.0284 27.7577 16.4827 28.9854 16.4452C30.301 16.4925 31.595 16.0965 32.6662 15.319L32.6995 15.2933V11.2807H28.9837V12.4921Z" fill="white"/>
    <path d="M44.5623 6.89746H42.9116L38.696 12.3448V6.89746H37.288V18.387H38.696V14.5226L39.9515 12.8423L43.4033 18.3864H45.0047L40.8942 11.684L44.5623 6.89746Z" fill="white"/>
    <path d="M56.5112 6.89697L54.2913 14.4923L52.0059 6.89697H50.7304L48.569 14.4789L46.6061 6.89697H45.0351L47.5879 16.0857H49.4325L51.3627 9.50283L53.2797 16.0857H55.1347L57.9898 6.89697H56.5112Z" fill="white"/>
    <path d="M60.4072 6.89648L56.7499 16.0852H58.162L59.2596 13.3516H63.007L64.1585 16.0852H65.5729L61.8319 6.89648H60.4072ZM61.1531 8.34289L62.5336 12.1H59.749L61.1427 8.34289H61.1531Z" fill="white"/>
    <path d="M73.1616 11.9944L73.1978 14.1004L67.7722 6.89697H66.3073V16.0857H67.693V11.3499L67.6195 8.86128L73.0561 16.0857H74.5617V6.89697H73.1616V11.9944Z" fill="white"/>
    <path d="M97.9648 11.9944L98.001 14.1004L92.6 6.93197L92.5753 6.89931H91.1105V16.088H92.4962V11.3522L92.4227 8.86361L97.834 16.0554L97.8593 16.088H99.3648V6.89697H97.966L97.9648 11.9944Z" fill="white"/>
    <path d="M85.2104 6.89648L81.5531 16.0852H82.9652L84.0628 13.3516H87.8102L88.9617 16.0852H90.3761L86.6351 6.89648H85.2104ZM85.9563 8.34289L87.3374 12.1H84.5528L85.9465 8.34289H85.9563Z" fill="white"/>
    <path d="M79.153 15.709C79.2231 16.3536 79.0505 17.0012 78.6699 17.5217C78.1942 17.9157 77.6123 18.1542 77.0008 18.2058L76.8992 18.2222L77.3663 19.4662L77.4317 19.4563C78.3024 19.3661 79.1205 18.9898 79.7618 18.3843C80.3703 17.6525 80.6691 16.7055 80.5926 15.7504V6.89648H79.153V15.709Z" fill="white"/>
    <path d="M105.376 12.4921H107.679V14.6599C107.007 14.9983 106.263 15.1628 105.513 15.1387C105.073 15.1522 104.634 15.0753 104.224 14.9125C103.814 14.7498 103.44 14.5046 103.125 14.1916C102.806 13.8594 102.558 13.4644 102.396 13.0309C102.234 12.5975 102.16 12.1348 102.181 11.6715C102.149 10.7419 102.476 9.83645 103.093 9.14959C103.407 8.81955 103.786 8.56094 104.205 8.39083C104.625 8.22073 105.075 8.14299 105.526 8.16277C106.512 8.14997 107.476 8.46585 108.269 9.06211L108.347 9.12043L108.939 7.95397L108.882 7.91081C107.901 7.21302 106.724 6.8568 105.527 6.89542C104.262 6.86761 103.038 7.34991 102.122 8.23684C101.665 8.67686 101.304 9.21023 101.064 9.80196C100.823 10.3937 100.709 11.0304 100.728 11.6703C100.693 12.3174 100.794 12.9646 101.022 13.5694C101.251 14.1743 101.603 14.7232 102.055 15.1802C102.957 16.0284 104.15 16.4827 105.377 16.4452C106.693 16.4926 107.987 16.0966 109.059 15.319L109.092 15.2933V11.2807H105.376V12.4921Z" fill="white"/>
    </g>
    <path d="M115.403 16.1572V6.90338H117.175L121.114 13.434H120.175L124.049 6.90338H125.807L125.834 16.1572H123.824L123.811 9.98359H124.181L121.088 15.179H120.123L116.963 9.98359H117.412V16.1572H115.403Z" fill="white"/>
    <path d="M131.413 16.263C130.602 16.263 129.889 16.1044 129.272 15.7871C128.664 15.4698 128.192 15.038 127.857 14.4915C127.522 13.9363 127.355 13.3062 127.355 12.6011C127.355 11.8872 127.518 11.2571 127.844 10.7107C128.179 10.1554 128.633 9.7236 129.206 9.41514C129.778 9.09786 130.426 8.93923 131.149 8.93923C131.845 8.93923 132.471 9.08905 133.026 9.3887C133.59 9.67954 134.035 10.1026 134.361 10.6578C134.687 11.2042 134.85 11.8608 134.85 12.6276C134.85 12.7069 134.846 12.7994 134.837 12.9052C134.828 13.0021 134.82 13.0947 134.811 13.1828H129.034V11.9798H133.727L132.934 12.3367C132.934 11.9666 132.859 11.6449 132.709 11.3717C132.559 11.0985 132.352 10.8869 132.088 10.7371C131.823 10.5785 131.515 10.4992 131.162 10.4992C130.81 10.4992 130.497 10.5785 130.224 10.7371C129.959 10.8869 129.752 11.1029 129.602 11.3849C129.452 11.6581 129.377 11.9842 129.377 12.3632V12.6804C129.377 13.0682 129.461 13.4119 129.629 13.7116C129.805 14.0024 130.047 14.2271 130.356 14.3858C130.673 14.5356 131.043 14.6105 131.466 14.6105C131.845 14.6105 132.176 14.5532 132.458 14.4387C132.748 14.3241 133.013 14.1522 133.251 13.9231L134.348 15.1129C134.022 15.483 133.612 15.7695 133.119 15.9722C132.625 16.1661 132.057 16.263 131.413 16.263Z" fill="white"/>
    <path d="M145.332 8.93923C145.896 8.93923 146.394 9.0538 146.826 9.28294C147.266 9.50327 147.61 9.84699 147.857 10.3141C148.112 10.7724 148.24 11.3629 148.24 12.0855V16.1572H146.178V12.4028C146.178 11.83 146.059 11.4069 145.821 11.1337C145.583 10.8605 145.248 10.7239 144.816 10.7239C144.517 10.7239 144.248 10.7944 144.01 10.9354C143.772 11.0676 143.587 11.2703 143.455 11.5435C143.322 11.8167 143.256 12.1649 143.256 12.5879V16.1572H141.194V12.4028C141.194 11.83 141.075 11.4069 140.837 11.1337C140.608 10.8605 140.278 10.7239 139.846 10.7239C139.546 10.7239 139.277 10.7944 139.039 10.9354C138.801 11.0676 138.616 11.2703 138.484 11.5435C138.352 11.8167 138.286 12.1649 138.286 12.5879V16.1572H136.223V9.04498H138.193V10.9883L137.823 10.4198C138.07 9.93512 138.418 9.56937 138.867 9.3226C139.326 9.06702 139.846 8.93923 140.427 8.93923C141.08 8.93923 141.648 9.10668 142.133 9.44158C142.626 9.76767 142.952 10.27 143.111 10.9486L142.384 10.7503C142.622 10.1951 143.001 9.75445 143.521 9.42836C144.05 9.10227 144.653 8.93923 145.332 8.93923Z" fill="white"/>
    <path d="M154.293 16.263C153.667 16.263 153.129 16.1308 152.68 15.8664C152.23 15.602 151.887 15.201 151.649 14.6634C151.411 14.117 151.292 13.4296 151.292 12.6011C151.292 11.7639 151.415 11.0764 151.662 10.5388C151.917 10.0012 152.27 9.60022 152.719 9.33582C153.169 9.07142 153.693 8.93923 154.293 8.93923C154.962 8.93923 155.562 9.08905 156.091 9.3887C156.628 9.68835 157.051 10.1114 157.36 10.6578C157.677 11.2042 157.836 11.852 157.836 12.6011C157.836 13.3414 157.677 13.9848 157.36 14.5312C157.051 15.0776 156.628 15.5051 156.091 15.8135C155.562 16.1132 154.962 16.263 154.293 16.263ZM150.089 16.1572V6.34814H152.151V10.4859L152.019 12.5879L152.058 14.7031V16.1572H150.089ZM153.936 14.5709C154.279 14.5709 154.583 14.4915 154.848 14.3329C155.121 14.1743 155.337 13.9495 155.496 13.6587C155.663 13.359 155.747 13.0065 155.747 12.6011C155.747 12.1869 155.663 11.8344 155.496 11.5435C155.337 11.2527 155.121 11.028 154.848 10.8693C154.583 10.7107 154.279 10.6314 153.936 10.6314C153.592 10.6314 153.284 10.7107 153.01 10.8693C152.737 11.028 152.521 11.2527 152.363 11.5435C152.204 11.8344 152.125 12.1869 152.125 12.6011C152.125 13.0065 152.204 13.359 152.363 13.6587C152.521 13.9495 152.737 14.1743 153.01 14.3329C153.284 14.4915 153.592 14.5709 153.936 14.5709Z" fill="white"/>
    <path d="M162.746 16.263C161.935 16.263 161.221 16.1044 160.604 15.7871C159.996 15.4698 159.525 15.038 159.19 14.4915C158.855 13.9363 158.687 13.3062 158.687 12.6011C158.687 11.8872 158.85 11.2571 159.176 10.7107C159.511 10.1554 159.965 9.7236 160.538 9.41514C161.111 9.09786 161.759 8.93923 162.481 8.93923C163.178 8.93923 163.803 9.08905 164.359 9.3887C164.923 9.67954 165.368 10.1026 165.694 10.6578C166.02 11.2042 166.183 11.8608 166.183 12.6276C166.183 12.7069 166.179 12.7994 166.17 12.9052C166.161 13.0021 166.152 13.0947 166.143 13.1828H160.366V11.9798H165.059L164.266 12.3367C164.266 11.9666 164.191 11.6449 164.041 11.3717C163.891 11.0985 163.684 10.8869 163.42 10.7371C163.156 10.5785 162.847 10.4992 162.495 10.4992C162.142 10.4992 161.829 10.5785 161.556 10.7371C161.292 10.8869 161.084 11.1029 160.935 11.3849C160.785 11.6581 160.71 11.9842 160.71 12.3632V12.6804C160.71 13.0682 160.794 13.4119 160.961 13.7116C161.137 14.0024 161.38 14.2271 161.688 14.3858C162.005 14.5356 162.376 14.6105 162.799 14.6105C163.178 14.6105 163.508 14.5532 163.79 14.4387C164.081 14.3241 164.345 14.1522 164.583 13.9231L165.681 15.1129C165.354 15.483 164.945 15.7695 164.451 15.9722C163.958 16.1661 163.389 16.263 162.746 16.263Z" fill="white"/>
    <path d="M167.556 16.1572V9.04498H169.526V11.0544L169.248 10.4727C169.46 9.97037 169.799 9.5914 170.266 9.33582C170.733 9.07142 171.302 8.93923 171.971 8.93923V10.8429C171.883 10.8341 171.804 10.8297 171.733 10.8297C171.663 10.8208 171.588 10.8164 171.509 10.8164C170.945 10.8164 170.486 10.9795 170.134 11.3056C169.79 11.6228 169.618 12.1208 169.618 12.7994V16.1572H167.556Z" fill="white"/>
    <path d="M175.642 16.263C175.034 16.263 174.448 16.1925 173.884 16.0515C173.329 15.9017 172.888 15.7166 172.562 15.4962L173.249 14.0156C173.575 14.2183 173.959 14.3858 174.399 14.518C174.849 14.6414 175.289 14.7031 175.721 14.7031C176.197 14.7031 176.532 14.6458 176.726 14.5312C176.929 14.4166 177.03 14.258 177.03 14.0553C177.03 13.8878 176.951 13.7645 176.792 13.6851C176.642 13.597 176.44 13.5309 176.184 13.4868C175.928 13.4428 175.646 13.3987 175.338 13.3546C175.038 13.3106 174.734 13.2533 174.426 13.1828C174.117 13.1035 173.835 12.9889 173.58 12.8391C173.324 12.6892 173.117 12.4865 172.958 12.231C172.809 11.9754 172.734 11.6449 172.734 11.2395C172.734 10.79 172.861 10.3934 173.117 10.0497C173.381 9.70597 173.76 9.43717 174.254 9.24328C174.747 9.04058 175.338 8.93923 176.025 8.93923C176.51 8.93923 177.004 8.99211 177.506 9.09786C178.008 9.20362 178.427 9.35785 178.762 9.56056L178.074 11.028C177.731 10.8253 177.383 10.6886 177.03 10.6181C176.686 10.5388 176.351 10.4992 176.025 10.4992C175.567 10.4992 175.232 10.5609 175.021 10.6842C174.809 10.8076 174.703 10.9663 174.703 11.1602C174.703 11.3364 174.778 11.4686 174.928 11.5567C175.087 11.6449 175.294 11.7154 175.549 11.7683C175.805 11.8211 176.083 11.8696 176.382 11.9137C176.691 11.9489 176.999 12.0062 177.308 12.0855C177.616 12.1649 177.894 12.2794 178.141 12.4293C178.396 12.5703 178.603 12.7686 178.762 13.0241C178.921 13.2709 179 13.597 179 14.0024C179 14.4431 178.868 14.8353 178.603 15.179C178.339 15.5139 177.955 15.7783 177.453 15.9722C176.96 16.1661 176.356 16.263 175.642 16.263Z" fill="white"/>
    <defs>
    <clipPath id="clip0_668_10750">
    <rect width="110.165" height="19.8297" fill="white"/>
    </clipPath>
    </defs>
</svg>
