<svg width="64" height="64" viewBox="0 0 64 64" fill="none" xmlns="http://www.w3.org/2000/svg">
<circle cx="32" cy="32" r="32" fill="#717171"/>
<circle cx="32" cy="32" r="28" fill="#7E7E7E"/>
<circle cx="32" cy="32" r="27.5" stroke="white" stroke-opacity="0.5"/>
<mask id="mask0_1047_5189" style="mask-type:alpha" maskUnits="userSpaceOnUse" x="4" y="4" width="56" height="56">
<circle cx="32" cy="32" r="27.5" fill="#717171" stroke="white"/>
</mask>
<g mask="url(#mask0_1047_5189)">
<path d="M5.54765 55.8933L53.3343 8.10665V-0.853354C48.641 -3.84002 38.9129 -9.81335 37.5476 -9.81335C35.8409 -9.81335 13.6542 -8.96002 12.8009 -8.53335C11.9476 -8.10669 -12.799 11.9466 -13.2257 12.8C-13.567 13.4826 -0.852351 41.8133 5.54765 55.8933Z" fill="white" fill-opacity="0.2" style="mix-blend-mode:overlay"/>
</g>
<path d="M32.5449 32.6929C31.3024 32.6929 30.1117 32.5302 28.9728 32.2048C27.8339 31.8646 26.9169 31.4283 26.2217 30.8958L27.4419 28.189C28.1075 28.6623 28.8915 29.0543 29.7937 29.3649C30.7108 29.6607 31.6352 29.8086 32.5671 29.8086C33.277 29.8086 33.8465 29.7421 34.2754 29.609C34.7192 29.461 35.0446 29.2614 35.2517 29.0099C35.4587 28.7585 35.5623 28.47 35.5623 28.1446C35.5623 27.7305 35.3996 27.4051 35.0742 27.1684C34.7488 26.917 34.3198 26.7173 33.7873 26.5694C33.2549 26.4067 32.6632 26.2588 32.0124 26.1257C31.3764 25.9777 30.733 25.8002 30.0822 25.5932C29.4461 25.3861 28.8619 25.1199 28.3294 24.7945C27.7969 24.469 27.3606 24.0401 27.0204 23.5076C26.695 22.9751 26.5323 22.2948 26.5323 21.4665C26.5323 20.579 26.769 19.7729 27.2423 19.0481C27.7304 18.3086 28.4551 17.7243 29.4166 17.2954C30.3928 16.8516 31.613 16.6298 33.0774 16.6298C34.0536 16.6298 35.015 16.7481 35.9616 16.9847C36.9083 17.2066 37.744 17.5468 38.4687 18.0053L37.3594 20.7343C36.6346 20.3201 35.9099 20.0169 35.1851 19.8246C34.4603 19.6176 33.7504 19.514 33.0552 19.514C32.36 19.514 31.7905 19.5954 31.3468 19.7581C30.9031 19.9208 30.5851 20.1353 30.3928 20.4015C30.2005 20.6529 30.1043 20.9488 30.1043 21.289C30.1043 21.6883 30.267 22.0137 30.5925 22.2652C30.9179 22.5018 31.3468 22.6941 31.8793 22.842C32.4118 22.9899 32.996 23.1378 33.632 23.2858C34.2828 23.4337 34.9262 23.6038 35.5623 23.7961C36.2131 23.9883 36.8047 24.2472 37.3372 24.5726C37.8697 24.898 38.2986 25.3269 38.624 25.8594C38.9642 26.3919 39.1343 27.0649 39.1343 27.8784C39.1343 28.7511 38.8903 29.5498 38.4022 30.2746C37.9141 30.9993 37.1819 31.5836 36.2057 32.0273C35.2443 32.471 34.024 32.6929 32.5449 32.6929Z" fill="white"/>
<path d="M18.8851 47.0357C18.4073 47.0357 17.9493 46.9732 17.5113 46.848C17.0732 46.7172 16.7205 46.5493 16.4531 46.3445L16.9225 45.3035C17.1785 45.4855 17.48 45.6363 17.827 45.7557C18.1797 45.8695 18.5353 45.9264 18.8937 45.9264C19.1667 45.9264 19.3857 45.9008 19.5507 45.8496C19.7214 45.7927 19.8465 45.7159 19.9262 45.6192C20.0058 45.5225 20.0457 45.4116 20.0457 45.2864C20.0457 45.1271 19.9831 45.002 19.8579 44.9109C19.7328 44.8142 19.5678 44.7374 19.363 44.6805C19.1582 44.618 18.9306 44.5611 18.6803 44.5099C18.4357 44.453 18.1882 44.3847 17.9379 44.3051C17.6933 44.2254 17.4686 44.123 17.2638 43.9979C17.059 43.8727 16.8912 43.7077 16.7603 43.5029C16.6352 43.2981 16.5726 43.0364 16.5726 42.7179C16.5726 42.3765 16.6636 42.0665 16.8457 41.7877C17.0334 41.5033 17.3121 41.2786 17.6819 41.1136C18.0574 40.9429 18.5267 40.8576 19.0899 40.8576C19.4654 40.8576 19.8352 40.9031 20.1993 40.9941C20.5633 41.0795 20.8848 41.2103 21.1635 41.3867L20.7369 42.4363C20.4581 42.277 20.1793 42.1604 19.9006 42.0864C19.6218 42.0068 19.3488 41.9669 19.0814 41.9669C18.814 41.9669 18.595 41.9982 18.4243 42.0608C18.2537 42.1234 18.1313 42.2059 18.0574 42.3083C17.9834 42.405 17.9465 42.5188 17.9465 42.6496C17.9465 42.8032 18.009 42.9284 18.1342 43.0251C18.2593 43.1161 18.4243 43.19 18.6291 43.2469C18.8339 43.3038 19.0586 43.3607 19.3033 43.4176C19.5536 43.4745 19.801 43.5399 20.0457 43.6139C20.296 43.6878 20.5235 43.7874 20.7283 43.9125C20.9331 44.0377 21.0981 44.2027 21.2233 44.4075C21.3541 44.6123 21.4195 44.8711 21.4195 45.184C21.4195 45.5196 21.3257 45.8268 21.1379 46.1056C20.9502 46.3844 20.6686 46.6091 20.2931 46.7797C19.9233 46.9504 19.454 47.0357 18.8851 47.0357Z" fill="white"/>
<path d="M22.3641 46.9333V40.96H23.7465V46.9333H22.3641Z" fill="white"/>
<path d="M25.1641 46.9333V40.96H26.5465V45.8069H29.5417V46.9333H25.1641Z" fill="white"/>
<path d="M31.6978 46.9333L29.1207 40.96H30.6141L32.8669 46.2507H31.9879L34.2749 40.96H35.6487L33.0631 46.9333H31.6978Z" fill="white"/>
<path d="M37.4189 43.3664H40.2947V44.4416H37.4189V43.3664ZM37.5213 45.824H40.7725V46.9333H36.1475V40.96H40.6616V42.0693H37.5213V45.824Z" fill="white"/>
<path d="M41.8725 46.9333V40.96H44.4581C44.9928 40.96 45.4536 41.0482 45.8405 41.2245C46.2273 41.3952 46.526 41.6427 46.7365 41.9669C46.9469 42.2912 47.0522 42.678 47.0522 43.1275C47.0522 43.5712 46.9469 43.9552 46.7365 44.2795C46.526 44.598 46.2273 44.8427 45.8405 45.0133C45.4536 45.184 44.9928 45.2693 44.4581 45.2693H42.6405L43.2549 44.6635V46.9333H41.8725ZM45.6698 46.9333L44.1765 44.7659H45.6527L47.1631 46.9333H45.6698ZM43.2549 44.8171L42.6405 44.1685H44.3813C44.8079 44.1685 45.1265 44.0775 45.337 43.8955C45.5475 43.7077 45.6527 43.4517 45.6527 43.1275C45.6527 42.7975 45.5475 42.5415 45.337 42.3595C45.1265 42.1774 44.8079 42.0864 44.3813 42.0864H42.6405L43.2549 41.4293V44.8171Z" fill="white"/>
</svg>
