<svg width="64" height="64" viewBox="0 0 64 64" fill="none" xmlns="http://www.w3.org/2000/svg">
<circle cx="32" cy="32" r="32" fill="#CAA851"/>
<circle cx="32" cy="32" r="28" fill="#D6BA5F"/>
<circle cx="32" cy="32" r="27.5" stroke="white" stroke-opacity="0.5"/>
<path d="M32.3806 32.6929C31.1529 32.6929 30.0214 32.5006 28.986 32.1161C27.9654 31.7167 27.0706 31.1546 26.3014 30.4299C25.5471 29.7051 24.9554 28.8546 24.5265 27.8784C24.1123 26.9022 23.9053 25.8298 23.9053 24.6613C23.9053 23.4928 24.1123 22.4205 24.5265 21.4443C24.9554 20.4681 25.5545 19.6176 26.3236 18.8928C27.0928 18.168 27.995 17.6134 29.0304 17.2288C30.0658 16.8294 31.2047 16.6298 32.4471 16.6298C33.8227 16.6298 35.0578 16.859 36.1523 17.3175C37.2616 17.7761 38.1935 18.4417 38.9478 19.3143L36.6404 21.4443C36.0784 20.8526 35.4645 20.4163 34.7989 20.1353C34.1333 19.8394 33.4086 19.6915 32.6246 19.6915C31.8703 19.6915 31.1825 19.8098 30.5613 20.0465C29.94 20.2832 29.4002 20.6234 28.9416 21.0671C28.4979 21.5108 28.1503 22.0359 27.8989 22.6423C27.6622 23.2488 27.5439 23.9218 27.5439 24.6613C27.5439 25.3861 27.6622 26.0517 27.8989 26.6581C28.1503 27.2646 28.4979 27.7971 28.9416 28.2556C29.4002 28.6993 29.9327 29.0395 30.5391 29.2762C31.1603 29.5128 31.8407 29.6311 32.5803 29.6311C33.2902 29.6311 33.978 29.5202 34.6436 29.2983C35.324 29.0617 35.9822 28.6697 36.6182 28.1225L38.6594 30.7183C37.8163 31.3543 36.8327 31.8424 35.7086 32.1826C34.5992 32.5228 33.4899 32.6929 32.3806 32.6929ZM35.3758 30.2524V24.4173H38.6594V30.7183L35.3758 30.2524Z" fill="white"/>
<mask id="mask0_1047_5191" style="mask-type:alpha" maskUnits="userSpaceOnUse" x="4" y="4" width="56" height="56">
<circle cx="32" cy="32" r="27.5" fill="#717171" stroke="white"/>
</mask>
<g mask="url(#mask0_1047_5191)">
<path d="M5.54667 55.8933L53.3333 8.10668V-0.853323C48.64 -3.83999 38.9119 -9.81332 37.5466 -9.81332C35.8399 -9.81332 13.6533 -8.95999 12.7999 -8.53332C11.9466 -8.10666 -12.8 11.9467 -13.2267 12.8C-13.568 13.4827 -0.85333 41.8133 5.54667 55.8933Z" fill="white" fill-opacity="0.2" style="mix-blend-mode:overlay"/>
</g>
<path d="M22.3662 47.0357C21.894 47.0357 21.4588 46.9618 21.0606 46.8139C20.668 46.6603 20.3239 46.4441 20.028 46.1653C19.7379 45.8866 19.5104 45.5595 19.3454 45.184C19.1861 44.8085 19.1064 44.3961 19.1064 43.9467C19.1064 43.4972 19.1861 43.0848 19.3454 42.7093C19.5104 42.3339 19.7408 42.0068 20.0366 41.728C20.3324 41.4492 20.6794 41.2359 21.0776 41.088C21.4759 40.9344 21.9139 40.8576 22.3918 40.8576C22.9208 40.8576 23.3959 40.9458 23.8168 41.1221C24.2435 41.2985 24.6019 41.5545 24.892 41.8901L24.0046 42.7093C23.7884 42.4818 23.5523 42.314 23.2963 42.2059C23.0403 42.0921 22.7616 42.0352 22.46 42.0352C22.1699 42.0352 21.9054 42.0807 21.6664 42.1717C21.4275 42.2628 21.2199 42.3936 21.0435 42.5643C20.8728 42.7349 20.7392 42.9369 20.6424 43.1701C20.5514 43.4034 20.5059 43.6622 20.5059 43.9467C20.5059 44.2254 20.5514 44.4814 20.6424 44.7147C20.7392 44.9479 20.8728 45.1527 21.0435 45.3291C21.2199 45.4997 21.4247 45.6306 21.6579 45.7216C21.8968 45.8126 22.1585 45.8581 22.443 45.8581C22.716 45.8581 22.9806 45.8155 23.2366 45.7301C23.4983 45.6391 23.7514 45.4884 23.996 45.2779L24.7811 46.2763C24.4568 46.5209 24.0785 46.7086 23.6462 46.8395C23.2195 46.9703 22.7928 47.0357 22.3662 47.0357ZM23.5182 46.0971V43.8528H24.7811V46.2763L23.5182 46.0971Z" fill="white"/>
<path d="M28.9666 47.0357C28.4944 47.0357 28.0564 46.9589 27.6524 46.8053C27.2542 46.6517 26.9072 46.4356 26.6114 46.1568C26.3212 45.878 26.0937 45.5509 25.9287 45.1755C25.7694 44.8 25.6898 44.3904 25.6898 43.9467C25.6898 43.5029 25.7694 43.0933 25.9287 42.7179C26.0937 42.3424 26.3241 42.0153 26.6199 41.7365C26.9157 41.4578 27.2628 41.2416 27.661 41.088C28.0592 40.9344 28.4916 40.8576 28.958 40.8576C29.4302 40.8576 29.8626 40.9344 30.2551 41.088C30.6533 41.2416 30.9975 41.4578 31.2876 41.7365C31.5835 42.0153 31.8139 42.3424 31.9788 42.7179C32.1438 43.0876 32.2263 43.4972 32.2263 43.9467C32.2263 44.3904 32.1438 44.8028 31.9788 45.184C31.8139 45.5595 31.5835 45.8866 31.2876 46.1653C30.9975 46.4384 30.6533 46.6517 30.2551 46.8053C29.8626 46.9589 29.4331 47.0357 28.9666 47.0357ZM28.958 45.8581C29.2254 45.8581 29.47 45.8126 29.6919 45.7216C29.9195 45.6306 30.1186 45.4997 30.2892 45.3291C30.4599 45.1584 30.5908 44.9564 30.6818 44.7232C30.7785 44.49 30.8268 44.2311 30.8268 43.9467C30.8268 43.6622 30.7785 43.4034 30.6818 43.1701C30.5908 42.9369 30.4599 42.7349 30.2892 42.5643C30.1243 42.3936 29.928 42.2628 29.7004 42.1717C29.4729 42.0807 29.2254 42.0352 28.958 42.0352C28.6907 42.0352 28.4432 42.0807 28.2156 42.1717C27.9938 42.2628 27.7975 42.3936 27.6268 42.5643C27.4562 42.7349 27.3225 42.9369 27.2258 43.1701C27.1348 43.4034 27.0892 43.6622 27.0892 43.9467C27.0892 44.2254 27.1348 44.4843 27.2258 44.7232C27.3225 44.9564 27.4533 45.1584 27.6183 45.3291C27.789 45.4997 27.9881 45.6306 28.2156 45.7216C28.4432 45.8126 28.6907 45.8581 28.958 45.8581Z" fill="white"/>
<path d="M33.2652 46.9333V40.96H34.6476V45.8069H37.6428V46.9333H33.2652Z" fill="white"/>
<path d="M38.4152 46.9333V40.96H41.1288C41.7774 40.96 42.3491 41.0852 42.844 41.3355C43.339 41.5801 43.7258 41.9243 44.0046 42.368C44.2833 42.8117 44.4227 43.338 44.4227 43.9467C44.4227 44.5497 44.2833 45.0759 44.0046 45.5253C43.7258 45.9691 43.339 46.3161 42.844 46.5664C42.3491 46.811 41.7774 46.9333 41.1288 46.9333H38.4152ZM39.7976 45.7984H41.0606C41.4588 45.7984 41.803 45.7244 42.0931 45.5765C42.3889 45.4229 42.6165 45.2068 42.7758 44.928C42.9408 44.6492 43.0232 44.3221 43.0232 43.9467C43.0232 43.5655 42.9408 43.2384 42.7758 42.9653C42.6165 42.6866 42.3889 42.4732 42.0931 42.3253C41.803 42.1717 41.4588 42.0949 41.0606 42.0949H39.7976V45.7984Z" fill="white"/>
</svg>
