<svg width="64" height="64" viewBox="0 0 64 64" fill="none" xmlns="http://www.w3.org/2000/svg">
<circle cx="32" cy="32" r="32" fill="#E29323"/>
<circle cx="32" cy="32" r="28" fill="#EBAF2A"/>
<circle cx="32" cy="32" r="27.5" stroke="white" stroke-opacity="0.5"/>
<mask id="mask0_1047_5193" style="mask-type:alpha" maskUnits="userSpaceOnUse" x="4" y="4" width="56" height="56">
<circle cx="32" cy="32" r="27.5" fill="#717171" stroke="white"/>
</mask>
<g mask="url(#mask0_1047_5193)">
<path d="M5.54765 55.8933L53.3343 8.10665V-0.853354C48.641 -3.84002 38.9129 -9.81335 37.5476 -9.81335C35.8409 -9.81335 13.6542 -8.96002 12.8009 -8.53335C11.9476 -8.10669 -12.799 11.9466 -13.2257 12.8C-13.567 13.4826 -0.852351 41.8133 5.54765 55.8933Z" fill="white" fill-opacity="0.2" style="mix-blend-mode:overlay"/>
</g>
<path d="M24.871 30.75C24.871 30.5199 25.0587 30.3333 25.2903 30.3333H38.7097C38.9413 30.3333 39.129 30.5199 39.129 30.75V31.5833C39.129 31.8135 38.9413 32 38.7097 32H25.2903C25.0587 32 24.871 31.8135 24.871 31.5833V30.75Z" fill="white"/>
<path d="M33.6774 13.6667C33.6774 14.4119 33.1851 15.0429 32.5061 15.2561L36.0635 22.9681C36.1304 23.113 36.3148 23.1596 36.4432 23.0639L41.7129 19.137C41.6688 18.9879 41.6452 18.83 41.6452 18.6667C41.6452 17.7462 42.3962 17 43.3226 17C44.249 17 45 17.7462 45 18.6667C45 19.5871 44.249 20.3333 43.3226 20.3333C42.9442 20.3333 42.595 20.2088 42.3144 19.9988L39.1865 29.2877C39.1522 29.3896 39.0561 29.4583 38.9479 29.4583H25.029C24.9324 29.4583 24.8443 29.4034 24.8024 29.3169L20.8452 21.1584C20.79 21.1639 20.734 21.1667 20.6774 21.1667C19.751 21.1667 19 20.4205 19 19.5C19 18.5795 19.751 17.8333 20.6774 17.8333C21.6038 17.8333 22.3548 18.5795 22.3548 19.5C22.3548 19.8708 22.233 20.2133 22.0269 20.4901L26.7197 23.5072C26.8498 23.5908 27.0243 23.5389 27.0867 23.398L30.8562 14.8858C30.5279 14.5816 30.3226 14.1479 30.3226 13.6667C30.3226 12.7462 31.0736 12 32 12C32.9264 12 33.6774 12.7462 33.6774 13.6667Z" fill="white"/>
<path d="M29.6367 42.1006L29.6824 42.0805C29.5138 41.6966 29.2781 41.362 28.9756 41.0768C28.6786 40.7915 28.3266 40.5706 27.9201 40.4138C27.5187 40.2568 27.0774 40.1786 26.5968 40.1786C26.1218 40.1786 25.6805 40.2568 25.2735 40.4138C24.8671 40.5706 24.5122 40.7915 24.2096 41.0767C23.907 41.3618 23.6712 41.6966 23.5025 42.0805L23.5023 42.0811C23.3392 42.4656 23.2579 42.8845 23.2579 43.3371C23.2579 43.7898 23.3392 44.2087 23.5023 44.5932L23.5023 44.5932L23.5025 44.5938C23.6711 44.9775 23.9039 45.3122 24.2007 45.5973L24.201 45.5976C24.5036 45.8828 24.8585 46.1037 25.2649 46.2605L25.2652 46.2606C25.6778 46.4175 26.1247 46.4957 26.6054 46.4957C27.0803 46.4957 27.5188 46.4175 27.9202 46.2605C28.3264 46.1037 28.6784 45.8857 28.9754 45.6062L28.9754 45.6062C29.278 45.3211 29.5137 44.9863 29.6824 44.6024L29.6825 44.6022C29.8515 44.2119 29.9357 43.79 29.9357 43.3371C29.9357 42.8786 29.8515 42.4594 29.6823 42.0802L29.6367 42.1006ZM29.6367 42.1006C29.8027 42.4727 29.8857 42.8849 29.8857 43.3371C29.8857 43.7837 29.8027 44.1987 29.6367 44.5823L27.902 40.4604C28.3028 40.615 28.6491 40.8325 28.9411 41.1131C29.2388 41.3936 29.4706 41.7228 29.6367 42.1006ZM42.6299 46.3427V46.3927H42.6799H47.0851H47.1351V46.3427V45.2092V45.1592H47.0851H44.121V40.3316V40.2816H44.071H42.6799H42.6299V40.3316V46.3427ZM35.2696 46.3223L35.2383 46.3927H35.3153H36.7408H36.7741L36.7869 46.3619L37.3098 45.1046H40.0294L40.5502 46.3618L40.563 46.3927H40.5964H42.0562H42.1334L42.1019 46.3223L39.4141 40.3112L39.4009 40.2816H39.3684H37.9945H37.962L37.9488 40.3113L35.2696 46.3223ZM38.6723 41.8283L39.5505 43.9484H37.7906L38.6723 41.8283ZM32.1154 46.3427V46.3927H32.1654H33.5565H33.6065V46.3427V44.2283L35.9351 40.3574L35.9807 40.2816H35.8922H34.5269H34.4986L34.4841 40.3058L32.9178 42.9031L31.3581 40.3059L31.3435 40.2816H31.3153H29.8383H29.7498L29.7954 40.3574L32.1154 44.214V46.3427ZM27.3167 45.0769L27.3163 45.077C27.0997 45.1659 26.8601 45.2107 26.5968 45.2107C26.3335 45.2107 26.0908 45.1659 25.8683 45.0769C25.6456 44.9878 25.4511 44.86 25.2842 44.6932C25.1232 44.5265 24.995 44.329 24.9 44.1001C24.811 43.866 24.7662 43.6119 24.7662 43.3371C24.7662 43.0565 24.811 42.8024 24.9 42.5744C24.9949 42.3456 25.1258 42.1481 25.2925 41.9814C25.4596 41.8143 25.6514 41.6864 25.8685 41.5974C26.091 41.5084 26.3336 41.4636 26.5968 41.4636C26.8601 41.4636 27.1027 41.5084 27.3253 41.5974C27.548 41.6865 27.7395 41.8143 27.9004 41.9808L27.901 41.9814C28.0677 42.148 28.1956 42.3454 28.2848 42.5739L28.2848 42.5739L28.2852 42.5749C28.3797 42.8028 28.4274 43.0567 28.4274 43.3371C28.4274 43.6176 28.3797 43.8715 28.2852 44.0994L28.2848 44.1004C28.1956 44.3289 28.0677 44.5262 27.901 44.6929C27.7341 44.8598 27.5395 44.9877 27.3167 45.0769ZM17.3211 46.3427V46.3927H17.3711H18.7622H18.8122V46.3427V44.7182H19.973C19.9862 44.7182 19.9993 44.7181 20.0123 44.718L21.1512 46.371L21.1661 46.3927H21.1924H22.6952H22.791L22.7362 46.3141L21.4279 44.4366C21.804 44.2624 22.0979 44.0169 22.3075 43.6996L22.3077 43.6993C22.5256 43.3637 22.6335 42.9675 22.6335 42.5128C22.6335 42.0525 22.5256 41.6534 22.3077 41.3177C22.0902 40.9825 21.7818 40.7275 21.3846 40.5522C20.9874 40.3712 20.5164 40.2816 19.973 40.2816H17.3711H17.3211V40.3316V46.3427ZM19.8957 43.5104H18.8122V41.5151H19.8957C20.3192 41.5151 20.6258 41.6057 20.8248 41.7777C21.0236 41.9497 21.1252 42.1923 21.1252 42.5128C21.1252 42.827 21.0239 43.0701 20.8245 43.2481C20.6255 43.42 20.319 43.5104 19.8957 43.5104Z" fill="white" stroke="white" stroke-width="0.1"/>
</svg>
