<svg width="64" height="64" viewBox="0 0 64 64" fill="none" xmlns="http://www.w3.org/2000/svg">
<circle cx="32" cy="32" r="32" fill="#9E1218"/>
<circle cx="32" cy="32" r="28" fill="#9E1218" fill-opacity="0.35"/>
<circle cx="32" cy="32" r="27.5" stroke="white" stroke-opacity="0.5"/>
<path d="M30.7686 23.8848H38.2233V26.7691H30.7686V23.8848ZM31.0349 32.4267H27.4406V16.896H39.1774V19.7803H31.0349V32.4267Z" fill="white"/>
<path d="M17.3474 43.648H20.2146V44.7573H17.3474V43.648ZM17.4498 46.9333H16.0674V40.96H20.5815V42.0693H17.4498V46.9333Z" fill="white"/>
<path d="M20.4906 46.9333L23.153 40.96H24.5184L27.1893 46.9333H25.7386L23.5541 41.6597H24.1003L21.9072 46.9333H20.4906ZM21.8218 45.6533L22.1888 44.6037H25.2608L25.6363 45.6533H21.8218Z" fill="white"/>
<path d="M27.809 46.9333V40.96H28.9525L31.4955 45.1755H30.8896L33.3899 40.96H34.5248L34.5418 46.9333H33.2448L33.2362 42.9483H33.4752L31.4784 46.3019H30.8554L28.816 42.9483H29.1061V46.9333H27.809Z" fill="white"/>
<path d="M35.959 46.9333V40.96H37.3415V46.9333H35.959Z" fill="white"/>
<path d="M38.7591 46.9333V40.96H40.1415V45.8069H43.1367V46.9333H38.7591Z" fill="white"/>
<path d="M44.7772 46.9333V44.4928L45.0929 45.3291L42.4647 40.96H43.9324L45.9463 44.3136H45.1014L47.1239 40.96H48.4807L45.8524 45.3291L46.1596 44.4928V46.9333H44.7772Z" fill="white"/>
<mask id="mask0_1047_5187" style="mask-type:alpha" maskUnits="userSpaceOnUse" x="4" y="4" width="56" height="56">
<circle cx="32" cy="32" r="27.5" fill="#9E1218" stroke="white"/>
</mask>
<g mask="url(#mask0_1047_5187)">
<path d="M5.54765 55.8933L53.3343 8.10665V-0.853354C48.641 -3.84002 38.9129 -9.81335 37.5476 -9.81335C35.8409 -9.81335 13.6542 -8.96002 12.8009 -8.53335C11.9476 -8.10669 -12.799 11.9466 -13.2257 12.8C-13.567 13.4826 -0.852351 41.8133 5.54765 55.8933Z" fill="white" fill-opacity="0.2" style="mix-blend-mode:overlay"/>
</g>
</svg>
